M48
; DRILL file {KiCad 8.0.7} date 2025-01-04T02:12:25-0800
; FORMAT={-:-/ absolute / inch / decimal}
; #@! TF.CreationDate,2025-01-04T02:12:25-08:00
; #@! TF.GenerationSoftware,Kicad,Pcbnew,8.0.7
; #@! TF.FileFunction,Plated,1,2,PTH
FMAT,2
INCH
; #@! TA.AperFunction,Plated,PTH,ViaDrill
T1C0.0118
%
G90
G05
T1
X0.8124Y-2.5464
X0.8372Y-2.0458
X0.8415Y-1.7287
X0.844Y-1.0664
X0.8596Y-0.6445
X0.8596Y-1.3538
X0.8604Y-1.8485
X0.8806Y-1.6604
X0.8929Y-1.1838
X0.9128Y-1.8336
X0.9215Y-2.2937
X0.9678Y-2.3166
X0.9925Y-1.8418
X0.9955Y-1.716
X1.0075Y-1.994
X1.019Y-1.6747
X1.0488Y-2.2728
X1.0632Y-2.3403
X1.0671Y-0.8386
X1.0823Y-1.5093
X1.0931Y-1.001
X1.1167Y-2.2982
X1.1235Y-1.8361
X1.1446Y-1.3071
X1.1555Y-1.1738
X1.1628Y-1.7669
X1.1631Y-1.5638
X1.1634Y-1.822
X1.1785Y-1.6797
X1.1928Y-2.0003
X1.2073Y-2.1873
X1.2142Y-2.0225
X1.2148Y-1.3292
X1.2226Y-1.656
X1.2358Y-1.006
X1.2404Y-2.0487
X1.2519Y-1.494
X1.2565Y-2.2487
X1.2805Y-2.0526
X1.3051Y-1.5
X1.3102Y-1.8805
X1.3131Y-0.9601
X1.3139Y-1.444
X1.3148Y-0.9253
X1.316Y-2.2977
X1.3172Y-1.1726
X1.3262Y-1.3177
X1.328Y-0.8949
X1.3295Y-1.6166
X1.3295Y-1.6879
X1.3536Y-1.4851
X1.3543Y-1.0189
X1.3689Y-2.2782
X1.3693Y-1.6752
X1.384Y-2.0706
X1.4151Y-1.665
X1.4179Y-2.352
X1.4434Y-1.8134
X1.4812Y-0.9974
X1.4823Y-1.4617
X1.485Y-1.6749
X1.4865Y-1.3784
X1.4881Y-1.5883
X1.4888Y-0.8989
X1.4974Y-0.8531
X1.5033Y-2.1333
X1.5206Y-1.6457
X1.5262Y-2.0069
X1.5381Y-1.1761
X1.5549Y-2.1577
X1.556Y-1.9918
X1.5656Y-1.8285
X1.5892Y-2.3777
X1.6011Y-1.1718
X1.6044Y-1.6825
X1.6283Y-0.8363
X1.6294Y-1.1561
X1.6365Y-2.3627
X1.6414Y-1.4698
X1.6454Y-1.0801
X1.6489Y-1.126
X1.6512Y-0.808
X1.6551Y-1.5211
X1.6559Y-1.8446
X1.6568Y-1.0014
X1.6595Y-2.0898
X1.6895Y-2.3627
X1.6912Y-0.8539
X1.6913Y-0.6854
X1.7075Y-2.2671
X1.7397Y-0.8457
X1.741Y-1.8191
X1.7852Y-0.8247
X1.7931Y-1.7195
X1.7945Y-2.2824
X1.7991Y-0.9882
X1.8037Y-1.0251
X1.8069Y-1.0721
X1.8077Y-0.7432
X1.8083Y-1.2435
X1.8151Y-1.3144
X1.8163Y-0.8172
X1.8163Y-1.6643
X1.8234Y-2.4216
X1.8428Y-2.0843
X1.8558Y-1.179
X1.8838Y-2.1752
X1.9156Y-2.3709
X1.9175Y-1.6492
X1.9317Y-1.1634
X1.9441Y-1.0168
X1.9442Y-1.6673
X1.9458Y-2.2349
X1.9614Y-1.6397
X1.962Y-1.4492
X1.9636Y-1.7776
X1.9636Y-1.4975
X1.964Y-1.3079
X1.964Y-1.4132
X1.9645Y-0.7186
X1.9661Y-0.7846
X1.9667Y-0.9127
X1.9894Y-1.6659
X2.0019Y-1.2379
X2.0028Y-1.0144
X2.0065Y-0.8378
X2.0152Y-2.0843
X2.0152Y-2.3754
X2.0171Y-1.4004
X2.0171Y-1.4733
X2.0171Y-1.8854
X2.046Y-2.0843
X2.0486Y-1.0097
X2.0488Y-1.8696
X2.0507Y-2.5367
X2.058Y-0.7702
X2.0583Y-1.4257
X2.0633Y-0.8518
X2.0661Y-1.666
X2.0665Y-1.605
X2.0684Y-1.7535
X2.0739Y-2.4308
X2.0869Y-1.4623
X2.0946Y-0.6422
X2.0946Y-0.6882
X2.1012Y-1.666
X2.1021Y-0.8729
X2.1134Y-2.2499
X2.1136Y-1.0597
X2.1136Y-1.597
X2.1202Y-2.4308
X2.1213Y-1.1325
X2.1301Y-1.3151
X2.1353Y-1.5228
X2.1391Y-1.6225
X2.1437Y-1.7691
X2.1459Y-1.0512
X2.156Y-1.4257
X2.1571Y-2.1109
X2.1626Y-1.2281
X2.1633Y-1.6005
X2.1777Y-1.0366
X2.1848Y-1.5351
X2.1872Y-1.8778
X2.1878Y-2.1045
X2.1914Y-1.4658
X2.2036Y-1.9415
X2.2075Y-1.6113
X2.21Y-1.4049
X2.21Y-1.7462
X2.2102Y-0.8523
X2.2156Y-1.015
X2.2269Y-1.82
X2.2317Y-1.666
X2.2345Y-0.8744
X2.236Y-1.5871
X2.2432Y-2.1591
X2.2432Y-2.2499
X2.2502Y-1.1982
X2.2505Y-1.5211
X2.2523Y-1.7959
X2.2541Y-1.8819
X2.2572Y-1.4743
X2.2605Y-0.8919
X2.2614Y-0.9388
X2.2671Y-2.0065
X2.2679Y-1.0296
X2.2813Y-1.666
X2.2862Y-1.2342
X2.2948Y-0.8778
X2.298Y-1.3037
X2.312Y-1.2165
X2.3157Y-1.884
X2.3234Y-2.1547
X2.3294Y-1.61
X2.3301Y-1.666
X2.3351Y-1.1216
X2.3395Y-1.5253
X2.3496Y-1.455
X2.3511Y-1.3573
X2.3526Y-1.2435
X2.3608Y-0.7223
X2.3615Y-0.8805
X2.3615Y-1.0066
X2.3677Y-1.3854
X2.369Y-1.9597
X2.3725Y-0.8044
X2.3771Y-2.0623
X2.3813Y-1.8145
X2.3986Y-1.7481
X2.403Y-1.6734
X2.4092Y-2.1359
X2.412Y-1.809
X2.4143Y-2.2526
X2.4239Y-1.591
X2.4262Y-1.4666
X2.4295Y-2.1127
X2.4313Y-1.7628
X2.437Y-1.1978
X2.4413Y-1.3885
X2.4464Y-1.6644
X2.4613Y-1.7486
X2.4625Y-1.0007
X2.4628Y-2.0423
X2.4633Y-1.1075
X2.4645Y-0.7463
X2.4645Y-1.5401
X2.4689Y-1.9702
X2.4698Y-1.3242
X2.4713Y-0.9388
X2.4925Y-1.9467
X2.4994Y-1.6804
X2.5014Y-0.7702
X2.507Y-1.015
X2.508Y-1.1229
X2.508Y-1.1984
X2.5131Y-1.8825
X2.5225Y-1.8233
X2.5247Y-1.4596
X2.5252Y-1.553
X2.5343Y-1.3141
X2.5396Y-1.583
X2.5412Y-2.4212
X2.5424Y-1.6986
X2.5497Y-1.4801
X2.555Y-0.8044
X2.5659Y-1.3602
X2.567Y-1.0541
X2.5678Y-1.1181
X2.5707Y-1.543
X2.581Y-1.1867
X2.5873Y-1.6106
X2.5959Y-1.4051
X2.5959Y-1.6779
X2.599Y-1.8836
X2.6049Y-1.2139
X2.6158Y-2.2369
X2.6164Y-1.8008
X2.6181Y-1.602
X2.6242Y-2.137
X2.6337Y-1.8535
X2.6398Y-0.8533
X2.6464Y-2.1583
X2.6481Y-1.7223
X2.6513Y-1.5059
X2.656Y-2.2049
X2.6586Y-1.6345
X2.668Y-2.072
X2.6689Y-1.3169
X2.6854Y-1.4317
X2.6917Y-1.2128
X2.7004Y-2.0184
X2.7038Y-1.3918
X2.7038Y-1.5372
X2.7426Y-1.9225
X2.7619Y-2.1012
X2.776Y-2.4424
X2.8117Y-2.3833
M30
