%TF.GenerationSoftware,KiCad,Pcbnew,8.0.7*%
%TF.CreationDate,2025-01-04T02:12:27-08:00*%
%TF.ProjectId,PCB,5043422e-6b69-4636-9164-5f7063625858,rev?*%
%TF.SameCoordinates,Original*%
%TF.FileFunction,Drillmap*%
%TF.FilePolarity,Positive*%
%FSLAX45Y45*%
G04 Gerber Fmt 4.5, Leading zero omitted, Abs format (unit mm)*
G04 Created by KiCad (PCBNEW 8.0.7) date 2025-01-04 02:12:27*
%MOMM*%
%LPD*%
G01*
G04 APERTURE LIST*
%ADD10C,0.050000*%
%ADD11C,0.200000*%
G04 APERTURE END LIST*
D10*
X2003000Y-1515000D02*
X7191000Y-1515000D01*
X7191000Y-6713000D01*
X2003000Y-6713000D01*
X2003000Y-1515000D01*
D11*
X2261277Y-7026984D02*
X2261277Y-6826984D01*
X2261277Y-6826984D02*
X2308896Y-6826984D01*
X2308896Y-6826984D02*
X2337467Y-6836508D01*
X2337467Y-6836508D02*
X2356515Y-6855555D01*
X2356515Y-6855555D02*
X2366039Y-6874603D01*
X2366039Y-6874603D02*
X2375563Y-6912698D01*
X2375563Y-6912698D02*
X2375563Y-6941269D01*
X2375563Y-6941269D02*
X2366039Y-6979365D01*
X2366039Y-6979365D02*
X2356515Y-6998412D01*
X2356515Y-6998412D02*
X2337467Y-7017460D01*
X2337467Y-7017460D02*
X2308896Y-7026984D01*
X2308896Y-7026984D02*
X2261277Y-7026984D01*
X2461277Y-7026984D02*
X2461277Y-6893650D01*
X2461277Y-6931746D02*
X2470801Y-6912698D01*
X2470801Y-6912698D02*
X2480324Y-6903174D01*
X2480324Y-6903174D02*
X2499372Y-6893650D01*
X2499372Y-6893650D02*
X2518420Y-6893650D01*
X2585086Y-7026984D02*
X2585086Y-6893650D01*
X2585086Y-6826984D02*
X2575563Y-6836508D01*
X2575563Y-6836508D02*
X2585086Y-6846031D01*
X2585086Y-6846031D02*
X2594610Y-6836508D01*
X2594610Y-6836508D02*
X2585086Y-6826984D01*
X2585086Y-6826984D02*
X2585086Y-6846031D01*
X2708896Y-7026984D02*
X2689848Y-7017460D01*
X2689848Y-7017460D02*
X2680324Y-6998412D01*
X2680324Y-6998412D02*
X2680324Y-6826984D01*
X2813658Y-7026984D02*
X2794610Y-7017460D01*
X2794610Y-7017460D02*
X2785086Y-6998412D01*
X2785086Y-6998412D02*
X2785086Y-6826984D01*
X3042229Y-7026984D02*
X3042229Y-6826984D01*
X3042229Y-6826984D02*
X3108896Y-6969841D01*
X3108896Y-6969841D02*
X3175562Y-6826984D01*
X3175562Y-6826984D02*
X3175562Y-7026984D01*
X3356515Y-7026984D02*
X3356515Y-6922222D01*
X3356515Y-6922222D02*
X3346991Y-6903174D01*
X3346991Y-6903174D02*
X3327943Y-6893650D01*
X3327943Y-6893650D02*
X3289848Y-6893650D01*
X3289848Y-6893650D02*
X3270801Y-6903174D01*
X3356515Y-7017460D02*
X3337467Y-7026984D01*
X3337467Y-7026984D02*
X3289848Y-7026984D01*
X3289848Y-7026984D02*
X3270801Y-7017460D01*
X3270801Y-7017460D02*
X3261277Y-6998412D01*
X3261277Y-6998412D02*
X3261277Y-6979365D01*
X3261277Y-6979365D02*
X3270801Y-6960317D01*
X3270801Y-6960317D02*
X3289848Y-6950793D01*
X3289848Y-6950793D02*
X3337467Y-6950793D01*
X3337467Y-6950793D02*
X3356515Y-6941269D01*
X3451753Y-6893650D02*
X3451753Y-7093650D01*
X3451753Y-6903174D02*
X3470801Y-6893650D01*
X3470801Y-6893650D02*
X3508896Y-6893650D01*
X3508896Y-6893650D02*
X3527943Y-6903174D01*
X3527943Y-6903174D02*
X3537467Y-6912698D01*
X3537467Y-6912698D02*
X3546991Y-6931746D01*
X3546991Y-6931746D02*
X3546991Y-6988888D01*
X3546991Y-6988888D02*
X3537467Y-7007936D01*
X3537467Y-7007936D02*
X3527943Y-7017460D01*
X3527943Y-7017460D02*
X3508896Y-7026984D01*
X3508896Y-7026984D02*
X3470801Y-7026984D01*
X3470801Y-7026984D02*
X3451753Y-7017460D01*
X3632705Y-7007936D02*
X3642229Y-7017460D01*
X3642229Y-7017460D02*
X3632705Y-7026984D01*
X3632705Y-7026984D02*
X3623182Y-7017460D01*
X3623182Y-7017460D02*
X3632705Y-7007936D01*
X3632705Y-7007936D02*
X3632705Y-7026984D01*
X3632705Y-6903174D02*
X3642229Y-6912698D01*
X3642229Y-6912698D02*
X3632705Y-6922222D01*
X3632705Y-6922222D02*
X3623182Y-6912698D01*
X3623182Y-6912698D02*
X3632705Y-6903174D01*
X3632705Y-6903174D02*
X3632705Y-6922222D01*
M02*
