%TF.GenerationSoftware,KiCad,Pcbnew,8.0.7*%
%TF.CreationDate,2025-01-04T02:12:27-08:00*%
%TF.ProjectId,PCB,5043422e-6b69-4636-9164-5f7063625858,rev?*%
%TF.SameCoordinates,Original*%
%TF.FileFunction,Drillmap*%
%TF.FilePolarity,Positive*%
%FSLAX45Y45*%
G04 Gerber Fmt 4.5, Leading zero omitted, Abs format (unit mm)*
G04 Created by KiCad (PCBNEW 8.0.7) date 2025-01-04 02:12:27*
%MOMM*%
%LPD*%
G01*
G04 APERTURE LIST*
%ADD10C,0.050000*%
%ADD11C,0.200000*%
%ADD12C,0.100000*%
G04 APERTURE END LIST*
D10*
X2003000Y-1515000D02*
X7191000Y-1515000D01*
X7191000Y-6713000D01*
X2003000Y-6713000D01*
X2003000Y-1515000D01*
D11*
D12*
X2048610Y-6452960D02*
X2078610Y-6482960D01*
X2078610Y-6452960D02*
X2048610Y-6482960D01*
X2111590Y-5181420D02*
X2141590Y-5211420D01*
X2141590Y-5181420D02*
X2111590Y-5211420D01*
X2122470Y-4375820D02*
X2152470Y-4405820D01*
X2152470Y-4375820D02*
X2122470Y-4405820D01*
X2128720Y-2693660D02*
X2158720Y-2723660D01*
X2158720Y-2693660D02*
X2128720Y-2723660D01*
X2168330Y-1621910D02*
X2198330Y-1651910D01*
X2198330Y-1621910D02*
X2168330Y-1651910D01*
X2168330Y-3423670D02*
X2198330Y-3453670D01*
X2198330Y-3423670D02*
X2168330Y-3453670D01*
X2170500Y-4680210D02*
X2200500Y-4710210D01*
X2200500Y-4680210D02*
X2170500Y-4710210D01*
X2221610Y-4202440D02*
X2251610Y-4232440D01*
X2251610Y-4202440D02*
X2221610Y-4232440D01*
X2253020Y-2991820D02*
X2283020Y-3021820D01*
X2283020Y-2991820D02*
X2253020Y-3021820D01*
X2303590Y-4642360D02*
X2333590Y-4672360D01*
X2333590Y-4642360D02*
X2303590Y-4672360D01*
X2325680Y-5811050D02*
X2355680Y-5841050D01*
X2355680Y-5811050D02*
X2325680Y-5841050D01*
X2443250Y-5869220D02*
X2473250Y-5899220D01*
X2473250Y-5869220D02*
X2443250Y-5899220D01*
X2505890Y-4663120D02*
X2535890Y-4693120D01*
X2535890Y-4663120D02*
X2505890Y-4693120D01*
X2513450Y-4343540D02*
X2543450Y-4373540D01*
X2543450Y-4343540D02*
X2513450Y-4373540D01*
X2544160Y-5049640D02*
X2574160Y-5079640D01*
X2574160Y-5049640D02*
X2544160Y-5079640D01*
X2573330Y-4238850D02*
X2603330Y-4268850D01*
X2603330Y-4238850D02*
X2573330Y-4268850D01*
X2648940Y-5757970D02*
X2678940Y-5787970D01*
X2678940Y-5757970D02*
X2648940Y-5787970D01*
X2685610Y-5929310D02*
X2715610Y-5959310D01*
X2715610Y-5929310D02*
X2685610Y-5959310D01*
X2695420Y-2115110D02*
X2725420Y-2145110D01*
X2725420Y-2115110D02*
X2695420Y-2145110D01*
X2734120Y-3818630D02*
X2764120Y-3848630D01*
X2764120Y-3818630D02*
X2734120Y-3848630D01*
X2761380Y-2527500D02*
X2791380Y-2557500D01*
X2791380Y-2527500D02*
X2761380Y-2557500D01*
X2821500Y-5822540D02*
X2851500Y-5852540D01*
X2851500Y-5822540D02*
X2821500Y-5852540D01*
X2838750Y-4648680D02*
X2868750Y-4678680D01*
X2868750Y-4648680D02*
X2838750Y-4678680D01*
X2892370Y-3305010D02*
X2922370Y-3335010D01*
X2922370Y-3305010D02*
X2892370Y-3335010D01*
X2920000Y-2966560D02*
X2950000Y-2996560D01*
X2950000Y-2966560D02*
X2920000Y-2996560D01*
X2938390Y-4472970D02*
X2968390Y-4502970D01*
X2968390Y-4472970D02*
X2938390Y-4502970D01*
X2939330Y-3957060D02*
X2969330Y-3987060D01*
X2969330Y-3957060D02*
X2939330Y-3987060D01*
X2940160Y-4612840D02*
X2970160Y-4642840D01*
X2970160Y-4612840D02*
X2940160Y-4642840D01*
X2978330Y-4251400D02*
X3008330Y-4281400D01*
X3008330Y-4251400D02*
X2978330Y-4281400D01*
X3014610Y-5065780D02*
X3044610Y-5095780D01*
X3044610Y-5065780D02*
X3014610Y-5095780D01*
X3051500Y-5540770D02*
X3081500Y-5570770D01*
X3081500Y-5540770D02*
X3051500Y-5570770D01*
X3069000Y-5122140D02*
X3099000Y-5152140D01*
X3099000Y-5122140D02*
X3069000Y-5152140D01*
X3070520Y-3361050D02*
X3100520Y-3391050D01*
X3100520Y-3361050D02*
X3070520Y-3391050D01*
X3090370Y-4191180D02*
X3120370Y-4221180D01*
X3120370Y-4191180D02*
X3090370Y-4221180D01*
X3123900Y-2540190D02*
X3153900Y-2570190D01*
X3153900Y-2540190D02*
X3123900Y-2570190D01*
X3135640Y-5188770D02*
X3165640Y-5218770D01*
X3165640Y-5188770D02*
X3135640Y-5218770D01*
X3164730Y-3779730D02*
X3194730Y-3809730D01*
X3194730Y-3779730D02*
X3164730Y-3809730D01*
X3176490Y-5696730D02*
X3206490Y-5726730D01*
X3206490Y-5696730D02*
X3176490Y-5726730D01*
X3237430Y-5198500D02*
X3267430Y-5228500D01*
X3267430Y-5198500D02*
X3237430Y-5228500D01*
X3299980Y-3794910D02*
X3329980Y-3824910D01*
X3329980Y-3794910D02*
X3299980Y-3824910D01*
X3312970Y-4761420D02*
X3342970Y-4791420D01*
X3342970Y-4761420D02*
X3312970Y-4791420D01*
X3320370Y-2423580D02*
X3350370Y-2453580D01*
X3350370Y-2423580D02*
X3320370Y-2453580D01*
X3322430Y-3652710D02*
X3352430Y-3682710D01*
X3352430Y-3652710D02*
X3322430Y-3682710D01*
X3324630Y-2335140D02*
X3354630Y-2365140D01*
X3354630Y-2335140D02*
X3324630Y-2365140D01*
X3327520Y-5821200D02*
X3357520Y-5851200D01*
X3357520Y-5821200D02*
X3327520Y-5851200D01*
X3330640Y-2963470D02*
X3360640Y-2993470D01*
X3360640Y-2963470D02*
X3330640Y-2993470D01*
X3353570Y-3331930D02*
X3383570Y-3361930D01*
X3383570Y-3331930D02*
X3353570Y-3361930D01*
X3358170Y-2258110D02*
X3388170Y-2288110D01*
X3388170Y-2258110D02*
X3358170Y-2288110D01*
X3361970Y-4091200D02*
X3391970Y-4121200D01*
X3391970Y-4091200D02*
X3361970Y-4121200D01*
X3361970Y-4272350D02*
X3391970Y-4302350D01*
X3391970Y-4272350D02*
X3361970Y-4302350D01*
X3423270Y-3757140D02*
X3453270Y-3787140D01*
X3453270Y-3757140D02*
X3423270Y-3787140D01*
X3424800Y-2573090D02*
X3454800Y-2603090D01*
X3454800Y-2573090D02*
X3424800Y-2603090D01*
X3462010Y-5771620D02*
X3492010Y-5801620D01*
X3492010Y-5771620D02*
X3462010Y-5801620D01*
X3463040Y-4240000D02*
X3493040Y-4270000D01*
X3493040Y-4240000D02*
X3463040Y-4270000D01*
X3500300Y-5244380D02*
X3530300Y-5274380D01*
X3530300Y-5244380D02*
X3500300Y-5274380D01*
X3579390Y-4214190D02*
X3609390Y-4244190D01*
X3609390Y-4214190D02*
X3579390Y-4244190D01*
X3586370Y-5959100D02*
X3616370Y-5989100D01*
X3616370Y-5959100D02*
X3586370Y-5989100D01*
X3651110Y-4591070D02*
X3681110Y-4621070D01*
X3681110Y-4591070D02*
X3651110Y-4621070D01*
X3747220Y-2518500D02*
X3777220Y-2548500D01*
X3777220Y-2518500D02*
X3747220Y-2548500D01*
X3750080Y-3697810D02*
X3780080Y-3727810D01*
X3780080Y-3697810D02*
X3750080Y-3727810D01*
X3756790Y-4239140D02*
X3786790Y-4269140D01*
X3786790Y-4239140D02*
X3756790Y-4269140D01*
X3760730Y-3486160D02*
X3790730Y-3516160D01*
X3790730Y-3486160D02*
X3760730Y-3516160D01*
X3764880Y-4019320D02*
X3794880Y-4049320D01*
X3794880Y-4019320D02*
X3764880Y-4049320D01*
X3766460Y-2268200D02*
X3796460Y-2298200D01*
X3796460Y-2268200D02*
X3766460Y-2298200D01*
X3788330Y-2151850D02*
X3818330Y-2181850D01*
X3818330Y-2151850D02*
X3788330Y-2181850D01*
X3803290Y-5403540D02*
X3833290Y-5433540D01*
X3833290Y-5403540D02*
X3803290Y-5433540D01*
X3847340Y-4165140D02*
X3877340Y-4195140D01*
X3877340Y-4165140D02*
X3847340Y-4195140D01*
X3861550Y-5082600D02*
X3891550Y-5112600D01*
X3891550Y-5082600D02*
X3861550Y-5112600D01*
X3891730Y-2972200D02*
X3921730Y-3002200D01*
X3921730Y-2972200D02*
X3891730Y-3002200D01*
X3934440Y-5465650D02*
X3964440Y-5495650D01*
X3964440Y-5465650D02*
X3934440Y-5495650D01*
X3937190Y-5044270D02*
X3967190Y-5074270D01*
X3967190Y-5044270D02*
X3937190Y-5074270D01*
X3961630Y-4629410D02*
X3991630Y-4659410D01*
X3991630Y-4629410D02*
X3961630Y-4659410D01*
X4021500Y-6024310D02*
X4051500Y-6054310D01*
X4051500Y-6024310D02*
X4021500Y-6054310D01*
X4051810Y-2961410D02*
X4081810Y-2991410D01*
X4081810Y-2961410D02*
X4051810Y-2991410D01*
X4060070Y-4258540D02*
X4090070Y-4288540D01*
X4090070Y-4258540D02*
X4060070Y-4288540D01*
X4120910Y-2109190D02*
X4150910Y-2139190D01*
X4150910Y-2109190D02*
X4120910Y-2139190D01*
X4123730Y-2921470D02*
X4153730Y-2951470D01*
X4153730Y-2921470D02*
X4123730Y-2951470D01*
X4141620Y-5986140D02*
X4171620Y-6016140D01*
X4171620Y-5986140D02*
X4141620Y-6016140D01*
X4154030Y-3718230D02*
X4184030Y-3748230D01*
X4184030Y-3718230D02*
X4154030Y-3748230D01*
X4164400Y-2728510D02*
X4194400Y-2758510D01*
X4194400Y-2728510D02*
X4164400Y-2758510D01*
X4173280Y-2845130D02*
X4203280Y-2875130D01*
X4203280Y-2845130D02*
X4173280Y-2875130D01*
X4179140Y-2037370D02*
X4209140Y-2067370D01*
X4209140Y-2037370D02*
X4179140Y-2067370D01*
X4189000Y-3848600D02*
X4219000Y-3878600D01*
X4219000Y-3848600D02*
X4189000Y-3878600D01*
X4191020Y-4670340D02*
X4221020Y-4700340D01*
X4221020Y-4670340D02*
X4191020Y-4700340D01*
X4193330Y-2528440D02*
X4223330Y-2558440D01*
X4223330Y-2528440D02*
X4193330Y-2558440D01*
X4200050Y-5292970D02*
X4230050Y-5322970D01*
X4230050Y-5292970D02*
X4200050Y-5322970D01*
X4276410Y-5986140D02*
X4306410Y-6016140D01*
X4306410Y-5986140D02*
X4276410Y-6016140D01*
X4280750Y-2153780D02*
X4310750Y-2183780D01*
X4310750Y-2153780D02*
X4280750Y-2183780D01*
X4280820Y-1726000D02*
X4310820Y-1756000D01*
X4310820Y-1726000D02*
X4280820Y-1756000D01*
X4322000Y-5743310D02*
X4352000Y-5773310D01*
X4352000Y-5743310D02*
X4322000Y-5773310D01*
X4403830Y-2133180D02*
X4433830Y-2163180D01*
X4433830Y-2133180D02*
X4403830Y-2163180D01*
X4407150Y-4605620D02*
X4437150Y-4635620D01*
X4437150Y-4605620D02*
X4407150Y-4635620D01*
X4519430Y-2079770D02*
X4549430Y-2109770D01*
X4549430Y-2079770D02*
X4519430Y-2109770D01*
X4539570Y-4352510D02*
X4569570Y-4382510D01*
X4569570Y-4352510D02*
X4539570Y-4382510D01*
X4543090Y-5782410D02*
X4573090Y-5812410D01*
X4573090Y-5782410D02*
X4543090Y-5812410D01*
X4554810Y-2495010D02*
X4584810Y-2525010D01*
X4584810Y-2495010D02*
X4554810Y-2525010D01*
X4566280Y-2588740D02*
X4596280Y-2618740D01*
X4596280Y-2588740D02*
X4566280Y-2618740D01*
X4574640Y-2708010D02*
X4604640Y-2738010D01*
X4604640Y-2708010D02*
X4574640Y-2738010D01*
X4576540Y-1872680D02*
X4606540Y-1902680D01*
X4606540Y-1872680D02*
X4576540Y-1902680D01*
X4578140Y-3143430D02*
X4608140Y-3173430D01*
X4608140Y-3143430D02*
X4578140Y-3173430D01*
X4595240Y-3323620D02*
X4625240Y-3353620D01*
X4625240Y-3323620D02*
X4595240Y-3353620D01*
X4598330Y-2060630D02*
X4628330Y-2090630D01*
X4628330Y-2060630D02*
X4598330Y-2090630D01*
X4598330Y-4212310D02*
X4628330Y-4242310D01*
X4628330Y-4212310D02*
X4598330Y-4242310D01*
X4616490Y-6135850D02*
X4646490Y-6165850D01*
X4646490Y-6135850D02*
X4616490Y-6165850D01*
X4665700Y-5279210D02*
X4695700Y-5309210D01*
X4695700Y-5279210D02*
X4665700Y-5309210D01*
X4698780Y-2979640D02*
X4728780Y-3009640D01*
X4728780Y-2979640D02*
X4698780Y-3009640D01*
X4769740Y-5510070D02*
X4799740Y-5540070D01*
X4799740Y-5510070D02*
X4769740Y-5540070D01*
X4850730Y-6007050D02*
X4880730Y-6037050D01*
X4880730Y-6007050D02*
X4850730Y-6037050D01*
X4855470Y-4173930D02*
X4885470Y-4203930D01*
X4885470Y-4173930D02*
X4855470Y-4203930D01*
X4891470Y-2940090D02*
X4921470Y-2970090D01*
X4921470Y-2940090D02*
X4891470Y-2970090D01*
X4922960Y-2567630D02*
X4952960Y-2597630D01*
X4952960Y-2567630D02*
X4922960Y-2597630D01*
X4923250Y-4219840D02*
X4953250Y-4249840D01*
X4953250Y-4219840D02*
X4923250Y-4249840D01*
X4927440Y-5661680D02*
X4957440Y-5691680D01*
X4957440Y-5661680D02*
X4927440Y-5691680D01*
X4966840Y-4149720D02*
X4996840Y-4179720D01*
X4996840Y-4149720D02*
X4966840Y-4179720D01*
X4968450Y-3666020D02*
X4998450Y-3696020D01*
X4998450Y-3666020D02*
X4968450Y-3696020D01*
X4972440Y-4499980D02*
X5002440Y-4529980D01*
X5002440Y-4499980D02*
X4972440Y-4529980D01*
X4972530Y-3788720D02*
X5002530Y-3818720D01*
X5002530Y-3788720D02*
X4972530Y-3818720D01*
X4973440Y-3307190D02*
X5003440Y-3337190D01*
X5003440Y-3307190D02*
X4973440Y-3337190D01*
X4973440Y-3574650D02*
X5003440Y-3604650D01*
X5003440Y-3574650D02*
X4973440Y-3604650D01*
X4974830Y-1810180D02*
X5004830Y-1840180D01*
X5004830Y-1810180D02*
X4974830Y-1840180D01*
X4978920Y-1977780D02*
X5008920Y-2007780D01*
X5008920Y-1977780D02*
X4978920Y-2007780D01*
X4980470Y-2303200D02*
X5010470Y-2333200D01*
X5010470Y-2303200D02*
X4980470Y-2333200D01*
X5037980Y-4216260D02*
X5067980Y-4246260D01*
X5067980Y-4216260D02*
X5037980Y-4246260D01*
X5069900Y-3129200D02*
X5099900Y-3159200D01*
X5099900Y-3129200D02*
X5069900Y-3159200D01*
X5072140Y-2561570D02*
X5102140Y-2591570D01*
X5102140Y-2561570D02*
X5072140Y-2591570D01*
X5081510Y-2113010D02*
X5111510Y-2143010D01*
X5111510Y-2113010D02*
X5081510Y-2143010D01*
X5103660Y-5279210D02*
X5133660Y-5309210D01*
X5133660Y-5279210D02*
X5103660Y-5309210D01*
X5103660Y-6018420D02*
X5133660Y-6048420D01*
X5133660Y-6018420D02*
X5103660Y-6048420D01*
X5108500Y-3541930D02*
X5138500Y-3571930D01*
X5138500Y-3541930D02*
X5108500Y-3571930D01*
X5108500Y-3727100D02*
X5138500Y-3757100D01*
X5138500Y-3727100D02*
X5108500Y-3757100D01*
X5108500Y-4773870D02*
X5138500Y-4803870D01*
X5138500Y-4773870D02*
X5108500Y-4803870D01*
X5181840Y-5279210D02*
X5211840Y-5309210D01*
X5211840Y-5279210D02*
X5181840Y-5309210D01*
X5188500Y-2549560D02*
X5218500Y-2579560D01*
X5218500Y-2549560D02*
X5188500Y-2579560D01*
X5188860Y-4733780D02*
X5218860Y-4763780D01*
X5218860Y-4733780D02*
X5188860Y-4763780D01*
X5193830Y-6428150D02*
X5223830Y-6458150D01*
X5223830Y-6428150D02*
X5193830Y-6458150D01*
X5212270Y-1941230D02*
X5242270Y-1971230D01*
X5242270Y-1941230D02*
X5212270Y-1971230D01*
X5212970Y-3606230D02*
X5242970Y-3636230D01*
X5242970Y-3606230D02*
X5212970Y-3636230D01*
X5225850Y-2148600D02*
X5255850Y-2178600D01*
X5255850Y-2148600D02*
X5225850Y-2178600D01*
X5232770Y-4216710D02*
X5262770Y-4246710D01*
X5262770Y-4216710D02*
X5232770Y-4246710D01*
X5233980Y-4061680D02*
X5263980Y-4091680D01*
X5263980Y-4061680D02*
X5233980Y-4091680D01*
X5238750Y-4438940D02*
X5268750Y-4468940D01*
X5268750Y-4438940D02*
X5238750Y-4468940D01*
X5252830Y-6159120D02*
X5282830Y-6189120D01*
X5282830Y-6159120D02*
X5252830Y-6189120D01*
X5285600Y-3699170D02*
X5315600Y-3729170D01*
X5315600Y-3699170D02*
X5285600Y-3729170D01*
X5305410Y-1616070D02*
X5335410Y-1646070D01*
X5335410Y-1616070D02*
X5305410Y-1646070D01*
X5305410Y-1732920D02*
X5335410Y-1762920D01*
X5335410Y-1732920D02*
X5305410Y-1762920D01*
X5322150Y-4216710D02*
X5352150Y-4246710D01*
X5352150Y-4216710D02*
X5322150Y-4246710D01*
X5324440Y-2202130D02*
X5354440Y-2232130D01*
X5354440Y-2202130D02*
X5324440Y-2232130D01*
X5353010Y-5699850D02*
X5383010Y-5729850D01*
X5383010Y-5699850D02*
X5353010Y-5729850D01*
X5353460Y-2676730D02*
X5383460Y-2706730D01*
X5383460Y-2676730D02*
X5353460Y-2706730D01*
X5353500Y-4041360D02*
X5383500Y-4071360D01*
X5383500Y-4041360D02*
X5353500Y-4071360D01*
X5370370Y-6159120D02*
X5400370Y-6189120D01*
X5400370Y-6159120D02*
X5370370Y-6189120D01*
X5373170Y-2861470D02*
X5403170Y-2891470D01*
X5403170Y-2861470D02*
X5373170Y-2891470D01*
X5395380Y-3325460D02*
X5425380Y-3355460D01*
X5425380Y-3325460D02*
X5395380Y-3355460D01*
X5408770Y-3852890D02*
X5438770Y-3882890D01*
X5438770Y-3852890D02*
X5408770Y-3882890D01*
X5418380Y-4106270D02*
X5448380Y-4136270D01*
X5448380Y-4106270D02*
X5418380Y-4136270D01*
X5429930Y-4478590D02*
X5459930Y-4508590D01*
X5459930Y-4478590D02*
X5429930Y-4508590D01*
X5435580Y-2655040D02*
X5465580Y-2685040D01*
X5465580Y-2655040D02*
X5435580Y-2685040D01*
X5461170Y-3606190D02*
X5491170Y-3636190D01*
X5491170Y-3606190D02*
X5461170Y-3636190D01*
X5463920Y-5346780D02*
X5493920Y-5376780D01*
X5493920Y-5346780D02*
X5463920Y-5376780D01*
X5477910Y-3104470D02*
X5507910Y-3134470D01*
X5507910Y-3104470D02*
X5477910Y-3134470D01*
X5479900Y-4050240D02*
X5509900Y-4080240D01*
X5509900Y-4050240D02*
X5479900Y-4080240D01*
X5516250Y-2618090D02*
X5546250Y-2648090D01*
X5546250Y-2618090D02*
X5516250Y-2648090D01*
X5534500Y-3884050D02*
X5564500Y-3914050D01*
X5564500Y-3884050D02*
X5534500Y-3914050D01*
X5540490Y-4754530D02*
X5570490Y-4784530D01*
X5570490Y-4754530D02*
X5540490Y-4784530D01*
X5542100Y-5330420D02*
X5572100Y-5360420D01*
X5572100Y-5330420D02*
X5542100Y-5360420D01*
X5551100Y-3708170D02*
X5581100Y-3738170D01*
X5581100Y-3708170D02*
X5551100Y-3738170D01*
X5582060Y-4916410D02*
X5612060Y-4946410D01*
X5612060Y-4916410D02*
X5582060Y-4946410D01*
X5591950Y-4077720D02*
X5621950Y-4107720D01*
X5621950Y-4077720D02*
X5591950Y-4107720D01*
X5598500Y-3553320D02*
X5628500Y-3583320D01*
X5628500Y-3553320D02*
X5598500Y-3583320D01*
X5598500Y-4420370D02*
X5628500Y-4450370D01*
X5628500Y-4420370D02*
X5598500Y-4450370D01*
X5598940Y-2149850D02*
X5628940Y-2179850D01*
X5628940Y-2149850D02*
X5598940Y-2179850D01*
X5612750Y-2562990D02*
X5642750Y-2592990D01*
X5642750Y-2562990D02*
X5612750Y-2592990D01*
X5641330Y-4607680D02*
X5671330Y-4637680D01*
X5671330Y-4607680D02*
X5641330Y-4637680D01*
X5653400Y-4216710D02*
X5683400Y-4246710D01*
X5683400Y-4216710D02*
X5653400Y-4246710D01*
X5660630Y-2206010D02*
X5690630Y-2236010D01*
X5690630Y-2206010D02*
X5660630Y-2236010D01*
X5664500Y-4016140D02*
X5694500Y-4046140D01*
X5694500Y-4016140D02*
X5664500Y-4046140D01*
X5682720Y-5469000D02*
X5712720Y-5499000D01*
X5712720Y-5469000D02*
X5682720Y-5499000D01*
X5682720Y-5699850D02*
X5712720Y-5729850D01*
X5712720Y-5699850D02*
X5682720Y-5729850D01*
X5700540Y-3028340D02*
X5730540Y-3058340D01*
X5730540Y-3028340D02*
X5700540Y-3058340D01*
X5701340Y-3848640D02*
X5731340Y-3878640D01*
X5731340Y-3848640D02*
X5701340Y-3878640D01*
X5705800Y-4546600D02*
X5735800Y-4576600D01*
X5735800Y-4546600D02*
X5705800Y-4576600D01*
X5710320Y-4765060D02*
X5740320Y-4795060D01*
X5740320Y-4765060D02*
X5710320Y-4795060D01*
X5718280Y-3729690D02*
X5748280Y-3759690D01*
X5748280Y-3729690D02*
X5718280Y-3759690D01*
X5726770Y-2250450D02*
X5756770Y-2280450D01*
X5756770Y-2250450D02*
X5726770Y-2280450D01*
X5729060Y-2369670D02*
X5759060Y-2399670D01*
X5759060Y-2369670D02*
X5729060Y-2399670D01*
X5743560Y-5081390D02*
X5773560Y-5111390D01*
X5773560Y-5081390D02*
X5743560Y-5111390D01*
X5745480Y-2600060D02*
X5775480Y-2630060D01*
X5775480Y-2600060D02*
X5745480Y-2630060D01*
X5779500Y-4216710D02*
X5809500Y-4246710D01*
X5809500Y-4216710D02*
X5779500Y-4246710D01*
X5791900Y-3119750D02*
X5821900Y-3149750D01*
X5821900Y-3119750D02*
X5791900Y-3149750D01*
X5813890Y-2214730D02*
X5843890Y-2244730D01*
X5843890Y-2214730D02*
X5813890Y-2244730D01*
X5822030Y-3296490D02*
X5852030Y-3326490D01*
X5852030Y-3296490D02*
X5822030Y-3326490D01*
X5857560Y-3074850D02*
X5887560Y-3104850D01*
X5887560Y-3074850D02*
X5857560Y-3104850D01*
X5866870Y-4770460D02*
X5896870Y-4800460D01*
X5896870Y-4770460D02*
X5866870Y-4800460D01*
X5886400Y-5457930D02*
X5916400Y-5487930D01*
X5916400Y-5457930D02*
X5886400Y-5487930D01*
X5901760Y-4074430D02*
X5931760Y-4104430D01*
X5931760Y-4074430D02*
X5901760Y-4104430D01*
X5903550Y-4216710D02*
X5933550Y-4246710D01*
X5933550Y-4216710D02*
X5903550Y-4246710D01*
X5916040Y-2833770D02*
X5946040Y-2863770D01*
X5946040Y-2833770D02*
X5916040Y-2863770D01*
X5927260Y-3859320D02*
X5957260Y-3889320D01*
X5957260Y-3859320D02*
X5927260Y-3889320D01*
X5953110Y-3680760D02*
X5983110Y-3710760D01*
X5983110Y-3680760D02*
X5953110Y-3710760D01*
X5956920Y-3432420D02*
X5986920Y-3462420D01*
X5986920Y-3432420D02*
X5956920Y-3462420D01*
X5960730Y-3143590D02*
X5990730Y-3173590D01*
X5990730Y-3143590D02*
X5960730Y-3173590D01*
X5981510Y-1819520D02*
X6011510Y-1849520D01*
X6011510Y-1819520D02*
X5981510Y-1849520D01*
X5983100Y-2221360D02*
X6013100Y-2251360D01*
X6013100Y-2221360D02*
X5983100Y-2251360D01*
X5983100Y-2541840D02*
X6013100Y-2571840D01*
X6013100Y-2541840D02*
X5983100Y-2571840D01*
X5998960Y-3503880D02*
X6028960Y-3533880D01*
X6028960Y-3503880D02*
X5998960Y-3533880D01*
X6002240Y-4962670D02*
X6032240Y-4992670D01*
X6032240Y-4962670D02*
X6002240Y-4992670D01*
X6011090Y-2028120D02*
X6041090Y-2058120D01*
X6041090Y-2028120D02*
X6011090Y-2058120D01*
X6022830Y-5223340D02*
X6052830Y-5253340D01*
X6052830Y-5223340D02*
X6022830Y-5253340D01*
X6033390Y-4593820D02*
X6063390Y-4623820D01*
X6063390Y-4593820D02*
X6033390Y-4623820D01*
X6077420Y-4425220D02*
X6107420Y-4455220D01*
X6107420Y-4425220D02*
X6077420Y-4455220D01*
X6088500Y-4235500D02*
X6118500Y-4265500D01*
X6118500Y-4235500D02*
X6088500Y-4265500D01*
X6104380Y-5410300D02*
X6134380Y-5440300D01*
X6134380Y-5410300D02*
X6104380Y-5440300D01*
X6111570Y-4579740D02*
X6141570Y-4609740D01*
X6141570Y-4579740D02*
X6111570Y-4609740D01*
X6117250Y-5706630D02*
X6147250Y-5736630D01*
X6147250Y-5706630D02*
X6117250Y-5736630D01*
X6141630Y-4026130D02*
X6171630Y-4056130D01*
X6171630Y-4026130D02*
X6141630Y-4056130D01*
X6147560Y-3710110D02*
X6177560Y-3740110D01*
X6177560Y-3710110D02*
X6147560Y-3740110D01*
X6155840Y-5351190D02*
X6185840Y-5381190D01*
X6185840Y-5351190D02*
X6155840Y-5381190D01*
X6160510Y-4462410D02*
X6190510Y-4492410D01*
X6190510Y-4462410D02*
X6160510Y-4492410D01*
X6175060Y-3027330D02*
X6205060Y-3057330D01*
X6205060Y-3027330D02*
X6175060Y-3057330D01*
X6185900Y-3511780D02*
X6215900Y-3541780D01*
X6215900Y-3511780D02*
X6185900Y-3541780D01*
X6198890Y-4212610D02*
X6228890Y-4242610D01*
X6228890Y-4212610D02*
X6198890Y-4242610D01*
X6236760Y-4426510D02*
X6266760Y-4456510D01*
X6266760Y-4426510D02*
X6236760Y-4456510D01*
X6239790Y-2526720D02*
X6269790Y-2556720D01*
X6269790Y-2526720D02*
X6239790Y-2556720D01*
X6240600Y-5172400D02*
X6270600Y-5202400D01*
X6270600Y-5172400D02*
X6240600Y-5202400D01*
X6241870Y-2798080D02*
X6271870Y-2828080D01*
X6271870Y-2798080D02*
X6241870Y-2828080D01*
X6244710Y-1880610D02*
X6274710Y-1910610D01*
X6274710Y-1880610D02*
X6244710Y-1910610D01*
X6244820Y-3896740D02*
X6274820Y-3926740D01*
X6274820Y-3896740D02*
X6244820Y-3926740D01*
X6255970Y-4989390D02*
X6285970Y-5019390D01*
X6285970Y-4989390D02*
X6255970Y-5019390D01*
X6258250Y-3348400D02*
X6288250Y-3378400D01*
X6288250Y-3348400D02*
X6258250Y-3378400D01*
X6262130Y-2369520D02*
X6292130Y-2399520D01*
X6292130Y-2369520D02*
X6262130Y-2399520D01*
X6315850Y-4929500D02*
X6345850Y-4959500D01*
X6345850Y-4929500D02*
X6315850Y-4959500D01*
X6333500Y-4253200D02*
X6363500Y-4283200D01*
X6363500Y-4253200D02*
X6333500Y-4283200D01*
X6338650Y-1941230D02*
X6368650Y-1971230D01*
X6368650Y-1941230D02*
X6338650Y-1971230D01*
X6352830Y-2563130D02*
X6382830Y-2593130D01*
X6382830Y-2563130D02*
X6352830Y-2593130D01*
X6355250Y-2837110D02*
X6385250Y-2867110D01*
X6385250Y-2837110D02*
X6355250Y-2867110D01*
X6355250Y-3028990D02*
X6385250Y-3058990D01*
X6385250Y-3028990D02*
X6355250Y-3058990D01*
X6368210Y-4766460D02*
X6398210Y-4796460D01*
X6398210Y-4766460D02*
X6368210Y-4796460D01*
X6392060Y-4616270D02*
X6422060Y-4646270D01*
X6422060Y-4616270D02*
X6392060Y-4646270D01*
X6397690Y-3692270D02*
X6427690Y-3722270D01*
X6427690Y-3692270D02*
X6397690Y-3722270D01*
X6398920Y-3929600D02*
X6428920Y-3959600D01*
X6428920Y-3929600D02*
X6398920Y-3959600D01*
X6422080Y-3322710D02*
X6452080Y-3352710D01*
X6452080Y-3322710D02*
X6422080Y-3352710D01*
X6435620Y-4005750D02*
X6465620Y-4035750D01*
X6465620Y-4005750D02*
X6435620Y-4035750D01*
X6439570Y-6134840D02*
X6469570Y-6164840D01*
X6469570Y-6134840D02*
X6439570Y-6164840D01*
X6442780Y-4299430D02*
X6472780Y-4329430D01*
X6472780Y-4299430D02*
X6442780Y-4329430D01*
X6461220Y-3744390D02*
X6491220Y-3774390D01*
X6491220Y-3744390D02*
X6461220Y-3774390D01*
X6474610Y-2028120D02*
X6504610Y-2058120D01*
X6504610Y-2028120D02*
X6474610Y-2058120D01*
X6502480Y-3440030D02*
X6532480Y-3470030D01*
X6532480Y-3440030D02*
X6502480Y-3470030D01*
X6505060Y-2662320D02*
X6535060Y-2692320D01*
X6535060Y-2662320D02*
X6505060Y-2692320D01*
X6507100Y-2825060D02*
X6537100Y-2855060D01*
X6537100Y-2825060D02*
X6507100Y-2855060D01*
X6514500Y-3904110D02*
X6544500Y-3934110D01*
X6544500Y-3904110D02*
X6514500Y-3934110D01*
X6540690Y-2999230D02*
X6570690Y-3029230D01*
X6570690Y-2999230D02*
X6540690Y-3029230D01*
X6556710Y-4075940D02*
X6586710Y-4105940D01*
X6586710Y-4075940D02*
X6556710Y-4105940D01*
X6578500Y-3553870D02*
X6608500Y-3583870D01*
X6608500Y-3553870D02*
X6578500Y-3583870D01*
X6578500Y-4246950D02*
X6608500Y-4276950D01*
X6608500Y-4246950D02*
X6578500Y-4276950D01*
X6586460Y-4769290D02*
X6616460Y-4799290D01*
X6616460Y-4769290D02*
X6586460Y-4799290D01*
X6601320Y-3068270D02*
X6631320Y-3098270D01*
X6631320Y-3068270D02*
X6601320Y-3098270D01*
X6629040Y-5666840D02*
X6659040Y-5696840D01*
X6659040Y-5666840D02*
X6629040Y-5696840D01*
X6630650Y-4559090D02*
X6660650Y-4589090D01*
X6660650Y-4559090D02*
X6630650Y-4589090D01*
X6634890Y-4054040D02*
X6664890Y-4084040D01*
X6664890Y-4054040D02*
X6634890Y-4084040D01*
X6650540Y-5412950D02*
X6680540Y-5442950D01*
X6680540Y-5412950D02*
X6650540Y-5442950D01*
X6674530Y-4692820D02*
X6704530Y-4722820D01*
X6704530Y-4692820D02*
X6674530Y-4722820D01*
X6690130Y-2152290D02*
X6720130Y-2182290D01*
X6720130Y-2152290D02*
X6690130Y-2182290D01*
X6706880Y-5467180D02*
X6736880Y-5497180D01*
X6736880Y-5467180D02*
X6706880Y-5497180D01*
X6711180Y-4359620D02*
X6741180Y-4389620D01*
X6741180Y-4359620D02*
X6711180Y-4389620D01*
X6719370Y-3810020D02*
X6749370Y-3840020D01*
X6749370Y-3810020D02*
X6719370Y-3840020D01*
X6731130Y-5585380D02*
X6761130Y-5615380D01*
X6761130Y-5585380D02*
X6731130Y-5615380D01*
X6737900Y-4136530D02*
X6767900Y-4166530D01*
X6767900Y-4136530D02*
X6737900Y-4166530D01*
X6761690Y-5247920D02*
X6791690Y-5277920D01*
X6791690Y-5247920D02*
X6761690Y-5277920D01*
X6763900Y-3329850D02*
X6793900Y-3359850D01*
X6793900Y-3329850D02*
X6763900Y-3359850D01*
X6805950Y-3621410D02*
X6835950Y-3651410D01*
X6835950Y-3621410D02*
X6805950Y-3651410D01*
X6821890Y-3065390D02*
X6851890Y-3095390D01*
X6851890Y-3065390D02*
X6821890Y-3095390D01*
X6843960Y-5111660D02*
X6873960Y-5141660D01*
X6873960Y-5111660D02*
X6843960Y-5141660D01*
X6852570Y-3520220D02*
X6882570Y-3550220D01*
X6882570Y-3520220D02*
X6852570Y-3550220D01*
X6852570Y-3889490D02*
X6882570Y-3919490D01*
X6882570Y-3889490D02*
X6852570Y-3919490D01*
X6951120Y-4868190D02*
X6981120Y-4898190D01*
X6981120Y-4868190D02*
X6951120Y-4898190D01*
X7000210Y-5322090D02*
X7030210Y-5352090D01*
X7030210Y-5322090D02*
X7000210Y-5352090D01*
X7035950Y-6188780D02*
X7065950Y-6218780D01*
X7065950Y-6188780D02*
X7035950Y-6218780D01*
X7126620Y-6038500D02*
X7156620Y-6068500D01*
X7156620Y-6038500D02*
X7126620Y-6068500D01*
D11*
X2261277Y-7026984D02*
X2261277Y-6826984D01*
X2261277Y-6826984D02*
X2308896Y-6826984D01*
X2308896Y-6826984D02*
X2337467Y-6836508D01*
X2337467Y-6836508D02*
X2356515Y-6855555D01*
X2356515Y-6855555D02*
X2366039Y-6874603D01*
X2366039Y-6874603D02*
X2375563Y-6912698D01*
X2375563Y-6912698D02*
X2375563Y-6941269D01*
X2375563Y-6941269D02*
X2366039Y-6979365D01*
X2366039Y-6979365D02*
X2356515Y-6998412D01*
X2356515Y-6998412D02*
X2337467Y-7017460D01*
X2337467Y-7017460D02*
X2308896Y-7026984D01*
X2308896Y-7026984D02*
X2261277Y-7026984D01*
X2461277Y-7026984D02*
X2461277Y-6893650D01*
X2461277Y-6931746D02*
X2470801Y-6912698D01*
X2470801Y-6912698D02*
X2480324Y-6903174D01*
X2480324Y-6903174D02*
X2499372Y-6893650D01*
X2499372Y-6893650D02*
X2518420Y-6893650D01*
X2585086Y-7026984D02*
X2585086Y-6893650D01*
X2585086Y-6826984D02*
X2575563Y-6836508D01*
X2575563Y-6836508D02*
X2585086Y-6846031D01*
X2585086Y-6846031D02*
X2594610Y-6836508D01*
X2594610Y-6836508D02*
X2585086Y-6826984D01*
X2585086Y-6826984D02*
X2585086Y-6846031D01*
X2708896Y-7026984D02*
X2689848Y-7017460D01*
X2689848Y-7017460D02*
X2680324Y-6998412D01*
X2680324Y-6998412D02*
X2680324Y-6826984D01*
X2813658Y-7026984D02*
X2794610Y-7017460D01*
X2794610Y-7017460D02*
X2785086Y-6998412D01*
X2785086Y-6998412D02*
X2785086Y-6826984D01*
X3042229Y-7026984D02*
X3042229Y-6826984D01*
X3042229Y-6826984D02*
X3108896Y-6969841D01*
X3108896Y-6969841D02*
X3175562Y-6826984D01*
X3175562Y-6826984D02*
X3175562Y-7026984D01*
X3356515Y-7026984D02*
X3356515Y-6922222D01*
X3356515Y-6922222D02*
X3346991Y-6903174D01*
X3346991Y-6903174D02*
X3327943Y-6893650D01*
X3327943Y-6893650D02*
X3289848Y-6893650D01*
X3289848Y-6893650D02*
X3270801Y-6903174D01*
X3356515Y-7017460D02*
X3337467Y-7026984D01*
X3337467Y-7026984D02*
X3289848Y-7026984D01*
X3289848Y-7026984D02*
X3270801Y-7017460D01*
X3270801Y-7017460D02*
X3261277Y-6998412D01*
X3261277Y-6998412D02*
X3261277Y-6979365D01*
X3261277Y-6979365D02*
X3270801Y-6960317D01*
X3270801Y-6960317D02*
X3289848Y-6950793D01*
X3289848Y-6950793D02*
X3337467Y-6950793D01*
X3337467Y-6950793D02*
X3356515Y-6941269D01*
X3451753Y-6893650D02*
X3451753Y-7093650D01*
X3451753Y-6903174D02*
X3470801Y-6893650D01*
X3470801Y-6893650D02*
X3508896Y-6893650D01*
X3508896Y-6893650D02*
X3527943Y-6903174D01*
X3527943Y-6903174D02*
X3537467Y-6912698D01*
X3537467Y-6912698D02*
X3546991Y-6931746D01*
X3546991Y-6931746D02*
X3546991Y-6988888D01*
X3546991Y-6988888D02*
X3537467Y-7007936D01*
X3537467Y-7007936D02*
X3527943Y-7017460D01*
X3527943Y-7017460D02*
X3508896Y-7026984D01*
X3508896Y-7026984D02*
X3470801Y-7026984D01*
X3470801Y-7026984D02*
X3451753Y-7017460D01*
X3632705Y-7007936D02*
X3642229Y-7017460D01*
X3642229Y-7017460D02*
X3632705Y-7026984D01*
X3632705Y-7026984D02*
X3623182Y-7017460D01*
X3623182Y-7017460D02*
X3632705Y-7007936D01*
X3632705Y-7007936D02*
X3632705Y-7026984D01*
X3632705Y-6903174D02*
X3642229Y-6912698D01*
X3642229Y-6912698D02*
X3632705Y-6922222D01*
X3632705Y-6922222D02*
X3623182Y-6912698D01*
X3623182Y-6912698D02*
X3632705Y-6903174D01*
X3632705Y-6903174D02*
X3632705Y-6922222D01*
D12*
X1970500Y-7340500D02*
X2000500Y-7370500D01*
X2000500Y-7340500D02*
X1970500Y-7370500D01*
D11*
X2299372Y-7246984D02*
X2318420Y-7246984D01*
X2318420Y-7246984D02*
X2337467Y-7256508D01*
X2337467Y-7256508D02*
X2346991Y-7266031D01*
X2346991Y-7266031D02*
X2356515Y-7285079D01*
X2356515Y-7285079D02*
X2366039Y-7323174D01*
X2366039Y-7323174D02*
X2366039Y-7370793D01*
X2366039Y-7370793D02*
X2356515Y-7408888D01*
X2356515Y-7408888D02*
X2346991Y-7427936D01*
X2346991Y-7427936D02*
X2337467Y-7437460D01*
X2337467Y-7437460D02*
X2318420Y-7446984D01*
X2318420Y-7446984D02*
X2299372Y-7446984D01*
X2299372Y-7446984D02*
X2280324Y-7437460D01*
X2280324Y-7437460D02*
X2270801Y-7427936D01*
X2270801Y-7427936D02*
X2261277Y-7408888D01*
X2261277Y-7408888D02*
X2251753Y-7370793D01*
X2251753Y-7370793D02*
X2251753Y-7323174D01*
X2251753Y-7323174D02*
X2261277Y-7285079D01*
X2261277Y-7285079D02*
X2270801Y-7266031D01*
X2270801Y-7266031D02*
X2280324Y-7256508D01*
X2280324Y-7256508D02*
X2299372Y-7246984D01*
X2451753Y-7427936D02*
X2461277Y-7437460D01*
X2461277Y-7437460D02*
X2451753Y-7446984D01*
X2451753Y-7446984D02*
X2442229Y-7437460D01*
X2442229Y-7437460D02*
X2451753Y-7427936D01*
X2451753Y-7427936D02*
X2451753Y-7446984D01*
X2527944Y-7246984D02*
X2651753Y-7246984D01*
X2651753Y-7246984D02*
X2585086Y-7323174D01*
X2585086Y-7323174D02*
X2613658Y-7323174D01*
X2613658Y-7323174D02*
X2632705Y-7332698D01*
X2632705Y-7332698D02*
X2642229Y-7342222D01*
X2642229Y-7342222D02*
X2651753Y-7361269D01*
X2651753Y-7361269D02*
X2651753Y-7408888D01*
X2651753Y-7408888D02*
X2642229Y-7427936D01*
X2642229Y-7427936D02*
X2632705Y-7437460D01*
X2632705Y-7437460D02*
X2613658Y-7446984D01*
X2613658Y-7446984D02*
X2556515Y-7446984D01*
X2556515Y-7446984D02*
X2537467Y-7437460D01*
X2537467Y-7437460D02*
X2527944Y-7427936D01*
X2775563Y-7246984D02*
X2794610Y-7246984D01*
X2794610Y-7246984D02*
X2813658Y-7256508D01*
X2813658Y-7256508D02*
X2823182Y-7266031D01*
X2823182Y-7266031D02*
X2832705Y-7285079D01*
X2832705Y-7285079D02*
X2842229Y-7323174D01*
X2842229Y-7323174D02*
X2842229Y-7370793D01*
X2842229Y-7370793D02*
X2832705Y-7408888D01*
X2832705Y-7408888D02*
X2823182Y-7427936D01*
X2823182Y-7427936D02*
X2813658Y-7437460D01*
X2813658Y-7437460D02*
X2794610Y-7446984D01*
X2794610Y-7446984D02*
X2775563Y-7446984D01*
X2775563Y-7446984D02*
X2756515Y-7437460D01*
X2756515Y-7437460D02*
X2746991Y-7427936D01*
X2746991Y-7427936D02*
X2737467Y-7408888D01*
X2737467Y-7408888D02*
X2727944Y-7370793D01*
X2727944Y-7370793D02*
X2727944Y-7323174D01*
X2727944Y-7323174D02*
X2737467Y-7285079D01*
X2737467Y-7285079D02*
X2746991Y-7266031D01*
X2746991Y-7266031D02*
X2756515Y-7256508D01*
X2756515Y-7256508D02*
X2775563Y-7246984D01*
X2966039Y-7246984D02*
X2985086Y-7246984D01*
X2985086Y-7246984D02*
X3004134Y-7256508D01*
X3004134Y-7256508D02*
X3013658Y-7266031D01*
X3013658Y-7266031D02*
X3023182Y-7285079D01*
X3023182Y-7285079D02*
X3032705Y-7323174D01*
X3032705Y-7323174D02*
X3032705Y-7370793D01*
X3032705Y-7370793D02*
X3023182Y-7408888D01*
X3023182Y-7408888D02*
X3013658Y-7427936D01*
X3013658Y-7427936D02*
X3004134Y-7437460D01*
X3004134Y-7437460D02*
X2985086Y-7446984D01*
X2985086Y-7446984D02*
X2966039Y-7446984D01*
X2966039Y-7446984D02*
X2946991Y-7437460D01*
X2946991Y-7437460D02*
X2937467Y-7427936D01*
X2937467Y-7427936D02*
X2927943Y-7408888D01*
X2927943Y-7408888D02*
X2918420Y-7370793D01*
X2918420Y-7370793D02*
X2918420Y-7323174D01*
X2918420Y-7323174D02*
X2927943Y-7285079D01*
X2927943Y-7285079D02*
X2937467Y-7266031D01*
X2937467Y-7266031D02*
X2946991Y-7256508D01*
X2946991Y-7256508D02*
X2966039Y-7246984D01*
X3118420Y-7446984D02*
X3118420Y-7313650D01*
X3118420Y-7332698D02*
X3127943Y-7323174D01*
X3127943Y-7323174D02*
X3146991Y-7313650D01*
X3146991Y-7313650D02*
X3175563Y-7313650D01*
X3175563Y-7313650D02*
X3194610Y-7323174D01*
X3194610Y-7323174D02*
X3204134Y-7342222D01*
X3204134Y-7342222D02*
X3204134Y-7446984D01*
X3204134Y-7342222D02*
X3213658Y-7323174D01*
X3213658Y-7323174D02*
X3232705Y-7313650D01*
X3232705Y-7313650D02*
X3261277Y-7313650D01*
X3261277Y-7313650D02*
X3280324Y-7323174D01*
X3280324Y-7323174D02*
X3289848Y-7342222D01*
X3289848Y-7342222D02*
X3289848Y-7446984D01*
X3385086Y-7446984D02*
X3385086Y-7313650D01*
X3385086Y-7332698D02*
X3394610Y-7323174D01*
X3394610Y-7323174D02*
X3413658Y-7313650D01*
X3413658Y-7313650D02*
X3442229Y-7313650D01*
X3442229Y-7313650D02*
X3461277Y-7323174D01*
X3461277Y-7323174D02*
X3470801Y-7342222D01*
X3470801Y-7342222D02*
X3470801Y-7446984D01*
X3470801Y-7342222D02*
X3480324Y-7323174D01*
X3480324Y-7323174D02*
X3499372Y-7313650D01*
X3499372Y-7313650D02*
X3527943Y-7313650D01*
X3527943Y-7313650D02*
X3546991Y-7323174D01*
X3546991Y-7323174D02*
X3556515Y-7342222D01*
X3556515Y-7342222D02*
X3556515Y-7446984D01*
X3946991Y-7237460D02*
X3775563Y-7494603D01*
X4204134Y-7246984D02*
X4223182Y-7246984D01*
X4223182Y-7246984D02*
X4242229Y-7256508D01*
X4242229Y-7256508D02*
X4251753Y-7266031D01*
X4251753Y-7266031D02*
X4261277Y-7285079D01*
X4261277Y-7285079D02*
X4270801Y-7323174D01*
X4270801Y-7323174D02*
X4270801Y-7370793D01*
X4270801Y-7370793D02*
X4261277Y-7408888D01*
X4261277Y-7408888D02*
X4251753Y-7427936D01*
X4251753Y-7427936D02*
X4242229Y-7437460D01*
X4242229Y-7437460D02*
X4223182Y-7446984D01*
X4223182Y-7446984D02*
X4204134Y-7446984D01*
X4204134Y-7446984D02*
X4185086Y-7437460D01*
X4185086Y-7437460D02*
X4175563Y-7427936D01*
X4175563Y-7427936D02*
X4166039Y-7408888D01*
X4166039Y-7408888D02*
X4156515Y-7370793D01*
X4156515Y-7370793D02*
X4156515Y-7323174D01*
X4156515Y-7323174D02*
X4166039Y-7285079D01*
X4166039Y-7285079D02*
X4175563Y-7266031D01*
X4175563Y-7266031D02*
X4185086Y-7256508D01*
X4185086Y-7256508D02*
X4204134Y-7246984D01*
X4356515Y-7427936D02*
X4366039Y-7437460D01*
X4366039Y-7437460D02*
X4356515Y-7446984D01*
X4356515Y-7446984D02*
X4346991Y-7437460D01*
X4346991Y-7437460D02*
X4356515Y-7427936D01*
X4356515Y-7427936D02*
X4356515Y-7446984D01*
X4489848Y-7246984D02*
X4508896Y-7246984D01*
X4508896Y-7246984D02*
X4527944Y-7256508D01*
X4527944Y-7256508D02*
X4537468Y-7266031D01*
X4537468Y-7266031D02*
X4546991Y-7285079D01*
X4546991Y-7285079D02*
X4556515Y-7323174D01*
X4556515Y-7323174D02*
X4556515Y-7370793D01*
X4556515Y-7370793D02*
X4546991Y-7408888D01*
X4546991Y-7408888D02*
X4537468Y-7427936D01*
X4537468Y-7427936D02*
X4527944Y-7437460D01*
X4527944Y-7437460D02*
X4508896Y-7446984D01*
X4508896Y-7446984D02*
X4489848Y-7446984D01*
X4489848Y-7446984D02*
X4470801Y-7437460D01*
X4470801Y-7437460D02*
X4461277Y-7427936D01*
X4461277Y-7427936D02*
X4451753Y-7408888D01*
X4451753Y-7408888D02*
X4442229Y-7370793D01*
X4442229Y-7370793D02*
X4442229Y-7323174D01*
X4442229Y-7323174D02*
X4451753Y-7285079D01*
X4451753Y-7285079D02*
X4461277Y-7266031D01*
X4461277Y-7266031D02*
X4470801Y-7256508D01*
X4470801Y-7256508D02*
X4489848Y-7246984D01*
X4746991Y-7446984D02*
X4632706Y-7446984D01*
X4689848Y-7446984D02*
X4689848Y-7246984D01*
X4689848Y-7246984D02*
X4670801Y-7275555D01*
X4670801Y-7275555D02*
X4651753Y-7294603D01*
X4651753Y-7294603D02*
X4632706Y-7304127D01*
X4937468Y-7446984D02*
X4823182Y-7446984D01*
X4880325Y-7446984D02*
X4880325Y-7246984D01*
X4880325Y-7246984D02*
X4861277Y-7275555D01*
X4861277Y-7275555D02*
X4842229Y-7294603D01*
X4842229Y-7294603D02*
X4823182Y-7304127D01*
X5051753Y-7332698D02*
X5032706Y-7323174D01*
X5032706Y-7323174D02*
X5023182Y-7313650D01*
X5023182Y-7313650D02*
X5013658Y-7294603D01*
X5013658Y-7294603D02*
X5013658Y-7285079D01*
X5013658Y-7285079D02*
X5023182Y-7266031D01*
X5023182Y-7266031D02*
X5032706Y-7256508D01*
X5032706Y-7256508D02*
X5051753Y-7246984D01*
X5051753Y-7246984D02*
X5089849Y-7246984D01*
X5089849Y-7246984D02*
X5108896Y-7256508D01*
X5108896Y-7256508D02*
X5118420Y-7266031D01*
X5118420Y-7266031D02*
X5127944Y-7285079D01*
X5127944Y-7285079D02*
X5127944Y-7294603D01*
X5127944Y-7294603D02*
X5118420Y-7313650D01*
X5118420Y-7313650D02*
X5108896Y-7323174D01*
X5108896Y-7323174D02*
X5089849Y-7332698D01*
X5089849Y-7332698D02*
X5051753Y-7332698D01*
X5051753Y-7332698D02*
X5032706Y-7342222D01*
X5032706Y-7342222D02*
X5023182Y-7351746D01*
X5023182Y-7351746D02*
X5013658Y-7370793D01*
X5013658Y-7370793D02*
X5013658Y-7408888D01*
X5013658Y-7408888D02*
X5023182Y-7427936D01*
X5023182Y-7427936D02*
X5032706Y-7437460D01*
X5032706Y-7437460D02*
X5051753Y-7446984D01*
X5051753Y-7446984D02*
X5089849Y-7446984D01*
X5089849Y-7446984D02*
X5108896Y-7437460D01*
X5108896Y-7437460D02*
X5118420Y-7427936D01*
X5118420Y-7427936D02*
X5127944Y-7408888D01*
X5127944Y-7408888D02*
X5127944Y-7370793D01*
X5127944Y-7370793D02*
X5118420Y-7351746D01*
X5118420Y-7351746D02*
X5108896Y-7342222D01*
X5108896Y-7342222D02*
X5089849Y-7332698D01*
X5204134Y-7246984D02*
X5204134Y-7285079D01*
X5280325Y-7246984D02*
X5280325Y-7285079D01*
X5575563Y-7523174D02*
X5566039Y-7513650D01*
X5566039Y-7513650D02*
X5546991Y-7485079D01*
X5546991Y-7485079D02*
X5537468Y-7466031D01*
X5537468Y-7466031D02*
X5527944Y-7437460D01*
X5527944Y-7437460D02*
X5518420Y-7389841D01*
X5518420Y-7389841D02*
X5518420Y-7351746D01*
X5518420Y-7351746D02*
X5527944Y-7304127D01*
X5527944Y-7304127D02*
X5537468Y-7275555D01*
X5537468Y-7275555D02*
X5546991Y-7256508D01*
X5546991Y-7256508D02*
X5566039Y-7227936D01*
X5566039Y-7227936D02*
X5575563Y-7218412D01*
X5642229Y-7266031D02*
X5651753Y-7256508D01*
X5651753Y-7256508D02*
X5670801Y-7246984D01*
X5670801Y-7246984D02*
X5718420Y-7246984D01*
X5718420Y-7246984D02*
X5737468Y-7256508D01*
X5737468Y-7256508D02*
X5746991Y-7266031D01*
X5746991Y-7266031D02*
X5756515Y-7285079D01*
X5756515Y-7285079D02*
X5756515Y-7304127D01*
X5756515Y-7304127D02*
X5746991Y-7332698D01*
X5746991Y-7332698D02*
X5632706Y-7446984D01*
X5632706Y-7446984D02*
X5756515Y-7446984D01*
X5823182Y-7246984D02*
X5956515Y-7246984D01*
X5956515Y-7246984D02*
X5870801Y-7446984D01*
X6061277Y-7332698D02*
X6042229Y-7323174D01*
X6042229Y-7323174D02*
X6032706Y-7313650D01*
X6032706Y-7313650D02*
X6023182Y-7294603D01*
X6023182Y-7294603D02*
X6023182Y-7285079D01*
X6023182Y-7285079D02*
X6032706Y-7266031D01*
X6032706Y-7266031D02*
X6042229Y-7256508D01*
X6042229Y-7256508D02*
X6061277Y-7246984D01*
X6061277Y-7246984D02*
X6099372Y-7246984D01*
X6099372Y-7246984D02*
X6118420Y-7256508D01*
X6118420Y-7256508D02*
X6127944Y-7266031D01*
X6127944Y-7266031D02*
X6137468Y-7285079D01*
X6137468Y-7285079D02*
X6137468Y-7294603D01*
X6137468Y-7294603D02*
X6127944Y-7313650D01*
X6127944Y-7313650D02*
X6118420Y-7323174D01*
X6118420Y-7323174D02*
X6099372Y-7332698D01*
X6099372Y-7332698D02*
X6061277Y-7332698D01*
X6061277Y-7332698D02*
X6042229Y-7342222D01*
X6042229Y-7342222D02*
X6032706Y-7351746D01*
X6032706Y-7351746D02*
X6023182Y-7370793D01*
X6023182Y-7370793D02*
X6023182Y-7408888D01*
X6023182Y-7408888D02*
X6032706Y-7427936D01*
X6032706Y-7427936D02*
X6042229Y-7437460D01*
X6042229Y-7437460D02*
X6061277Y-7446984D01*
X6061277Y-7446984D02*
X6099372Y-7446984D01*
X6099372Y-7446984D02*
X6118420Y-7437460D01*
X6118420Y-7437460D02*
X6127944Y-7427936D01*
X6127944Y-7427936D02*
X6137468Y-7408888D01*
X6137468Y-7408888D02*
X6137468Y-7370793D01*
X6137468Y-7370793D02*
X6127944Y-7351746D01*
X6127944Y-7351746D02*
X6118420Y-7342222D01*
X6118420Y-7342222D02*
X6099372Y-7332698D01*
X6375563Y-7446984D02*
X6375563Y-7246984D01*
X6461277Y-7446984D02*
X6461277Y-7342222D01*
X6461277Y-7342222D02*
X6451753Y-7323174D01*
X6451753Y-7323174D02*
X6432706Y-7313650D01*
X6432706Y-7313650D02*
X6404134Y-7313650D01*
X6404134Y-7313650D02*
X6385087Y-7323174D01*
X6385087Y-7323174D02*
X6375563Y-7332698D01*
X6585087Y-7446984D02*
X6566039Y-7437460D01*
X6566039Y-7437460D02*
X6556515Y-7427936D01*
X6556515Y-7427936D02*
X6546991Y-7408888D01*
X6546991Y-7408888D02*
X6546991Y-7351746D01*
X6546991Y-7351746D02*
X6556515Y-7332698D01*
X6556515Y-7332698D02*
X6566039Y-7323174D01*
X6566039Y-7323174D02*
X6585087Y-7313650D01*
X6585087Y-7313650D02*
X6613658Y-7313650D01*
X6613658Y-7313650D02*
X6632706Y-7323174D01*
X6632706Y-7323174D02*
X6642230Y-7332698D01*
X6642230Y-7332698D02*
X6651753Y-7351746D01*
X6651753Y-7351746D02*
X6651753Y-7408888D01*
X6651753Y-7408888D02*
X6642230Y-7427936D01*
X6642230Y-7427936D02*
X6632706Y-7437460D01*
X6632706Y-7437460D02*
X6613658Y-7446984D01*
X6613658Y-7446984D02*
X6585087Y-7446984D01*
X6766039Y-7446984D02*
X6746991Y-7437460D01*
X6746991Y-7437460D02*
X6737468Y-7418412D01*
X6737468Y-7418412D02*
X6737468Y-7246984D01*
X6918420Y-7437460D02*
X6899372Y-7446984D01*
X6899372Y-7446984D02*
X6861277Y-7446984D01*
X6861277Y-7446984D02*
X6842230Y-7437460D01*
X6842230Y-7437460D02*
X6832706Y-7418412D01*
X6832706Y-7418412D02*
X6832706Y-7342222D01*
X6832706Y-7342222D02*
X6842230Y-7323174D01*
X6842230Y-7323174D02*
X6861277Y-7313650D01*
X6861277Y-7313650D02*
X6899372Y-7313650D01*
X6899372Y-7313650D02*
X6918420Y-7323174D01*
X6918420Y-7323174D02*
X6927944Y-7342222D01*
X6927944Y-7342222D02*
X6927944Y-7361269D01*
X6927944Y-7361269D02*
X6832706Y-7380317D01*
X7004134Y-7437460D02*
X7023182Y-7446984D01*
X7023182Y-7446984D02*
X7061277Y-7446984D01*
X7061277Y-7446984D02*
X7080325Y-7437460D01*
X7080325Y-7437460D02*
X7089849Y-7418412D01*
X7089849Y-7418412D02*
X7089849Y-7408888D01*
X7089849Y-7408888D02*
X7080325Y-7389841D01*
X7080325Y-7389841D02*
X7061277Y-7380317D01*
X7061277Y-7380317D02*
X7032706Y-7380317D01*
X7032706Y-7380317D02*
X7013658Y-7370793D01*
X7013658Y-7370793D02*
X7004134Y-7351746D01*
X7004134Y-7351746D02*
X7004134Y-7342222D01*
X7004134Y-7342222D02*
X7013658Y-7323174D01*
X7013658Y-7323174D02*
X7032706Y-7313650D01*
X7032706Y-7313650D02*
X7061277Y-7313650D01*
X7061277Y-7313650D02*
X7080325Y-7323174D01*
X7156515Y-7523174D02*
X7166039Y-7513650D01*
X7166039Y-7513650D02*
X7185087Y-7485079D01*
X7185087Y-7485079D02*
X7194611Y-7466031D01*
X7194611Y-7466031D02*
X7204134Y-7437460D01*
X7204134Y-7437460D02*
X7213658Y-7389841D01*
X7213658Y-7389841D02*
X7213658Y-7351746D01*
X7213658Y-7351746D02*
X7204134Y-7304127D01*
X7204134Y-7304127D02*
X7194611Y-7275555D01*
X7194611Y-7275555D02*
X7185087Y-7256508D01*
X7185087Y-7256508D02*
X7166039Y-7227936D01*
X7166039Y-7227936D02*
X7156515Y-7218412D01*
M02*
