%TF.GenerationSoftware,KiCad,Pcbnew,8.0.7*%
%TF.CreationDate,2025-01-04T02:12:22-08:00*%
%TF.ProjectId,PCB,5043422e-6b69-4636-9164-5f7063625858,rev?*%
%TF.SameCoordinates,Original*%
%TF.FileFunction,Copper,L1,Top*%
%TF.FilePolarity,Positive*%
%FSLAX46Y46*%
G04 Gerber Fmt 4.6, Leading zero omitted, Abs format (unit mm)*
G04 Created by KiCad (PCBNEW 8.0.7) date 2025-01-04 02:12:22*
%MOMM*%
%LPD*%
G01*
G04 APERTURE LIST*
G04 Aperture macros list*
%AMRoundRect*
0 Rectangle with rounded corners*
0 $1 Rounding radius*
0 $2 $3 $4 $5 $6 $7 $8 $9 X,Y pos of 4 corners*
0 Add a 4 corners polygon primitive as box body*
4,1,4,$2,$3,$4,$5,$6,$7,$8,$9,$2,$3,0*
0 Add four circle primitives for the rounded corners*
1,1,$1+$1,$2,$3*
1,1,$1+$1,$4,$5*
1,1,$1+$1,$6,$7*
1,1,$1+$1,$8,$9*
0 Add four rect primitives between the rounded corners*
20,1,$1+$1,$2,$3,$4,$5,0*
20,1,$1+$1,$4,$5,$6,$7,0*
20,1,$1+$1,$6,$7,$8,$9,0*
20,1,$1+$1,$8,$9,$2,$3,0*%
G04 Aperture macros list end*
%TA.AperFunction,SMDPad,CuDef*%
%ADD10R,0.800000X0.500000*%
%TD*%
%TA.AperFunction,SMDPad,CuDef*%
%ADD11R,0.500000X1.000000*%
%TD*%
%TA.AperFunction,SMDPad,CuDef*%
%ADD12R,0.800000X0.300000*%
%TD*%
%TA.AperFunction,SMDPad,CuDef*%
%ADD13R,0.500000X1.480000*%
%TD*%
%TA.AperFunction,SMDPad,CuDef*%
%ADD14RoundRect,0.150000X-0.512500X-0.150000X0.512500X-0.150000X0.512500X0.150000X-0.512500X0.150000X0*%
%TD*%
%TA.AperFunction,SMDPad,CuDef*%
%ADD15RoundRect,0.100000X-0.130000X-0.100000X0.130000X-0.100000X0.130000X0.100000X-0.130000X0.100000X0*%
%TD*%
%TA.AperFunction,SMDPad,CuDef*%
%ADD16RoundRect,0.250000X-0.550000X0.250000X-0.550000X-0.250000X0.550000X-0.250000X0.550000X0.250000X0*%
%TD*%
%TA.AperFunction,ViaPad*%
%ADD17C,0.600000*%
%TD*%
%TA.AperFunction,Conductor*%
%ADD18C,0.200000*%
%TD*%
G04 APERTURE END LIST*
D10*
%TO.P,D43,1,K*%
%TO.N,GND*%
X26565000Y-43470000D03*
D11*
X27415000Y-43540000D03*
D12*
%TO.P,D43,2,A*%
%TO.N,Net-(D43-A)*%
X26565000Y-44370000D03*
D10*
%TO.P,D43,3*%
%TO.N,N/C*%
X26565000Y-45270000D03*
%TO.P,D43,4*%
X28265000Y-45270000D03*
D12*
%TO.P,D43,5*%
X28265000Y-44370000D03*
D13*
%TO.P,D43,6*%
X27415000Y-44960000D03*
D10*
X28265000Y-43470000D03*
%TD*%
D14*
%TO.P,U1,1*%
%TO.N,Net-(U1-Pad1)*%
X51127500Y-18455000D03*
%TO.P,U1,2*%
%TO.N,Net-(U1-Pad2)*%
X51127500Y-19405000D03*
%TO.P,U1,3,GND*%
%TO.N,GND*%
X51127500Y-20355000D03*
%TO.P,U1,4*%
%TO.N,Net-(R1-Pad1)*%
X53402500Y-20355000D03*
%TO.P,U1,5,VCC*%
%TO.N,VCC*%
X53402500Y-18455000D03*
%TD*%
D15*
%TO.P,R9,1*%
%TO.N,Net-(R14-Pad1)*%
X53045000Y-36380000D03*
%TO.P,R9,2*%
%TO.N,Net-(D8-A)*%
X53685000Y-36380000D03*
%TD*%
%TO.P,R35,1*%
%TO.N,Net-(R1-Pad1)*%
X60395000Y-39880000D03*
%TO.P,R35,2*%
%TO.N,Net-(D34-A)*%
X61035000Y-39880000D03*
%TD*%
D14*
%TO.P,U7,1*%
%TO.N,Net-(SW3-B)*%
X56277500Y-27705000D03*
%TO.P,U7,2*%
%TO.N,Net-(SW4-B)*%
X56277500Y-28655000D03*
%TO.P,U7,3,GND*%
%TO.N,GND*%
X56277500Y-29605000D03*
%TO.P,U7,4*%
%TO.N,Net-(U6-Pad1)*%
X58552500Y-29605000D03*
%TO.P,U7,5,VCC*%
%TO.N,VCC*%
X58552500Y-27705000D03*
%TD*%
D10*
%TO.P,D10,1,K*%
%TO.N,GND*%
X34665000Y-22420000D03*
D11*
X35515000Y-22490000D03*
D12*
%TO.P,D10,2,A*%
%TO.N,Net-(D10-A)*%
X34665000Y-23320000D03*
D10*
%TO.P,D10,3*%
%TO.N,N/C*%
X34665000Y-24220000D03*
%TO.P,D10,4*%
X36365000Y-24220000D03*
D12*
%TO.P,D10,5*%
X36365000Y-23320000D03*
D13*
%TO.P,D10,6*%
X35515000Y-23910000D03*
D10*
X36365000Y-22420000D03*
%TD*%
D15*
%TO.P,R46,1*%
%TO.N,Net-(R12-Pad1)*%
X62845000Y-45130000D03*
%TO.P,R46,2*%
%TO.N,Net-(D45-A)*%
X63485000Y-45130000D03*
%TD*%
D10*
%TO.P,D21,1,K*%
%TO.N,GND*%
X22515000Y-30840000D03*
D11*
X23365000Y-30910000D03*
D12*
%TO.P,D21,2,A*%
%TO.N,Net-(D21-A)*%
X22515000Y-31740000D03*
D10*
%TO.P,D21,3*%
%TO.N,N/C*%
X22515000Y-32640000D03*
%TO.P,D21,4*%
X24215000Y-32640000D03*
D12*
%TO.P,D21,5*%
X24215000Y-31740000D03*
D13*
%TO.P,D21,6*%
X23365000Y-32330000D03*
D10*
X24215000Y-30840000D03*
%TD*%
%TO.P,D33,1,K*%
%TO.N,GND*%
X42765000Y-35050000D03*
D11*
X43615000Y-35120000D03*
D12*
%TO.P,D33,2,A*%
%TO.N,Net-(D33-A)*%
X42765000Y-35950000D03*
D10*
%TO.P,D33,3*%
%TO.N,N/C*%
X42765000Y-36850000D03*
%TO.P,D33,4*%
X44465000Y-36850000D03*
D12*
%TO.P,D33,5*%
X44465000Y-35950000D03*
D13*
%TO.P,D33,6*%
X43615000Y-36540000D03*
D10*
X44465000Y-35050000D03*
%TD*%
%TO.P,D4,1,K*%
%TO.N,GND*%
X38715000Y-18210000D03*
D11*
X39565000Y-18280000D03*
D12*
%TO.P,D4,2,A*%
%TO.N,Net-(D4-A)*%
X38715000Y-19110000D03*
D10*
%TO.P,D4,3*%
%TO.N,N/C*%
X38715000Y-20010000D03*
%TO.P,D4,4*%
X40415000Y-20010000D03*
D12*
%TO.P,D4,5*%
X40415000Y-19110000D03*
D13*
%TO.P,D4,6*%
X39565000Y-19700000D03*
D10*
X40415000Y-18210000D03*
%TD*%
%TO.P,D40,1,K*%
%TO.N,GND*%
X42765000Y-39260000D03*
D11*
X43615000Y-39330000D03*
D12*
%TO.P,D40,2,A*%
%TO.N,Net-(D40-A)*%
X42765000Y-40160000D03*
D10*
%TO.P,D40,3*%
%TO.N,N/C*%
X42765000Y-41060000D03*
%TO.P,D40,4*%
X44465000Y-41060000D03*
D12*
%TO.P,D40,5*%
X44465000Y-40160000D03*
D13*
%TO.P,D40,6*%
X43615000Y-40750000D03*
D10*
X44465000Y-39260000D03*
%TD*%
%TO.P,D44,1,K*%
%TO.N,GND*%
X30615000Y-43470000D03*
D11*
X31465000Y-43540000D03*
D12*
%TO.P,D44,2,A*%
%TO.N,Net-(D44-A)*%
X30615000Y-44370000D03*
D10*
%TO.P,D44,3*%
%TO.N,N/C*%
X30615000Y-45270000D03*
%TO.P,D44,4*%
X32315000Y-45270000D03*
D12*
%TO.P,D44,5*%
X32315000Y-44370000D03*
D13*
%TO.P,D44,6*%
X31465000Y-44960000D03*
D10*
X32315000Y-43470000D03*
%TD*%
D16*
%TO.P,SW0,1,C*%
%TO.N,VCC*%
X22915000Y-52410000D03*
%TO.P,SW0,2,B*%
%TO.N,Net-(SW0-B)*%
X25215000Y-54160000D03*
%TO.P,SW0,3,A*%
%TO.N,GND*%
X22915000Y-55910000D03*
%TD*%
D15*
%TO.P,R15,1*%
%TO.N,Net-(R1-Pad1)*%
X53045000Y-46880000D03*
%TO.P,R15,2*%
%TO.N,Net-(D14-A)*%
X53685000Y-46880000D03*
%TD*%
D10*
%TO.P,D23,1,K*%
%TO.N,GND*%
X30615000Y-30840000D03*
D11*
X31465000Y-30910000D03*
D12*
%TO.P,D23,2,A*%
%TO.N,Net-(D23-A)*%
X30615000Y-31740000D03*
D10*
%TO.P,D23,3*%
%TO.N,N/C*%
X30615000Y-32640000D03*
%TO.P,D23,4*%
X32315000Y-32640000D03*
D12*
%TO.P,D23,5*%
X32315000Y-31740000D03*
D13*
%TO.P,D23,6*%
X31465000Y-32330000D03*
D10*
X32315000Y-30840000D03*
%TD*%
D15*
%TO.P,R6,1*%
%TO.N,Net-(R14-Pad1)*%
X50595000Y-45130000D03*
%TO.P,R6,2*%
%TO.N,Net-(D5-A)*%
X51235000Y-45130000D03*
%TD*%
D14*
%TO.P,U12,1,NC*%
%TO.N,unconnected-(U12-NC-Pad1)*%
X61427500Y-32330000D03*
%TO.P,U12,2*%
%TO.N,Net-(U12-Pad2)*%
X61427500Y-33280000D03*
%TO.P,U12,3,GND*%
%TO.N,GND*%
X61427500Y-34230000D03*
%TO.P,U12,4*%
%TO.N,Net-(R14-Pad1)*%
X63702500Y-34230000D03*
%TO.P,U12,5,VCC*%
%TO.N,VCC*%
X63702500Y-32330000D03*
%TD*%
D15*
%TO.P,R17,1*%
%TO.N,Net-(R14-Pad1)*%
X55495000Y-36380000D03*
%TO.P,R17,2*%
%TO.N,Net-(D16-A)*%
X56135000Y-36380000D03*
%TD*%
D10*
%TO.P,D50,1,K*%
%TO.N,GND*%
X26565000Y-47680000D03*
D11*
X27415000Y-47750000D03*
D12*
%TO.P,D50,2,A*%
%TO.N,Net-(D50-A)*%
X26565000Y-48580000D03*
D10*
%TO.P,D50,3*%
%TO.N,N/C*%
X26565000Y-49480000D03*
%TO.P,D50,4*%
X28265000Y-49480000D03*
D12*
%TO.P,D50,5*%
X28265000Y-48580000D03*
D13*
%TO.P,D50,6*%
X27415000Y-49170000D03*
D10*
X28265000Y-47680000D03*
%TD*%
D14*
%TO.P,U5,1,NC*%
%TO.N,unconnected-(U5-NC-Pad1)*%
X56277500Y-18455000D03*
%TO.P,U5,2*%
%TO.N,Net-(SW5-B)*%
X56277500Y-19405000D03*
%TO.P,U5,3,GND*%
%TO.N,GND*%
X56277500Y-20355000D03*
%TO.P,U5,4*%
%TO.N,Net-(U15-Pad1)*%
X58552500Y-20355000D03*
%TO.P,U5,5,VCC*%
%TO.N,VCC*%
X58552500Y-18455000D03*
%TD*%
D10*
%TO.P,D53,1,K*%
%TO.N,GND*%
X38715000Y-47680000D03*
D11*
X39565000Y-47750000D03*
D12*
%TO.P,D53,2,A*%
%TO.N,Net-(D53-A)*%
X38715000Y-48580000D03*
D10*
%TO.P,D53,3*%
%TO.N,N/C*%
X38715000Y-49480000D03*
%TO.P,D53,4*%
X40415000Y-49480000D03*
D12*
%TO.P,D53,5*%
X40415000Y-48580000D03*
D13*
%TO.P,D53,6*%
X39565000Y-49170000D03*
D10*
X40415000Y-47680000D03*
%TD*%
D16*
%TO.P,SW7,1,C*%
%TO.N,VCC*%
X33815000Y-59360000D03*
%TO.P,SW7,2,B*%
%TO.N,Net-(SW7-B)*%
X36115000Y-61110000D03*
%TO.P,SW7,3,A*%
%TO.N,GND*%
X33815000Y-62860000D03*
%TD*%
D15*
%TO.P,R55,1*%
%TO.N,Net-(R10-Pad1)*%
X65295000Y-46880000D03*
%TO.P,R55,2*%
%TO.N,Net-(D54-A)*%
X65935000Y-46880000D03*
%TD*%
D10*
%TO.P,D7,1,K*%
%TO.N,GND*%
X22515000Y-22420000D03*
D11*
X23365000Y-22490000D03*
D12*
%TO.P,D7,2,A*%
%TO.N,Net-(D7-A)*%
X22515000Y-23320000D03*
D10*
%TO.P,D7,3*%
%TO.N,N/C*%
X22515000Y-24220000D03*
%TO.P,D7,4*%
X24215000Y-24220000D03*
D12*
%TO.P,D7,5*%
X24215000Y-23320000D03*
D13*
%TO.P,D7,6*%
X23365000Y-23910000D03*
D10*
X24215000Y-22420000D03*
%TD*%
D15*
%TO.P,R2,1*%
%TO.N,Net-(R14-Pad1)*%
X50595000Y-38130000D03*
%TO.P,R2,2*%
%TO.N,Net-(D1-A)*%
X51235000Y-38130000D03*
%TD*%
D10*
%TO.P,D42,1,K*%
%TO.N,GND*%
X22515000Y-43470000D03*
D11*
X23365000Y-43540000D03*
D12*
%TO.P,D42,2,A*%
%TO.N,Net-(D42-A)*%
X22515000Y-44370000D03*
D10*
%TO.P,D42,3*%
%TO.N,N/C*%
X22515000Y-45270000D03*
%TO.P,D42,4*%
X24215000Y-45270000D03*
D12*
%TO.P,D42,5*%
X24215000Y-44370000D03*
D13*
%TO.P,D42,6*%
X23365000Y-44960000D03*
D10*
X24215000Y-43470000D03*
%TD*%
D15*
%TO.P,R1,1*%
%TO.N,Net-(R1-Pad1)*%
X50595000Y-36380000D03*
%TO.P,R1,2*%
%TO.N,Net-(D0-A)*%
X51235000Y-36380000D03*
%TD*%
%TO.P,R45,1*%
%TO.N,Net-(R14-Pad1)*%
X62845000Y-43380000D03*
%TO.P,R45,2*%
%TO.N,Net-(D44-A)*%
X63485000Y-43380000D03*
%TD*%
D10*
%TO.P,D24,1,K*%
%TO.N,GND*%
X34665000Y-30840000D03*
D11*
X35515000Y-30910000D03*
D12*
%TO.P,D24,2,A*%
%TO.N,Net-(D24-A)*%
X34665000Y-31740000D03*
D10*
%TO.P,D24,3*%
%TO.N,N/C*%
X34665000Y-32640000D03*
%TO.P,D24,4*%
X36365000Y-32640000D03*
D12*
%TO.P,D24,5*%
X36365000Y-31740000D03*
D13*
%TO.P,D24,6*%
X35515000Y-32330000D03*
D10*
X36365000Y-30840000D03*
%TD*%
D15*
%TO.P,R24,1*%
%TO.N,Net-(R1-Pad1)*%
X55495000Y-48630000D03*
%TO.P,R24,2*%
%TO.N,Net-(D23-A)*%
X56135000Y-48630000D03*
%TD*%
D10*
%TO.P,D6,1,K*%
%TO.N,GND*%
X46815000Y-18210000D03*
D11*
X47665000Y-18280000D03*
D12*
%TO.P,D6,2,A*%
%TO.N,Net-(D6-A)*%
X46815000Y-19110000D03*
D10*
%TO.P,D6,3*%
%TO.N,N/C*%
X46815000Y-20010000D03*
%TO.P,D6,4*%
X48515000Y-20010000D03*
D12*
%TO.P,D6,5*%
X48515000Y-19110000D03*
D13*
%TO.P,D6,6*%
X47665000Y-19700000D03*
D10*
X48515000Y-18210000D03*
%TD*%
%TO.P,D11,1,K*%
%TO.N,GND*%
X38715000Y-22420000D03*
D11*
X39565000Y-22490000D03*
D12*
%TO.P,D11,2,A*%
%TO.N,Net-(D11-A)*%
X38715000Y-23320000D03*
D10*
%TO.P,D11,3*%
%TO.N,N/C*%
X38715000Y-24220000D03*
%TO.P,D11,4*%
X40415000Y-24220000D03*
D12*
%TO.P,D11,5*%
X40415000Y-23320000D03*
D13*
%TO.P,D11,6*%
X39565000Y-23910000D03*
D10*
X40415000Y-22420000D03*
%TD*%
D15*
%TO.P,R37,1*%
%TO.N,Net-(R14-Pad1)*%
X60395000Y-43380000D03*
%TO.P,R37,2*%
%TO.N,Net-(D36-A)*%
X61035000Y-43380000D03*
%TD*%
D10*
%TO.P,D17,1,K*%
%TO.N,GND*%
X34665000Y-26630000D03*
D11*
X35515000Y-26700000D03*
D12*
%TO.P,D17,2,A*%
%TO.N,Net-(D17-A)*%
X34665000Y-27530000D03*
D10*
%TO.P,D17,3*%
%TO.N,N/C*%
X34665000Y-28430000D03*
%TO.P,D17,4*%
X36365000Y-28430000D03*
D12*
%TO.P,D17,5*%
X36365000Y-27530000D03*
D13*
%TO.P,D17,6*%
X35515000Y-28120000D03*
D10*
X36365000Y-26630000D03*
%TD*%
D15*
%TO.P,R20,1*%
%TO.N,Net-(R12-Pad1)*%
X55495000Y-41630000D03*
%TO.P,R20,2*%
%TO.N,Net-(D19-A)*%
X56135000Y-41630000D03*
%TD*%
%TO.P,R16,1*%
%TO.N,Net-(R10-Pad1)*%
X53045000Y-48630000D03*
%TO.P,R16,2*%
%TO.N,Net-(D15-A)*%
X53685000Y-48630000D03*
%TD*%
D10*
%TO.P,D12,1,K*%
%TO.N,GND*%
X42765000Y-22420000D03*
D11*
X43615000Y-22490000D03*
D12*
%TO.P,D12,2,A*%
%TO.N,Net-(D12-A)*%
X42765000Y-23320000D03*
D10*
%TO.P,D12,3*%
%TO.N,N/C*%
X42765000Y-24220000D03*
%TO.P,D12,4*%
X44465000Y-24220000D03*
D12*
%TO.P,D12,5*%
X44465000Y-23320000D03*
D13*
%TO.P,D12,6*%
X43615000Y-23910000D03*
D10*
X44465000Y-22420000D03*
%TD*%
D16*
%TO.P,SW4,1,C*%
%TO.N,VCC*%
X44715000Y-52410000D03*
%TO.P,SW4,2,B*%
%TO.N,Net-(SW4-B)*%
X47015000Y-54160000D03*
%TO.P,SW4,3,A*%
%TO.N,GND*%
X44715000Y-55910000D03*
%TD*%
D15*
%TO.P,R27,1*%
%TO.N,Net-(R1-Pad1)*%
X57945000Y-39880000D03*
%TO.P,R27,2*%
%TO.N,Net-(D26-A)*%
X58585000Y-39880000D03*
%TD*%
D10*
%TO.P,D37,1,K*%
%TO.N,GND*%
X30615000Y-39260000D03*
D11*
X31465000Y-39330000D03*
D12*
%TO.P,D37,2,A*%
%TO.N,Net-(D37-A)*%
X30615000Y-40160000D03*
D10*
%TO.P,D37,3*%
%TO.N,N/C*%
X30615000Y-41060000D03*
%TO.P,D37,4*%
X32315000Y-41060000D03*
D12*
%TO.P,D37,5*%
X32315000Y-40160000D03*
D13*
%TO.P,D37,6*%
X31465000Y-40750000D03*
D10*
X32315000Y-39260000D03*
%TD*%
%TO.P,D34,1,K*%
%TO.N,GND*%
X46815000Y-35050000D03*
D11*
X47665000Y-35120000D03*
D12*
%TO.P,D34,2,A*%
%TO.N,Net-(D34-A)*%
X46815000Y-35950000D03*
D10*
%TO.P,D34,3*%
%TO.N,N/C*%
X46815000Y-36850000D03*
%TO.P,D34,4*%
X48515000Y-36850000D03*
D12*
%TO.P,D34,5*%
X48515000Y-35950000D03*
D13*
%TO.P,D34,6*%
X47665000Y-36540000D03*
D10*
X48515000Y-35050000D03*
%TD*%
D15*
%TO.P,R7,1*%
%TO.N,Net-(R1-Pad1)*%
X50595000Y-46880000D03*
%TO.P,R7,2*%
%TO.N,Net-(D6-A)*%
X51235000Y-46880000D03*
%TD*%
D10*
%TO.P,D15,1,K*%
%TO.N,GND*%
X26565000Y-26630000D03*
D11*
X27415000Y-26700000D03*
D12*
%TO.P,D15,2,A*%
%TO.N,Net-(D15-A)*%
X26565000Y-27530000D03*
D10*
%TO.P,D15,3*%
%TO.N,N/C*%
X26565000Y-28430000D03*
%TO.P,D15,4*%
X28265000Y-28430000D03*
D12*
%TO.P,D15,5*%
X28265000Y-27530000D03*
D13*
%TO.P,D15,6*%
X27415000Y-28120000D03*
D10*
X28265000Y-26630000D03*
%TD*%
%TO.P,D25,1,K*%
%TO.N,GND*%
X38715000Y-30840000D03*
D11*
X39565000Y-30910000D03*
D12*
%TO.P,D25,2,A*%
%TO.N,Net-(D25-A)*%
X38715000Y-31740000D03*
D10*
%TO.P,D25,3*%
%TO.N,N/C*%
X38715000Y-32640000D03*
%TO.P,D25,4*%
X40415000Y-32640000D03*
D12*
%TO.P,D25,5*%
X40415000Y-31740000D03*
D13*
%TO.P,D25,6*%
X39565000Y-32330000D03*
D10*
X40415000Y-30840000D03*
%TD*%
D15*
%TO.P,R22,1*%
%TO.N,Net-(R12-Pad1)*%
X55495000Y-45130000D03*
%TO.P,R22,2*%
%TO.N,Net-(D21-A)*%
X56135000Y-45130000D03*
%TD*%
D10*
%TO.P,D49,1,K*%
%TO.N,GND*%
X22515000Y-47680000D03*
D11*
X23365000Y-47750000D03*
D12*
%TO.P,D49,2,A*%
%TO.N,Net-(D49-A)*%
X22515000Y-48580000D03*
D10*
%TO.P,D49,3*%
%TO.N,N/C*%
X22515000Y-49480000D03*
%TO.P,D49,4*%
X24215000Y-49480000D03*
D12*
%TO.P,D49,5*%
X24215000Y-48580000D03*
D13*
%TO.P,D49,6*%
X23365000Y-49170000D03*
D10*
X24215000Y-47680000D03*
%TD*%
D15*
%TO.P,R28,1*%
%TO.N,Net-(R14-Pad1)*%
X57945000Y-41630000D03*
%TO.P,R28,2*%
%TO.N,Net-(D27-A)*%
X58585000Y-41630000D03*
%TD*%
%TO.P,R5,1*%
%TO.N,Net-(R10-Pad1)*%
X50595000Y-43380000D03*
%TO.P,R5,2*%
%TO.N,Net-(D4-A)*%
X51235000Y-43380000D03*
%TD*%
%TO.P,R43,1*%
%TO.N,Net-(R12-Pad1)*%
X62845000Y-39880000D03*
%TO.P,R43,2*%
%TO.N,Net-(D42-A)*%
X63485000Y-39880000D03*
%TD*%
%TO.P,R38,1*%
%TO.N,Net-(R1-Pad1)*%
X60395000Y-45130000D03*
%TO.P,R38,2*%
%TO.N,Net-(D37-A)*%
X61035000Y-45130000D03*
%TD*%
D16*
%TO.P,SW2,1,C*%
%TO.N,VCC*%
X33815000Y-52410000D03*
%TO.P,SW2,2,B*%
%TO.N,Net-(SW2-B)*%
X36115000Y-54160000D03*
%TO.P,SW2,3,A*%
%TO.N,GND*%
X33815000Y-55910000D03*
%TD*%
D15*
%TO.P,R44,1*%
%TO.N,Net-(R14-Pad1)*%
X62845000Y-41630000D03*
%TO.P,R44,2*%
%TO.N,Net-(D43-A)*%
X63485000Y-41630000D03*
%TD*%
%TO.P,R50,1*%
%TO.N,Net-(R1-Pad1)*%
X65295000Y-38130000D03*
%TO.P,R50,2*%
%TO.N,Net-(D49-A)*%
X65935000Y-38130000D03*
%TD*%
D10*
%TO.P,D46,1,K*%
%TO.N,GND*%
X38715000Y-43470000D03*
D11*
X39565000Y-43540000D03*
D12*
%TO.P,D46,2,A*%
%TO.N,Net-(D46-A)*%
X38715000Y-44370000D03*
D10*
%TO.P,D46,3*%
%TO.N,N/C*%
X38715000Y-45270000D03*
%TO.P,D46,4*%
X40415000Y-45270000D03*
D12*
%TO.P,D46,5*%
X40415000Y-44370000D03*
D13*
%TO.P,D46,6*%
X39565000Y-44960000D03*
D10*
X40415000Y-43470000D03*
%TD*%
D14*
%TO.P,U10,1,NC*%
%TO.N,unconnected-(U10-NC-Pad1)*%
X61427500Y-23080000D03*
%TO.P,U10,2*%
%TO.N,Net-(SW1-B)*%
X61427500Y-24030000D03*
%TO.P,U10,3,GND*%
%TO.N,GND*%
X61427500Y-24980000D03*
%TO.P,U10,4*%
%TO.N,Net-(U1-Pad1)*%
X63702500Y-24980000D03*
%TO.P,U10,5,VCC*%
%TO.N,VCC*%
X63702500Y-23080000D03*
%TD*%
%TO.P,U9,1*%
%TO.N,Net-(SW3-B)*%
X61427500Y-18455000D03*
%TO.P,U9,2*%
%TO.N,Net-(SW7-B)*%
X61427500Y-19405000D03*
%TO.P,U9,3,GND*%
%TO.N,GND*%
X61427500Y-20355000D03*
%TO.P,U9,4*%
%TO.N,Net-(U1-Pad2)*%
X63702500Y-20355000D03*
%TO.P,U9,5,VCC*%
%TO.N,VCC*%
X63702500Y-18455000D03*
%TD*%
D15*
%TO.P,R8,1*%
%TO.N,Net-(R1-Pad1)*%
X50595000Y-48630000D03*
%TO.P,R8,2*%
%TO.N,Net-(D7-A)*%
X51235000Y-48630000D03*
%TD*%
D14*
%TO.P,U3,1*%
%TO.N,Net-(SW3-B)*%
X51127500Y-27705000D03*
%TO.P,U3,2*%
%TO.N,Net-(U2-Pad4)*%
X51127500Y-28655000D03*
%TO.P,U3,3,GND*%
%TO.N,GND*%
X51127500Y-29605000D03*
%TO.P,U3,4*%
%TO.N,Net-(U3-Pad4)*%
X53402500Y-29605000D03*
%TO.P,U3,5,VCC*%
%TO.N,VCC*%
X53402500Y-27705000D03*
%TD*%
D10*
%TO.P,D9,1,K*%
%TO.N,GND*%
X30615000Y-22420000D03*
D11*
X31465000Y-22490000D03*
D12*
%TO.P,D9,2,A*%
%TO.N,Net-(D9-A)*%
X30615000Y-23320000D03*
D10*
%TO.P,D9,3*%
%TO.N,N/C*%
X30615000Y-24220000D03*
%TO.P,D9,4*%
X32315000Y-24220000D03*
D12*
%TO.P,D9,5*%
X32315000Y-23320000D03*
D13*
%TO.P,D9,6*%
X31465000Y-23910000D03*
D10*
X32315000Y-22420000D03*
%TD*%
%TO.P,D35,1,K*%
%TO.N,GND*%
X22515000Y-39260000D03*
D11*
X23365000Y-39330000D03*
D12*
%TO.P,D35,2,A*%
%TO.N,Net-(D35-A)*%
X22515000Y-40160000D03*
D10*
%TO.P,D35,3*%
%TO.N,N/C*%
X22515000Y-41060000D03*
%TO.P,D35,4*%
X24215000Y-41060000D03*
D12*
%TO.P,D35,5*%
X24215000Y-40160000D03*
D13*
%TO.P,D35,6*%
X23365000Y-40750000D03*
D10*
X24215000Y-39260000D03*
%TD*%
%TO.P,D26,1,K*%
%TO.N,GND*%
X42765000Y-30840000D03*
D11*
X43615000Y-30910000D03*
D12*
%TO.P,D26,2,A*%
%TO.N,Net-(D26-A)*%
X42765000Y-31740000D03*
D10*
%TO.P,D26,3*%
%TO.N,N/C*%
X42765000Y-32640000D03*
%TO.P,D26,4*%
X44465000Y-32640000D03*
D12*
%TO.P,D26,5*%
X44465000Y-31740000D03*
D13*
%TO.P,D26,6*%
X43615000Y-32330000D03*
D10*
X44465000Y-30840000D03*
%TD*%
%TO.P,D14,1,K*%
%TO.N,GND*%
X22515000Y-26630000D03*
D11*
X23365000Y-26700000D03*
D12*
%TO.P,D14,2,A*%
%TO.N,Net-(D14-A)*%
X22515000Y-27530000D03*
D10*
%TO.P,D14,3*%
%TO.N,N/C*%
X22515000Y-28430000D03*
%TO.P,D14,4*%
X24215000Y-28430000D03*
D12*
%TO.P,D14,5*%
X24215000Y-27530000D03*
D13*
%TO.P,D14,6*%
X23365000Y-28120000D03*
D10*
X24215000Y-26630000D03*
%TD*%
%TO.P,D48,1,K*%
%TO.N,GND*%
X46815000Y-43470000D03*
D11*
X47665000Y-43540000D03*
D12*
%TO.P,D48,2,A*%
%TO.N,Net-(D48-A)*%
X46815000Y-44370000D03*
D10*
%TO.P,D48,3*%
%TO.N,N/C*%
X46815000Y-45270000D03*
%TO.P,D48,4*%
X48515000Y-45270000D03*
D12*
%TO.P,D48,5*%
X48515000Y-44370000D03*
D13*
%TO.P,D48,6*%
X47665000Y-44960000D03*
D10*
X48515000Y-43470000D03*
%TD*%
%TO.P,D20,1,K*%
%TO.N,GND*%
X46815000Y-26630000D03*
D11*
X47665000Y-26700000D03*
D12*
%TO.P,D20,2,A*%
%TO.N,Net-(D20-A)*%
X46815000Y-27530000D03*
D10*
%TO.P,D20,3*%
%TO.N,N/C*%
X46815000Y-28430000D03*
%TO.P,D20,4*%
X48515000Y-28430000D03*
D12*
%TO.P,D20,5*%
X48515000Y-27530000D03*
D13*
%TO.P,D20,6*%
X47665000Y-28120000D03*
D10*
X48515000Y-26630000D03*
%TD*%
D15*
%TO.P,R32,1*%
%TO.N,Net-(R14-Pad1)*%
X57945000Y-48630000D03*
%TO.P,R32,2*%
%TO.N,Net-(D31-A)*%
X58585000Y-48630000D03*
%TD*%
D10*
%TO.P,D3,1,K*%
%TO.N,GND*%
X34665000Y-18210000D03*
D11*
X35515000Y-18280000D03*
D12*
%TO.P,D3,2,A*%
%TO.N,Net-(D3-A)*%
X34665000Y-19110000D03*
D10*
%TO.P,D3,3*%
%TO.N,N/C*%
X34665000Y-20010000D03*
%TO.P,D3,4*%
X36365000Y-20010000D03*
D12*
%TO.P,D3,5*%
X36365000Y-19110000D03*
D13*
%TO.P,D3,6*%
X35515000Y-19700000D03*
D10*
X36365000Y-18210000D03*
%TD*%
%TO.P,D54,1,K*%
%TO.N,GND*%
X42765000Y-47680000D03*
D11*
X43615000Y-47750000D03*
D12*
%TO.P,D54,2,A*%
%TO.N,Net-(D54-A)*%
X42765000Y-48580000D03*
D10*
%TO.P,D54,3*%
%TO.N,N/C*%
X42765000Y-49480000D03*
%TO.P,D54,4*%
X44465000Y-49480000D03*
D12*
%TO.P,D54,5*%
X44465000Y-48580000D03*
D13*
%TO.P,D54,6*%
X43615000Y-49170000D03*
D10*
X44465000Y-47680000D03*
%TD*%
D15*
%TO.P,R11,1*%
%TO.N,Net-(R1-Pad1)*%
X53045000Y-39880000D03*
%TO.P,R11,2*%
%TO.N,Net-(D10-A)*%
X53685000Y-39880000D03*
%TD*%
D10*
%TO.P,D1,1,K*%
%TO.N,GND*%
X26565000Y-18210000D03*
D11*
X27415000Y-18280000D03*
D12*
%TO.P,D1,2,A*%
%TO.N,Net-(D1-A)*%
X26565000Y-19110000D03*
D10*
%TO.P,D1,3*%
%TO.N,N/C*%
X26565000Y-20010000D03*
%TO.P,D1,4*%
X28265000Y-20010000D03*
D12*
%TO.P,D1,5*%
X28265000Y-19110000D03*
D13*
%TO.P,D1,6*%
X27415000Y-19700000D03*
D10*
X28265000Y-18210000D03*
%TD*%
D14*
%TO.P,U4,1,NC*%
%TO.N,unconnected-(U4-NC-Pad1)*%
X51127500Y-32330000D03*
%TO.P,U4,2*%
%TO.N,Net-(U3-Pad4)*%
X51127500Y-33280000D03*
%TO.P,U4,3,GND*%
%TO.N,GND*%
X51127500Y-34230000D03*
%TO.P,U4,4*%
%TO.N,Net-(U4-Pad4)*%
X53402500Y-34230000D03*
%TO.P,U4,5,VCC*%
%TO.N,VCC*%
X53402500Y-32330000D03*
%TD*%
D10*
%TO.P,D51,1,K*%
%TO.N,GND*%
X30615000Y-47680000D03*
D11*
X31465000Y-47750000D03*
D12*
%TO.P,D51,2,A*%
%TO.N,Net-(D51-A)*%
X30615000Y-48580000D03*
D10*
%TO.P,D51,3*%
%TO.N,N/C*%
X30615000Y-49480000D03*
%TO.P,D51,4*%
X32315000Y-49480000D03*
D12*
%TO.P,D51,5*%
X32315000Y-48580000D03*
D13*
%TO.P,D51,6*%
X31465000Y-49170000D03*
D10*
X32315000Y-47680000D03*
%TD*%
D15*
%TO.P,R25,1*%
%TO.N,Net-(R10-Pad1)*%
X57945000Y-36380000D03*
%TO.P,R25,2*%
%TO.N,Net-(D24-A)*%
X58585000Y-36380000D03*
%TD*%
D16*
%TO.P,SW1,1,C*%
%TO.N,VCC*%
X28365000Y-52410000D03*
%TO.P,SW1,2,B*%
%TO.N,Net-(SW1-B)*%
X30665000Y-54160000D03*
%TO.P,SW1,3,A*%
%TO.N,GND*%
X28365000Y-55910000D03*
%TD*%
D14*
%TO.P,U14,1*%
%TO.N,Net-(U13-Pad4)*%
X66577500Y-23080000D03*
%TO.P,U14,2*%
%TO.N,Net-(SW1-B)*%
X66577500Y-24030000D03*
%TO.P,U14,3,GND*%
%TO.N,GND*%
X66577500Y-24980000D03*
%TO.P,U14,4*%
%TO.N,Net-(U12-Pad2)*%
X68852500Y-24980000D03*
%TO.P,U14,5,VCC*%
%TO.N,VCC*%
X68852500Y-23080000D03*
%TD*%
D15*
%TO.P,R54,1*%
%TO.N,Net-(R12-Pad1)*%
X65295000Y-45130000D03*
%TO.P,R54,2*%
%TO.N,Net-(D53-A)*%
X65935000Y-45130000D03*
%TD*%
D10*
%TO.P,D19,1,K*%
%TO.N,GND*%
X42765000Y-26630000D03*
D11*
X43615000Y-26700000D03*
D12*
%TO.P,D19,2,A*%
%TO.N,Net-(D19-A)*%
X42765000Y-27530000D03*
D10*
%TO.P,D19,3*%
%TO.N,N/C*%
X42765000Y-28430000D03*
%TO.P,D19,4*%
X44465000Y-28430000D03*
D12*
%TO.P,D19,5*%
X44465000Y-27530000D03*
D13*
%TO.P,D19,6*%
X43615000Y-28120000D03*
D10*
X44465000Y-26630000D03*
%TD*%
%TO.P,D16,1,K*%
%TO.N,GND*%
X30615000Y-26630000D03*
D11*
X31465000Y-26700000D03*
D12*
%TO.P,D16,2,A*%
%TO.N,Net-(D16-A)*%
X30615000Y-27530000D03*
D10*
%TO.P,D16,3*%
%TO.N,N/C*%
X30615000Y-28430000D03*
%TO.P,D16,4*%
X32315000Y-28430000D03*
D12*
%TO.P,D16,5*%
X32315000Y-27530000D03*
D13*
%TO.P,D16,6*%
X31465000Y-28120000D03*
D10*
X32315000Y-26630000D03*
%TD*%
D15*
%TO.P,R51,1*%
%TO.N,Net-(R10-Pad1)*%
X65295000Y-39880000D03*
%TO.P,R51,2*%
%TO.N,Net-(D50-A)*%
X65935000Y-39880000D03*
%TD*%
%TO.P,R3,1*%
%TO.N,Net-(R10-Pad1)*%
X50595000Y-39880000D03*
%TO.P,R3,2*%
%TO.N,Net-(D2-A)*%
X51235000Y-39880000D03*
%TD*%
%TO.P,R47,1*%
%TO.N,Net-(R1-Pad1)*%
X62845000Y-46880000D03*
%TO.P,R47,2*%
%TO.N,Net-(D46-A)*%
X63485000Y-46880000D03*
%TD*%
%TO.P,R34,1*%
%TO.N,Net-(R14-Pad1)*%
X60395000Y-38130000D03*
%TO.P,R34,2*%
%TO.N,Net-(D33-A)*%
X61035000Y-38130000D03*
%TD*%
D10*
%TO.P,D2,1,K*%
%TO.N,GND*%
X30615000Y-18210000D03*
D11*
X31465000Y-18280000D03*
D12*
%TO.P,D2,2,A*%
%TO.N,Net-(D2-A)*%
X30615000Y-19110000D03*
D10*
%TO.P,D2,3*%
%TO.N,N/C*%
X30615000Y-20010000D03*
%TO.P,D2,4*%
X32315000Y-20010000D03*
D12*
%TO.P,D2,5*%
X32315000Y-19110000D03*
D13*
%TO.P,D2,6*%
X31465000Y-19700000D03*
D10*
X32315000Y-18210000D03*
%TD*%
D15*
%TO.P,R39,1*%
%TO.N,Net-(R1-Pad1)*%
X60395000Y-46880000D03*
%TO.P,R39,2*%
%TO.N,Net-(D38-A)*%
X61035000Y-46880000D03*
%TD*%
D14*
%TO.P,U11,1,NC*%
%TO.N,unconnected-(U11-NC-Pad1)*%
X61427500Y-27705000D03*
%TO.P,U11,2*%
%TO.N,Net-(SW0-B)*%
X61427500Y-28655000D03*
%TO.P,U11,3,GND*%
%TO.N,GND*%
X61427500Y-29605000D03*
%TO.P,U11,4*%
%TO.N,Net-(U11-Pad4)*%
X63702500Y-29605000D03*
%TO.P,U11,5,VCC*%
%TO.N,VCC*%
X63702500Y-27705000D03*
%TD*%
D10*
%TO.P,D0,1,K*%
%TO.N,GND*%
X22515000Y-18210000D03*
D11*
X23365000Y-18280000D03*
D12*
%TO.P,D0,2,A*%
%TO.N,Net-(D0-A)*%
X22515000Y-19110000D03*
D10*
%TO.P,D0,3*%
%TO.N,N/C*%
X22515000Y-20010000D03*
%TO.P,D0,4*%
X24215000Y-20010000D03*
D12*
%TO.P,D0,5*%
X24215000Y-19110000D03*
D13*
%TO.P,D0,6*%
X23365000Y-19700000D03*
D10*
X24215000Y-18210000D03*
%TD*%
D15*
%TO.P,R14,1*%
%TO.N,Net-(R14-Pad1)*%
X53045000Y-45130000D03*
%TO.P,R14,2*%
%TO.N,Net-(D13-A)*%
X53685000Y-45130000D03*
%TD*%
%TO.P,R36,1*%
%TO.N,Net-(R12-Pad1)*%
X60395000Y-41630000D03*
%TO.P,R36,2*%
%TO.N,Net-(D35-A)*%
X61035000Y-41630000D03*
%TD*%
D10*
%TO.P,D28,1,K*%
%TO.N,GND*%
X22515000Y-35050000D03*
D11*
X23365000Y-35120000D03*
D12*
%TO.P,D28,2,A*%
%TO.N,Net-(D28-A)*%
X22515000Y-35950000D03*
D10*
%TO.P,D28,3*%
%TO.N,N/C*%
X22515000Y-36850000D03*
%TO.P,D28,4*%
X24215000Y-36850000D03*
D12*
%TO.P,D28,5*%
X24215000Y-35950000D03*
D13*
%TO.P,D28,6*%
X23365000Y-36540000D03*
D10*
X24215000Y-35050000D03*
%TD*%
D14*
%TO.P,U15,1*%
%TO.N,Net-(U15-Pad1)*%
X66577500Y-27705000D03*
%TO.P,U15,2*%
%TO.N,Net-(SW2-B)*%
X66577500Y-28655000D03*
%TO.P,U15,3,GND*%
%TO.N,GND*%
X66577500Y-29605000D03*
%TO.P,U15,4*%
%TO.N,Net-(U15-Pad4)*%
X68852500Y-29605000D03*
%TO.P,U15,5,VCC*%
%TO.N,VCC*%
X68852500Y-27705000D03*
%TD*%
D10*
%TO.P,D22,1,K*%
%TO.N,GND*%
X26565000Y-30840000D03*
D11*
X27415000Y-30910000D03*
D12*
%TO.P,D22,2,A*%
%TO.N,Net-(D22-A)*%
X26565000Y-31740000D03*
D10*
%TO.P,D22,3*%
%TO.N,N/C*%
X26565000Y-32640000D03*
%TO.P,D22,4*%
X28265000Y-32640000D03*
D12*
%TO.P,D22,5*%
X28265000Y-31740000D03*
D13*
%TO.P,D22,6*%
X27415000Y-32330000D03*
D10*
X28265000Y-30840000D03*
%TD*%
D15*
%TO.P,R49,1*%
%TO.N,Net-(R12-Pad1)*%
X65295000Y-36380000D03*
%TO.P,R49,2*%
%TO.N,Net-(D48-A)*%
X65935000Y-36380000D03*
%TD*%
D10*
%TO.P,D13,1,K*%
%TO.N,GND*%
X46815000Y-22420000D03*
D11*
X47665000Y-22490000D03*
D12*
%TO.P,D13,2,A*%
%TO.N,Net-(D13-A)*%
X46815000Y-23320000D03*
D10*
%TO.P,D13,3*%
%TO.N,N/C*%
X46815000Y-24220000D03*
%TO.P,D13,4*%
X48515000Y-24220000D03*
D12*
%TO.P,D13,5*%
X48515000Y-23320000D03*
D13*
%TO.P,D13,6*%
X47665000Y-23910000D03*
D10*
X48515000Y-22420000D03*
%TD*%
%TO.P,D5,1,K*%
%TO.N,GND*%
X42765000Y-18210000D03*
D11*
X43615000Y-18280000D03*
D12*
%TO.P,D5,2,A*%
%TO.N,Net-(D5-A)*%
X42765000Y-19110000D03*
D10*
%TO.P,D5,3*%
%TO.N,N/C*%
X42765000Y-20010000D03*
%TO.P,D5,4*%
X44465000Y-20010000D03*
D12*
%TO.P,D5,5*%
X44465000Y-19110000D03*
D13*
%TO.P,D5,6*%
X43615000Y-19700000D03*
D10*
X44465000Y-18210000D03*
%TD*%
D15*
%TO.P,R10,1*%
%TO.N,Net-(R10-Pad1)*%
X53045000Y-38130000D03*
%TO.P,R10,2*%
%TO.N,Net-(D9-A)*%
X53685000Y-38130000D03*
%TD*%
%TO.P,R30,1*%
%TO.N,Net-(R10-Pad1)*%
X57945000Y-45130000D03*
%TO.P,R30,2*%
%TO.N,Net-(D29-A)*%
X58585000Y-45130000D03*
%TD*%
D10*
%TO.P,D38,1,K*%
%TO.N,GND*%
X34665000Y-39260000D03*
D11*
X35515000Y-39330000D03*
D12*
%TO.P,D38,2,A*%
%TO.N,Net-(D38-A)*%
X34665000Y-40160000D03*
D10*
%TO.P,D38,3*%
%TO.N,N/C*%
X34665000Y-41060000D03*
%TO.P,D38,4*%
X36365000Y-41060000D03*
D12*
%TO.P,D38,5*%
X36365000Y-40160000D03*
D13*
%TO.P,D38,6*%
X35515000Y-40750000D03*
D10*
X36365000Y-39260000D03*
%TD*%
D15*
%TO.P,R13,1*%
%TO.N,Net-(R10-Pad1)*%
X53045000Y-43380000D03*
%TO.P,R13,2*%
%TO.N,Net-(D12-A)*%
X53685000Y-43380000D03*
%TD*%
D16*
%TO.P,SW3,1,C*%
%TO.N,VCC*%
X39265000Y-52410000D03*
%TO.P,SW3,2,B*%
%TO.N,Net-(SW3-B)*%
X41565000Y-54160000D03*
%TO.P,SW3,3,A*%
%TO.N,GND*%
X39265000Y-55910000D03*
%TD*%
D15*
%TO.P,R31,1*%
%TO.N,Net-(R10-Pad1)*%
X57945000Y-46880000D03*
%TO.P,R31,2*%
%TO.N,Net-(D30-A)*%
X58585000Y-46880000D03*
%TD*%
D10*
%TO.P,D31,1,K*%
%TO.N,GND*%
X34665000Y-35050000D03*
D11*
X35515000Y-35120000D03*
D12*
%TO.P,D31,2,A*%
%TO.N,Net-(D31-A)*%
X34665000Y-35950000D03*
D10*
%TO.P,D31,3*%
%TO.N,N/C*%
X34665000Y-36850000D03*
%TO.P,D31,4*%
X36365000Y-36850000D03*
D12*
%TO.P,D31,5*%
X36365000Y-35950000D03*
D13*
%TO.P,D31,6*%
X35515000Y-36540000D03*
D10*
X36365000Y-35050000D03*
%TD*%
%TO.P,D30,1,K*%
%TO.N,GND*%
X30615000Y-35050000D03*
D11*
X31465000Y-35120000D03*
D12*
%TO.P,D30,2,A*%
%TO.N,Net-(D30-A)*%
X30615000Y-35950000D03*
D10*
%TO.P,D30,3*%
%TO.N,N/C*%
X30615000Y-36850000D03*
%TO.P,D30,4*%
X32315000Y-36850000D03*
D12*
%TO.P,D30,5*%
X32315000Y-35950000D03*
D13*
%TO.P,D30,6*%
X31465000Y-36540000D03*
D10*
X32315000Y-35050000D03*
%TD*%
%TO.P,D8,1,K*%
%TO.N,GND*%
X26565000Y-22420000D03*
D11*
X27415000Y-22490000D03*
D12*
%TO.P,D8,2,A*%
%TO.N,Net-(D8-A)*%
X26565000Y-23320000D03*
D10*
%TO.P,D8,3*%
%TO.N,N/C*%
X26565000Y-24220000D03*
%TO.P,D8,4*%
X28265000Y-24220000D03*
D12*
%TO.P,D8,5*%
X28265000Y-23320000D03*
D13*
%TO.P,D8,6*%
X27415000Y-23910000D03*
D10*
X28265000Y-22420000D03*
%TD*%
%TO.P,D36,1,K*%
%TO.N,GND*%
X26565000Y-39260000D03*
D11*
X27415000Y-39330000D03*
D12*
%TO.P,D36,2,A*%
%TO.N,Net-(D36-A)*%
X26565000Y-40160000D03*
D10*
%TO.P,D36,3*%
%TO.N,N/C*%
X26565000Y-41060000D03*
%TO.P,D36,4*%
X28265000Y-41060000D03*
D12*
%TO.P,D36,5*%
X28265000Y-40160000D03*
D13*
%TO.P,D36,6*%
X27415000Y-40750000D03*
D10*
X28265000Y-39260000D03*
%TD*%
D15*
%TO.P,R52,1*%
%TO.N,Net-(R12-Pad1)*%
X65295000Y-41630000D03*
%TO.P,R52,2*%
%TO.N,Net-(D51-A)*%
X65935000Y-41630000D03*
%TD*%
D10*
%TO.P,D18,1,K*%
%TO.N,GND*%
X38715000Y-26630000D03*
D11*
X39565000Y-26700000D03*
D12*
%TO.P,D18,2,A*%
%TO.N,Net-(D18-A)*%
X38715000Y-27530000D03*
D10*
%TO.P,D18,3*%
%TO.N,N/C*%
X38715000Y-28430000D03*
%TO.P,D18,4*%
X40415000Y-28430000D03*
D12*
%TO.P,D18,5*%
X40415000Y-27530000D03*
D13*
%TO.P,D18,6*%
X39565000Y-28120000D03*
D10*
X40415000Y-26630000D03*
%TD*%
D14*
%TO.P,U8,1*%
%TO.N,Net-(U4-Pad4)*%
X56277500Y-32330000D03*
%TO.P,U8,2*%
%TO.N,Net-(SW6-B)*%
X56277500Y-33280000D03*
%TO.P,U8,3,GND*%
%TO.N,GND*%
X56277500Y-34230000D03*
%TO.P,U8,4*%
%TO.N,Net-(R12-Pad1)*%
X58552500Y-34230000D03*
%TO.P,U8,5,VCC*%
%TO.N,VCC*%
X58552500Y-32330000D03*
%TD*%
D15*
%TO.P,R41,1*%
%TO.N,Net-(R10-Pad1)*%
X62845000Y-36380000D03*
%TO.P,R41,2*%
%TO.N,Net-(D40-A)*%
X63485000Y-36380000D03*
%TD*%
%TO.P,R48,1*%
%TO.N,Net-(R1-Pad1)*%
X62845000Y-48630000D03*
%TO.P,R48,2*%
%TO.N,Net-(D47-A)*%
X63485000Y-48630000D03*
%TD*%
D14*
%TO.P,U16,1,NC*%
%TO.N,unconnected-(U16-NC-Pad1)*%
X66577500Y-32330000D03*
%TO.P,U16,2*%
%TO.N,Net-(U15-Pad4)*%
X66577500Y-33280000D03*
%TO.P,U16,3,GND*%
%TO.N,GND*%
X66577500Y-34230000D03*
%TO.P,U16,4*%
%TO.N,Net-(R10-Pad1)*%
X68852500Y-34230000D03*
%TO.P,U16,5,VCC*%
%TO.N,VCC*%
X68852500Y-32330000D03*
%TD*%
%TO.P,U2,1*%
%TO.N,Net-(SW4-B)*%
X51127500Y-23080000D03*
%TO.P,U2,2*%
%TO.N,Net-(SW5-B)*%
X51127500Y-24030000D03*
%TO.P,U2,3,GND*%
%TO.N,GND*%
X51127500Y-24980000D03*
%TO.P,U2,4*%
%TO.N,Net-(U2-Pad4)*%
X53402500Y-24980000D03*
%TO.P,U2,5,VCC*%
%TO.N,VCC*%
X53402500Y-23080000D03*
%TD*%
D10*
%TO.P,D45,1,K*%
%TO.N,GND*%
X34665000Y-43470000D03*
D11*
X35515000Y-43540000D03*
D12*
%TO.P,D45,2,A*%
%TO.N,Net-(D45-A)*%
X34665000Y-44370000D03*
D10*
%TO.P,D45,3*%
%TO.N,N/C*%
X34665000Y-45270000D03*
%TO.P,D45,4*%
X36365000Y-45270000D03*
D12*
%TO.P,D45,5*%
X36365000Y-44370000D03*
D13*
%TO.P,D45,6*%
X35515000Y-44960000D03*
D10*
X36365000Y-43470000D03*
%TD*%
%TO.P,D39,1,K*%
%TO.N,GND*%
X38715000Y-39260000D03*
D11*
X39565000Y-39330000D03*
D12*
%TO.P,D39,2,A*%
%TO.N,Net-(D39-A)*%
X38715000Y-40160000D03*
D10*
%TO.P,D39,3*%
%TO.N,N/C*%
X38715000Y-41060000D03*
%TO.P,D39,4*%
X40415000Y-41060000D03*
D12*
%TO.P,D39,5*%
X40415000Y-40160000D03*
D13*
%TO.P,D39,6*%
X39565000Y-40750000D03*
D10*
X40415000Y-39260000D03*
%TD*%
D15*
%TO.P,R26,1*%
%TO.N,Net-(R12-Pad1)*%
X57945000Y-38130000D03*
%TO.P,R26,2*%
%TO.N,Net-(D25-A)*%
X58585000Y-38130000D03*
%TD*%
D16*
%TO.P,SW6,1,C*%
%TO.N,VCC*%
X28365000Y-59360000D03*
%TO.P,SW6,2,B*%
%TO.N,Net-(SW6-B)*%
X30665000Y-61110000D03*
%TO.P,SW6,3,A*%
%TO.N,GND*%
X28365000Y-62860000D03*
%TD*%
D14*
%TO.P,U13,1,NC*%
%TO.N,unconnected-(U13-NC-Pad1)*%
X66577500Y-18455000D03*
%TO.P,U13,2*%
%TO.N,Net-(U13-Pad2)*%
X66577500Y-19405000D03*
%TO.P,U13,3,GND*%
%TO.N,GND*%
X66577500Y-20355000D03*
%TO.P,U13,4*%
%TO.N,Net-(U13-Pad4)*%
X68852500Y-20355000D03*
%TO.P,U13,5,VCC*%
%TO.N,VCC*%
X68852500Y-18455000D03*
%TD*%
D15*
%TO.P,R42,1*%
%TO.N,Net-(R1-Pad1)*%
X62845000Y-38130000D03*
%TO.P,R42,2*%
%TO.N,Net-(D41-A)*%
X63485000Y-38130000D03*
%TD*%
D10*
%TO.P,D47,1,K*%
%TO.N,GND*%
X42765000Y-43470000D03*
D11*
X43615000Y-43540000D03*
D12*
%TO.P,D47,2,A*%
%TO.N,Net-(D47-A)*%
X42765000Y-44370000D03*
D10*
%TO.P,D47,3*%
%TO.N,N/C*%
X42765000Y-45270000D03*
%TO.P,D47,4*%
X44465000Y-45270000D03*
D12*
%TO.P,D47,5*%
X44465000Y-44370000D03*
D13*
%TO.P,D47,6*%
X43615000Y-44960000D03*
D10*
X44465000Y-43470000D03*
%TD*%
D15*
%TO.P,R40,1*%
%TO.N,Net-(R10-Pad1)*%
X60395000Y-48630000D03*
%TO.P,R40,2*%
%TO.N,Net-(D39-A)*%
X61035000Y-48630000D03*
%TD*%
D10*
%TO.P,D55,1,K*%
%TO.N,GND*%
X46815000Y-47680000D03*
D11*
X47665000Y-47750000D03*
D12*
%TO.P,D55,2,A*%
%TO.N,Net-(D55-A)*%
X46815000Y-48580000D03*
D10*
%TO.P,D55,3*%
%TO.N,N/C*%
X46815000Y-49480000D03*
%TO.P,D55,4*%
X48515000Y-49480000D03*
D12*
%TO.P,D55,5*%
X48515000Y-48580000D03*
D13*
%TO.P,D55,6*%
X47665000Y-49170000D03*
D10*
X48515000Y-47680000D03*
%TD*%
D15*
%TO.P,R4,1*%
%TO.N,Net-(R12-Pad1)*%
X50595000Y-41630000D03*
%TO.P,R4,2*%
%TO.N,Net-(D3-A)*%
X51235000Y-41630000D03*
%TD*%
D10*
%TO.P,D32,1,K*%
%TO.N,GND*%
X38715000Y-35050000D03*
D11*
X39565000Y-35120000D03*
D12*
%TO.P,D32,2,A*%
%TO.N,Net-(D32-A)*%
X38715000Y-35950000D03*
D10*
%TO.P,D32,3*%
%TO.N,N/C*%
X38715000Y-36850000D03*
%TO.P,D32,4*%
X40415000Y-36850000D03*
D12*
%TO.P,D32,5*%
X40415000Y-35950000D03*
D13*
%TO.P,D32,6*%
X39565000Y-36540000D03*
D10*
X40415000Y-35050000D03*
%TD*%
%TO.P,D52,1,K*%
%TO.N,GND*%
X34665000Y-47680000D03*
D11*
X35515000Y-47750000D03*
D12*
%TO.P,D52,2,A*%
%TO.N,Net-(D52-A)*%
X34665000Y-48580000D03*
D10*
%TO.P,D52,3*%
%TO.N,N/C*%
X34665000Y-49480000D03*
%TO.P,D52,4*%
X36365000Y-49480000D03*
D12*
%TO.P,D52,5*%
X36365000Y-48580000D03*
D13*
%TO.P,D52,6*%
X35515000Y-49170000D03*
D10*
X36365000Y-47680000D03*
%TD*%
D15*
%TO.P,R33,1*%
%TO.N,Net-(R12-Pad1)*%
X60395000Y-36380000D03*
%TO.P,R33,2*%
%TO.N,Net-(D32-A)*%
X61035000Y-36380000D03*
%TD*%
%TO.P,R56,1*%
%TO.N,Net-(R12-Pad1)*%
X65295000Y-48630000D03*
%TO.P,R56,2*%
%TO.N,Net-(D55-A)*%
X65935000Y-48630000D03*
%TD*%
%TO.P,R29,1*%
%TO.N,Net-(R1-Pad1)*%
X57945000Y-43380000D03*
%TO.P,R29,2*%
%TO.N,Net-(D28-A)*%
X58585000Y-43380000D03*
%TD*%
%TO.P,R53,1*%
%TO.N,Net-(R10-Pad1)*%
X65295000Y-43380000D03*
%TO.P,R53,2*%
%TO.N,Net-(D52-A)*%
X65935000Y-43380000D03*
%TD*%
D10*
%TO.P,D41,1,K*%
%TO.N,GND*%
X46815000Y-39260000D03*
D11*
X47665000Y-39330000D03*
D12*
%TO.P,D41,2,A*%
%TO.N,Net-(D41-A)*%
X46815000Y-40160000D03*
D10*
%TO.P,D41,3*%
%TO.N,N/C*%
X46815000Y-41060000D03*
%TO.P,D41,4*%
X48515000Y-41060000D03*
D12*
%TO.P,D41,5*%
X48515000Y-40160000D03*
D13*
%TO.P,D41,6*%
X47665000Y-40750000D03*
D10*
X48515000Y-39260000D03*
%TD*%
D15*
%TO.P,R18,1*%
%TO.N,Net-(R1-Pad1)*%
X55495000Y-38130000D03*
%TO.P,R18,2*%
%TO.N,Net-(D17-A)*%
X56135000Y-38130000D03*
%TD*%
D14*
%TO.P,U6,1*%
%TO.N,Net-(U6-Pad1)*%
X56277500Y-23080000D03*
%TO.P,U6,2*%
%TO.N,Net-(U11-Pad4)*%
X56277500Y-24030000D03*
%TO.P,U6,3,GND*%
%TO.N,GND*%
X56277500Y-24980000D03*
%TO.P,U6,4*%
%TO.N,Net-(U13-Pad2)*%
X58552500Y-24980000D03*
%TO.P,U6,5,VCC*%
%TO.N,VCC*%
X58552500Y-23080000D03*
%TD*%
D15*
%TO.P,R21,1*%
%TO.N,Net-(R12-Pad1)*%
X55495000Y-43380000D03*
%TO.P,R21,2*%
%TO.N,Net-(D20-A)*%
X56135000Y-43380000D03*
%TD*%
D10*
%TO.P,D29,1,K*%
%TO.N,GND*%
X26565000Y-35050000D03*
D11*
X27415000Y-35120000D03*
D12*
%TO.P,D29,2,A*%
%TO.N,Net-(D29-A)*%
X26565000Y-35950000D03*
D10*
%TO.P,D29,3*%
%TO.N,N/C*%
X26565000Y-36850000D03*
%TO.P,D29,4*%
X28265000Y-36850000D03*
D12*
%TO.P,D29,5*%
X28265000Y-35950000D03*
D13*
%TO.P,D29,6*%
X27415000Y-36540000D03*
D10*
X28265000Y-35050000D03*
%TD*%
%TO.P,D27,1,K*%
%TO.N,GND*%
X46815000Y-30840000D03*
D11*
X47665000Y-30910000D03*
D12*
%TO.P,D27,2,A*%
%TO.N,Net-(D27-A)*%
X46815000Y-31740000D03*
D10*
%TO.P,D27,3*%
%TO.N,N/C*%
X46815000Y-32640000D03*
%TO.P,D27,4*%
X48515000Y-32640000D03*
D12*
%TO.P,D27,5*%
X48515000Y-31740000D03*
D13*
%TO.P,D27,6*%
X47665000Y-32330000D03*
D10*
X48515000Y-30840000D03*
%TD*%
D15*
%TO.P,R19,1*%
%TO.N,Net-(R1-Pad1)*%
X55495000Y-39880000D03*
%TO.P,R19,2*%
%TO.N,Net-(D18-A)*%
X56135000Y-39880000D03*
%TD*%
D16*
%TO.P,SW5,1,C*%
%TO.N,VCC*%
X22915000Y-59360000D03*
%TO.P,SW5,2,B*%
%TO.N,Net-(SW5-B)*%
X25215000Y-61110000D03*
%TO.P,SW5,3,A*%
%TO.N,GND*%
X22915000Y-62860000D03*
%TD*%
D15*
%TO.P,R12,1*%
%TO.N,Net-(R12-Pad1)*%
X53045000Y-41630000D03*
%TO.P,R12,2*%
%TO.N,Net-(D11-A)*%
X53685000Y-41630000D03*
%TD*%
%TO.P,R23,1*%
%TO.N,Net-(R14-Pad1)*%
X55495000Y-46880000D03*
%TO.P,R23,2*%
%TO.N,Net-(D22-A)*%
X56135000Y-46880000D03*
%TD*%
D17*
%TO.N,Net-(SW7-B)*%
X45580900Y-57974100D03*
X62597100Y-18956100D03*
%TO.N,Net-(SW6-B)*%
X30665000Y-55557700D03*
X58069000Y-31347500D03*
%TO.N,Net-(SW5-B)*%
X27006100Y-59443100D03*
X49954700Y-23182000D03*
%TO.N,Net-(SW4-B)*%
X55312500Y-26330900D03*
X50965100Y-21280100D03*
X59981000Y-22363600D03*
X59981000Y-25568400D03*
X47847400Y-55250700D03*
X49898300Y-18251800D03*
X42958200Y-17410000D03*
%TO.N,Net-(SW3-B)*%
X56277500Y-25779900D03*
X56756300Y-22210100D03*
X52035000Y-25645600D03*
X41566200Y-60011400D03*
X59965100Y-18345200D03*
%TO.N,Net-(SW2-B)*%
X36013700Y-59741000D03*
X70509500Y-62037800D03*
X68368900Y-30803900D03*
X65556900Y-30142300D03*
%TO.N,Net-(SW1-B)*%
X31914900Y-57117300D03*
X67051300Y-21672900D03*
%TO.N,VCC*%
X40365000Y-60393100D03*
X71416200Y-60535000D03*
X33425200Y-58362000D03*
X63702500Y-30439900D03*
X59310400Y-28487700D03*
X53684600Y-26917300D03*
%TO.N,Net-(R12-Pad1)*%
X64577800Y-43144300D03*
X64139200Y-39446000D03*
X64126900Y-37072700D03*
X59719200Y-34474200D03*
X50529800Y-42312600D03*
X52477700Y-42317100D03*
X66014600Y-47842900D03*
X57585600Y-50963900D03*
X60172400Y-49776700D03*
X62556000Y-51874000D03*
%TO.N,Net-(R10-Pad1)*%
X53853700Y-61741200D03*
X66440400Y-56818400D03*
X70152100Y-53370900D03*
X66655400Y-54279500D03*
X68675700Y-39044900D03*
X62732500Y-33634000D03*
X53371500Y-42317100D03*
X54761700Y-36211900D03*
X57332800Y-37446900D03*
X65295000Y-39191100D03*
X66456500Y-45740900D03*
X68675700Y-35352200D03*
X45344300Y-20947700D03*
X45698100Y-25100100D03*
X54237700Y-38678900D03*
X55661000Y-37231700D03*
X56684000Y-42317100D03*
%TO.N,Net-(R14-Pad1)*%
X60924200Y-44402200D03*
X54449300Y-44935900D03*
X59422600Y-38743200D03*
X64370800Y-33377100D03*
X54103800Y-33404600D03*
X58725600Y-30898500D03*
X55554900Y-47695300D03*
X52038600Y-47487800D03*
X52279700Y-36212300D03*
X49884400Y-35896500D03*
X49884400Y-33221900D03*
X67343700Y-38250200D03*
%TO.N,Net-(R1-Pad1)*%
X61708400Y-53661900D03*
X64762200Y-37593900D03*
X60378300Y-52383400D03*
X53394400Y-22171300D03*
X67789000Y-33448500D03*
X55495000Y-38990500D03*
X49875300Y-38037200D03*
X55571000Y-53454200D03*
X51968400Y-52942100D03*
X57945000Y-42317100D03*
X62709700Y-50043900D03*
X59185500Y-42317100D03*
%TO.N,Net-(D55-A)*%
X46807000Y-52942100D03*
X51186600Y-52942100D03*
X51186600Y-60334200D03*
X67218800Y-54821800D03*
%TO.N,Net-(D54-A)*%
X46314900Y-61508500D03*
X67461300Y-56003800D03*
%TO.N,Net-(D53-A)*%
X38765500Y-50976000D03*
X63832100Y-47814600D03*
%TO.N,Net-(D52-A)*%
X38182900Y-54185400D03*
X66895300Y-47078200D03*
%TO.N,Net-(D51-A)*%
X31506400Y-52037700D03*
X35153000Y-52593800D03*
X34770100Y-57866200D03*
X67766900Y-52629200D03*
X67261800Y-43746200D03*
X65935000Y-42619500D03*
%TO.N,Net-(D50-A)*%
X26639400Y-57729700D03*
X68589600Y-51266600D03*
X67529000Y-41515300D03*
X65717100Y-40909400D03*
%TO.N,Net-(D49-A)*%
X21855000Y-46952100D03*
X25591600Y-50646400D03*
X24582500Y-58842200D03*
X64545700Y-61498400D03*
%TO.N,Net-(D48-A)*%
X49424400Y-56766800D03*
X65935000Y-35688700D03*
%TO.N,Net-(D47-A)*%
X42060200Y-46853400D03*
X35943900Y-42291900D03*
X34780400Y-42550000D03*
X33279700Y-47764200D03*
X32524300Y-52135000D03*
X63308500Y-49445000D03*
%TO.N,Net-(D46-A)*%
X39766300Y-46444100D03*
X61755100Y-44774100D03*
%TO.N,Net-(D45-A)*%
X36661100Y-46060700D03*
X33769700Y-42873500D03*
X33769700Y-41062000D03*
X29551600Y-46278400D03*
X30296100Y-50807800D03*
X64070600Y-46312700D03*
%TO.N,Net-(D44-A)*%
X62517600Y-44415100D03*
X29533900Y-44879700D03*
%TO.N,Net-(D43-A)*%
X25208900Y-46781200D03*
X63485000Y-42682000D03*
%TO.N,Net-(D42-A)*%
X64506200Y-40207500D03*
X66498900Y-40690400D03*
X61322500Y-57216300D03*
X21265900Y-51964200D03*
%TO.N,Net-(D41-A)*%
X46133300Y-42273100D03*
X62598200Y-39117400D03*
%TO.N,Net-(D40-A)*%
X39494400Y-54806500D03*
X56977200Y-54840000D03*
X56977200Y-57148500D03*
X65174800Y-34550300D03*
%TO.N,Net-(D39-A)*%
X37798800Y-40343200D03*
X33374300Y-36677100D03*
X31797300Y-37947300D03*
X25284500Y-43585400D03*
X23185900Y-46573600D03*
X61193800Y-54253000D03*
%TO.N,Net-(D38-A)*%
X31053700Y-42061800D03*
X60483900Y-46088200D03*
%TO.N,Net-(D37-A)*%
X29933300Y-42664000D03*
X61265700Y-45947400D03*
%TO.N,Net-(D36-A)*%
X25883300Y-42538500D03*
X28537500Y-46636800D03*
X30840000Y-51371400D03*
X62138900Y-42276100D03*
%TO.N,Net-(D35-A)*%
X22366100Y-42174400D03*
X61035000Y-42505000D03*
%TO.N,Net-(D34-A)*%
X50849000Y-31442000D03*
X61566300Y-40411300D03*
%TO.N,Net-(D33-A)*%
X41690300Y-37332300D03*
X45545700Y-43675100D03*
X44221500Y-46206200D03*
X40750700Y-42735400D03*
X39521900Y-50592700D03*
X42150500Y-53079700D03*
X43370000Y-57583100D03*
X69661200Y-48831900D03*
X68209500Y-36364100D03*
X63678300Y-25781300D03*
X62568700Y-28130800D03*
X54505800Y-26700400D03*
X54929100Y-31194700D03*
X61625600Y-37251100D03*
%TO.N,Net-(D32-A)*%
X62009000Y-35267800D03*
X37757300Y-35011600D03*
%TO.N,Net-(D31-A)*%
X34382700Y-37721400D03*
X38623400Y-41801400D03*
X37717900Y-42541400D03*
X57253200Y-47800600D03*
%TO.N,Net-(D30-A)*%
X30855200Y-33760500D03*
X57208000Y-45616000D03*
%TO.N,Net-(D29-A)*%
X58818700Y-47854600D03*
X27491200Y-38336300D03*
%TO.N,Net-(D28-A)*%
X59014000Y-54729300D03*
X21374700Y-43908200D03*
%TO.N,Net-(D27-A)*%
X45931400Y-31584300D03*
X59167600Y-40894300D03*
%TO.N,Net-(D26-A)*%
X46102400Y-33386200D03*
X57163400Y-38636400D03*
%TO.N,Net-(D25-A)*%
X59681100Y-36957600D03*
X41882800Y-28601300D03*
%TO.N,Net-(D24-A)*%
X37622200Y-25335000D03*
X60139600Y-35188800D03*
%TO.N,Net-(D23-A)*%
X29543300Y-39720600D03*
X55970600Y-49314100D03*
%TO.N,Net-(D22-A)*%
X29073700Y-33200100D03*
X56563300Y-46226800D03*
%TO.N,Net-(D21-A)*%
X21833300Y-34386700D03*
X54789200Y-53617800D03*
%TO.N,Net-(D20-A)*%
X56135000Y-44353700D03*
X44188300Y-21481800D03*
X45812800Y-26037400D03*
X45896400Y-27230100D03*
%TO.N,Net-(D19-A)*%
X41794000Y-27435100D03*
X40668100Y-29764100D03*
X41387300Y-29364700D03*
X56069500Y-40927200D03*
%TO.N,Net-(D18-A)*%
X39067300Y-29872000D03*
X56795000Y-40311400D03*
%TO.N,Net-(D17-A)*%
X31389000Y-25551900D03*
X58370300Y-33114900D03*
%TO.N,Net-(D16-A)*%
X56135000Y-35683200D03*
X33456400Y-29784700D03*
%TO.N,Net-(D15-A)*%
X22680200Y-30068200D03*
X53680100Y-57148500D03*
%TO.N,Net-(D14-A)*%
X20636100Y-64679600D03*
X52088300Y-64431500D03*
%TO.N,Net-(D13-A)*%
X46133300Y-20756300D03*
X33149800Y-38099100D03*
X37650800Y-37128100D03*
X52537500Y-44539400D03*
%TO.N,Net-(D10-A)*%
X53685000Y-40563600D03*
X34398000Y-25880900D03*
%TO.N,Net-(U12-Pad2)*%
X65200600Y-26773200D03*
X61900600Y-30423300D03*
%TO.N,Net-(U6-Pad1)*%
X57604800Y-26150600D03*
X57417700Y-22654500D03*
%TO.N,Net-(U11-Pad4)*%
X57440600Y-23846700D03*
X63702500Y-28521100D03*
%TO.N,Net-(U13-Pad2)*%
X60260900Y-20431200D03*
X64896100Y-20431200D03*
%TO.N,Net-(U15-Pad1)*%
X58288900Y-22297300D03*
X65221000Y-28400600D03*
%TO.N,Net-(U1-Pad1)*%
X49939200Y-19927800D03*
X62771300Y-23845200D03*
%TO.N,Net-(U1-Pad2)*%
X52272700Y-19562300D03*
X63536500Y-19562300D03*
%TO.N,Net-(D9-A)*%
X33353700Y-24385800D03*
X52489800Y-40766800D03*
%TO.N,Net-(D8-A)*%
X27763800Y-25425000D03*
X29350000Y-29815600D03*
X53006000Y-37141700D03*
X49834500Y-36810200D03*
X42040000Y-38636000D03*
X33685700Y-33469300D03*
%TO.N,Net-(D7-A)*%
X21437200Y-27086600D03*
X51235000Y-47888700D03*
%TO.N,Net-(D6-A)*%
X45915400Y-18876800D03*
X52678300Y-61741200D03*
%TO.N,Net-(D5-A)*%
X41941400Y-20523700D03*
X49874400Y-45149800D03*
%TO.N,Net-(D4-A)*%
X38033300Y-21668500D03*
X49382500Y-42348400D03*
%TO.N,Net-(D3-A)*%
X33731700Y-22731100D03*
X49818400Y-41647200D03*
%TO.N,Net-(D2-A)*%
X33396300Y-23501400D03*
X48704700Y-41889300D03*
%TO.N,Net-(D11-A)*%
X54333800Y-41212700D03*
X37814600Y-22832000D03*
%TO.N,Net-(D12-A)*%
X42083300Y-25434400D03*
X54949000Y-40652400D03*
%TO.N,Net-(D1-A)*%
X27104200Y-21301100D03*
X49379600Y-25826300D03*
X47137800Y-29946400D03*
X51235000Y-37421000D03*
%TO.N,Net-(D0-A)*%
X21833300Y-16369100D03*
X53204100Y-16310700D03*
X53204100Y-17479200D03*
X50871400Y-25765700D03*
X49064700Y-29550900D03*
X51235000Y-35569300D03*
%TO.N,GND*%
X28365000Y-58375400D03*
X23406800Y-58260500D03*
X57155400Y-30433400D03*
X59757300Y-31585900D03*
X62547900Y-25417200D03*
X56139400Y-21648500D03*
X52408500Y-21636000D03*
X41359100Y-21241900D03*
X42957500Y-21687800D03*
X53881700Y-28764700D03*
X42914100Y-60011400D03*
X48657300Y-60220500D03*
X66163200Y-30832700D03*
%TD*%
D18*
%TO.N,Net-(SW7-B)*%
X62148200Y-19405000D02*
X62597100Y-18956100D01*
X61427500Y-19405000D02*
X62148200Y-19405000D01*
X45580900Y-58167300D02*
X45580900Y-57974100D01*
X42391700Y-61356500D02*
X45580900Y-58167300D01*
X36361500Y-61356500D02*
X42391700Y-61356500D01*
X36115000Y-61110000D02*
X36361500Y-61356500D01*
%TO.N,Net-(SW6-B)*%
X57471200Y-31945300D02*
X58069000Y-31347500D01*
X57471200Y-32479700D02*
X57471200Y-31945300D01*
X56670900Y-33280000D02*
X57471200Y-32479700D01*
X56277500Y-33280000D02*
X56670900Y-33280000D01*
X30665000Y-61110000D02*
X30665000Y-55557700D01*
%TO.N,Net-(SW5-B)*%
X25339200Y-61110000D02*
X27006100Y-59443100D01*
X25215000Y-61110000D02*
X25339200Y-61110000D01*
X53728800Y-24030000D02*
X51127500Y-24030000D01*
X54899300Y-22859500D02*
X53728800Y-24030000D01*
X54899300Y-20453000D02*
X54899300Y-22859500D01*
X55947300Y-19405000D02*
X54899300Y-20453000D01*
X56277500Y-19405000D02*
X55947300Y-19405000D01*
X50802700Y-24030000D02*
X49954700Y-23182000D01*
X51127500Y-24030000D02*
X50802700Y-24030000D01*
%TO.N,Net-(SW4-B)*%
X59981000Y-22363600D02*
X59981000Y-25568400D01*
X50965100Y-22917600D02*
X50965100Y-21280100D01*
X51127500Y-23080000D02*
X50965100Y-22917600D01*
X47847400Y-54992400D02*
X47847400Y-55250700D01*
X47015000Y-54160000D02*
X47847400Y-54992400D01*
X43115400Y-17252800D02*
X42958200Y-17410000D01*
X49193600Y-17252800D02*
X43115400Y-17252800D01*
X49898300Y-17957500D02*
X49193600Y-17252800D01*
X49898300Y-18251800D02*
X49898300Y-17957500D01*
X55312500Y-28037400D02*
X55312500Y-26330900D01*
X55930100Y-28655000D02*
X55312500Y-28037400D01*
X56277500Y-28655000D02*
X55930100Y-28655000D01*
%TO.N,Net-(SW3-B)*%
X56277500Y-27705000D02*
X56277500Y-25779900D01*
X59965100Y-18455000D02*
X59965100Y-18345200D01*
X59333500Y-19086600D02*
X59965100Y-18455000D01*
X58524900Y-19086600D02*
X59333500Y-19086600D01*
X57537600Y-20073900D02*
X58524900Y-19086600D01*
X57537600Y-21428800D02*
X57537600Y-20073900D01*
X56756300Y-22210100D02*
X57537600Y-21428800D01*
X59965100Y-18455000D02*
X61427500Y-18455000D01*
X41565000Y-60010200D02*
X41566200Y-60011400D01*
X41565000Y-54160000D02*
X41565000Y-60010200D01*
X51127500Y-26553100D02*
X52035000Y-25645600D01*
X51127500Y-27705000D02*
X51127500Y-26553100D01*
%TO.N,Net-(SW2-B)*%
X65556900Y-29315100D02*
X65556900Y-30142300D01*
X66217000Y-28655000D02*
X65556900Y-29315100D01*
X66577500Y-28655000D02*
X66217000Y-28655000D01*
X36013700Y-54261300D02*
X36013700Y-59741000D01*
X36115000Y-54160000D02*
X36013700Y-54261300D01*
X70509500Y-56504400D02*
X70509500Y-62037800D01*
X71125000Y-55888900D02*
X70509500Y-56504400D01*
X71125000Y-33327700D02*
X71125000Y-55888900D01*
X68601200Y-30803900D02*
X71125000Y-33327700D01*
X68368900Y-30803900D02*
X68601200Y-30803900D01*
%TO.N,Net-(SW1-B)*%
X64664200Y-22485400D02*
X65260400Y-23081600D01*
X62948700Y-22485400D02*
X64664200Y-22485400D01*
X62469000Y-22965100D02*
X62948700Y-22485400D01*
X62469000Y-23324900D02*
X62469000Y-22965100D01*
X61763900Y-24030000D02*
X62469000Y-23324900D01*
X61427500Y-24030000D02*
X61763900Y-24030000D01*
X66208800Y-24030000D02*
X66577500Y-24030000D01*
X65260400Y-23081600D02*
X66208800Y-24030000D01*
X66669100Y-21672900D02*
X67051300Y-21672900D01*
X65260400Y-23081600D02*
X66669100Y-21672900D01*
X31914900Y-55409900D02*
X31914900Y-57117300D01*
X30665000Y-54160000D02*
X31914900Y-55409900D01*
%TO.N,VCC*%
X58552500Y-23622800D02*
X58552500Y-23080000D01*
X57567500Y-24607800D02*
X58552500Y-23622800D01*
X57567500Y-25285700D02*
X57567500Y-24607800D01*
X58552500Y-26270700D02*
X57567500Y-25285700D01*
X58552500Y-27705000D02*
X58552500Y-26270700D01*
X68852500Y-23080000D02*
X68852500Y-23646100D01*
X69439000Y-27705000D02*
X68852500Y-27705000D01*
X64291900Y-27705000D02*
X63702500Y-27705000D01*
X64639300Y-28052400D02*
X64291900Y-27705000D01*
X68239700Y-17842200D02*
X68852500Y-18455000D01*
X64315300Y-17842200D02*
X68239700Y-17842200D01*
X63702500Y-18455000D02*
X64315300Y-17842200D01*
X53473500Y-18526000D02*
X54353200Y-18526000D01*
X53402500Y-18455000D02*
X53473500Y-18526000D01*
X55056500Y-17822700D02*
X54353200Y-18526000D01*
X57920200Y-17822700D02*
X55056500Y-17822700D01*
X58552500Y-18455000D02*
X57920200Y-17822700D01*
X54353200Y-22129300D02*
X53402500Y-23080000D01*
X54353200Y-18526000D02*
X54353200Y-22129300D01*
X39479500Y-52410000D02*
X39265000Y-52410000D01*
X40443700Y-53374200D02*
X39479500Y-52410000D01*
X63702500Y-23394500D02*
X63702500Y-23080000D01*
X65884500Y-25576500D02*
X63702500Y-23394500D01*
X67275100Y-25576500D02*
X65884500Y-25576500D01*
X67715000Y-25136600D02*
X67275100Y-25576500D01*
X67715000Y-24783600D02*
X67715000Y-25136600D01*
X68852500Y-23646100D02*
X67715000Y-24783600D01*
X69797700Y-27346300D02*
X69439000Y-27705000D01*
X69797700Y-24591300D02*
X69797700Y-27346300D01*
X68852500Y-23646100D02*
X69797700Y-24591300D01*
X70185900Y-21746600D02*
X68852500Y-23080000D01*
X70185900Y-19788400D02*
X70185900Y-21746600D01*
X68852500Y-18455000D02*
X70185900Y-19788400D01*
X59244000Y-17763500D02*
X58552500Y-18455000D01*
X63011000Y-17763500D02*
X59244000Y-17763500D01*
X63702500Y-18455000D02*
X63011000Y-17763500D01*
X33815000Y-58751800D02*
X33425200Y-58362000D01*
X33815000Y-59360000D02*
X33815000Y-58751800D01*
X68265600Y-27118100D02*
X68852500Y-27705000D01*
X65678300Y-27118100D02*
X68265600Y-27118100D01*
X64744000Y-28052400D02*
X65678300Y-27118100D01*
X64639300Y-28052400D02*
X64744000Y-28052400D01*
X27233600Y-53541400D02*
X27233600Y-58861400D01*
X28365000Y-52410000D02*
X27233600Y-53541400D01*
X27866400Y-58861400D02*
X27233600Y-58861400D01*
X28365000Y-59360000D02*
X27866400Y-58861400D01*
X22998100Y-59443100D02*
X22915000Y-59360000D01*
X24804500Y-59443100D02*
X22998100Y-59443100D01*
X25386200Y-58861400D02*
X24804500Y-59443100D01*
X27233600Y-58861400D02*
X25386200Y-58861400D01*
X69806800Y-29970100D02*
X69554700Y-30222200D01*
X69806800Y-28072800D02*
X69806800Y-29970100D01*
X69439000Y-27705000D02*
X69806800Y-28072800D01*
X68852500Y-32110100D02*
X68852500Y-32330000D01*
X67787200Y-31044800D02*
X68852500Y-32110100D01*
X67787200Y-30563000D02*
X67787200Y-31044800D01*
X68128000Y-30222200D02*
X67787200Y-30563000D01*
X69554700Y-30222200D02*
X68128000Y-30222200D01*
X41407900Y-52410000D02*
X40443700Y-53374200D01*
X44715000Y-52410000D02*
X41407900Y-52410000D01*
X21783400Y-53541600D02*
X22915000Y-52410000D01*
X21783400Y-58228400D02*
X21783400Y-53541600D01*
X22915000Y-59360000D02*
X21783400Y-58228400D01*
X53684600Y-27705000D02*
X53402500Y-27705000D01*
X63702500Y-32330000D02*
X63702500Y-30439900D01*
X64157900Y-30439900D02*
X63702500Y-30439900D01*
X64648500Y-29949300D02*
X64157900Y-30439900D01*
X64648500Y-28650800D02*
X64648500Y-29949300D01*
X64639300Y-28641600D02*
X64648500Y-28650800D01*
X64639300Y-28052400D02*
X64639300Y-28641600D01*
X40443700Y-60314400D02*
X40365000Y-60393100D01*
X40443700Y-53374200D02*
X40443700Y-60314400D01*
X33425200Y-57787900D02*
X33425200Y-58362000D01*
X32296600Y-56659300D02*
X33425200Y-57787900D01*
X32296600Y-53221000D02*
X32296600Y-56659300D01*
X29176000Y-53221000D02*
X32296600Y-53221000D01*
X28365000Y-52410000D02*
X29176000Y-53221000D01*
X33004000Y-53221000D02*
X33815000Y-52410000D01*
X32296600Y-53221000D02*
X33004000Y-53221000D01*
X71594600Y-60356600D02*
X71416200Y-60535000D01*
X71594600Y-32262100D02*
X71594600Y-60356600D01*
X69554700Y-30222200D02*
X71594600Y-32262100D01*
X59310400Y-28462900D02*
X59310400Y-28487700D01*
X58552500Y-27705000D02*
X59310400Y-28462900D01*
X58552500Y-31966500D02*
X58552500Y-32330000D01*
X59505500Y-31013500D02*
X58552500Y-31966500D01*
X59505500Y-28682800D02*
X59505500Y-31013500D01*
X59310400Y-28487700D02*
X59505500Y-28682800D01*
X53402500Y-31898700D02*
X53402500Y-32330000D01*
X54742700Y-30558500D02*
X53402500Y-31898700D01*
X54742700Y-28763100D02*
X54742700Y-30558500D01*
X53684600Y-27705000D02*
X54742700Y-28763100D01*
X53684600Y-27705000D02*
X53684600Y-26917300D01*
%TO.N,Net-(R12-Pad1)*%
X50595000Y-42247400D02*
X50529800Y-42312600D01*
X50595000Y-41630000D02*
X50595000Y-42247400D01*
X55080700Y-43794300D02*
X55495000Y-43380000D01*
X55080700Y-43918300D02*
X55080700Y-43794300D01*
X55495000Y-41630000D02*
X55495000Y-43380000D01*
X62845000Y-44997300D02*
X62845000Y-45130000D01*
X63428400Y-44413900D02*
X62845000Y-44997300D01*
X64578900Y-44413900D02*
X63428400Y-44413900D01*
X65295000Y-45130000D02*
X64578900Y-44413900D01*
X55366800Y-45001800D02*
X55239000Y-45001800D01*
X55495000Y-45130000D02*
X55366800Y-45001800D01*
X55080700Y-44843500D02*
X55239000Y-45001800D01*
X55080700Y-43918300D02*
X55080700Y-44843500D01*
X62269700Y-51874000D02*
X62556000Y-51874000D01*
X60172400Y-49776700D02*
X62269700Y-51874000D01*
X64819600Y-36380000D02*
X64126900Y-37072700D01*
X65295000Y-36380000D02*
X64819600Y-36380000D01*
X58796700Y-34474200D02*
X58552500Y-34230000D01*
X59719200Y-34474200D02*
X58796700Y-34474200D01*
X57585600Y-52306100D02*
X57585600Y-50963900D01*
X55692100Y-54199600D02*
X57585600Y-52306100D01*
X54519800Y-54199600D02*
X55692100Y-54199600D01*
X54207500Y-53887300D02*
X54519800Y-54199600D01*
X54207500Y-46033300D02*
X54207500Y-53887300D01*
X55239000Y-45001800D02*
X54207500Y-46033300D01*
X65921100Y-47842900D02*
X66014600Y-47842900D01*
X65295000Y-48469000D02*
X65921100Y-47842900D01*
X65295000Y-48630000D02*
X65295000Y-48469000D01*
X64578900Y-43144300D02*
X64577800Y-43144300D01*
X64578900Y-44413900D02*
X64578900Y-43144300D01*
X64578900Y-42346100D02*
X65295000Y-41630000D01*
X64578900Y-43144300D02*
X64578900Y-42346100D01*
X60395000Y-35961300D02*
X60395000Y-36380000D01*
X60777500Y-35578800D02*
X60395000Y-35961300D01*
X60777500Y-34951400D02*
X60777500Y-35578800D01*
X60300300Y-34474200D02*
X60777500Y-34951400D01*
X59719200Y-34474200D02*
X60300300Y-34474200D01*
X57945000Y-37842800D02*
X57945000Y-38130000D01*
X59412900Y-36374900D02*
X57945000Y-37842800D01*
X60389900Y-36374900D02*
X59412900Y-36374900D01*
X60395000Y-36380000D02*
X60389900Y-36374900D01*
X52477700Y-43608500D02*
X52477700Y-42317100D01*
X52787500Y-43918300D02*
X52477700Y-43608500D01*
X55080700Y-43918300D02*
X52787500Y-43918300D01*
X52477700Y-42197300D02*
X53045000Y-41630000D01*
X52477700Y-42317100D02*
X52477700Y-42197300D01*
X62845000Y-39718300D02*
X62845000Y-39880000D01*
X63193500Y-39369800D02*
X62845000Y-39718300D01*
X64063000Y-39369800D02*
X63193500Y-39369800D01*
X64139200Y-39446000D02*
X64063000Y-39369800D01*
X60395000Y-41496100D02*
X60395000Y-41630000D01*
X60796200Y-41094900D02*
X60395000Y-41496100D01*
X61745100Y-41094900D02*
X60796200Y-41094900D01*
X62845000Y-39995000D02*
X61745100Y-41094900D01*
X62845000Y-39880000D02*
X62845000Y-39995000D01*
%TO.N,Net-(R10-Pad1)*%
X50595000Y-43074300D02*
X50595000Y-43380000D01*
X51770900Y-41898400D02*
X50595000Y-43074300D01*
X51770900Y-40408400D02*
X51770900Y-41898400D01*
X50595000Y-40057500D02*
X50595000Y-39880000D01*
X50945900Y-40408400D02*
X50595000Y-40057500D01*
X51770900Y-40408400D02*
X50945900Y-40408400D01*
X57945000Y-45130000D02*
X57945000Y-46880000D01*
X57945000Y-36834700D02*
X57332800Y-37446900D01*
X57945000Y-36380000D02*
X57945000Y-36834700D01*
X53045000Y-60932500D02*
X53853700Y-61741200D01*
X53045000Y-48630000D02*
X53045000Y-60932500D01*
X65295000Y-43651400D02*
X65295000Y-43380000D01*
X66456500Y-44812900D02*
X65295000Y-43651400D01*
X66456500Y-45740900D02*
X66456500Y-44812900D01*
X65295000Y-46735500D02*
X65295000Y-46880000D01*
X66289600Y-45740900D02*
X65295000Y-46735500D01*
X66456500Y-45740900D02*
X66289600Y-45740900D01*
X62732500Y-36267500D02*
X62845000Y-36380000D01*
X62732500Y-33634000D02*
X62732500Y-36267500D01*
X60395000Y-48823800D02*
X60395000Y-48630000D01*
X62198400Y-50627200D02*
X60395000Y-48823800D01*
X64269400Y-50627200D02*
X62198400Y-50627200D01*
X64269400Y-48750200D02*
X64269400Y-50627200D01*
X65295000Y-47724600D02*
X64269400Y-48750200D01*
X65295000Y-46880000D02*
X65295000Y-47724600D01*
X65295000Y-39880000D02*
X65295000Y-39191100D01*
X51770900Y-39404100D02*
X51770900Y-40408400D01*
X53045000Y-38130000D02*
X51770900Y-39404100D01*
X55536200Y-37231700D02*
X55661000Y-37231700D01*
X54237700Y-38530200D02*
X55536200Y-37231700D01*
X54237700Y-38678900D02*
X54237700Y-38530200D01*
X68852500Y-35175400D02*
X68675700Y-35352200D01*
X68852500Y-34230000D02*
X68852500Y-35175400D01*
X45698100Y-21301500D02*
X45344300Y-20947700D01*
X45698100Y-25100100D02*
X45698100Y-21301500D01*
X53045000Y-42643600D02*
X53371500Y-42317100D01*
X53045000Y-43380000D02*
X53045000Y-42643600D01*
X53045000Y-37928600D02*
X54761700Y-36211900D01*
X53045000Y-38130000D02*
X53045000Y-37928600D01*
X56684000Y-43869000D02*
X56684000Y-42317100D01*
X57945000Y-45130000D02*
X56684000Y-43869000D01*
X70242900Y-40612100D02*
X68675700Y-39044900D01*
X70242900Y-53280100D02*
X70242900Y-40612100D01*
X70152100Y-53370900D02*
X70242900Y-53280100D01*
X68791200Y-35467700D02*
X68675700Y-35352200D01*
X68791200Y-38929400D02*
X68791200Y-35467700D01*
X68675700Y-39044900D02*
X68791200Y-38929400D01*
X66440400Y-54279500D02*
X66655400Y-54279500D01*
X64269400Y-52108500D02*
X66440400Y-54279500D01*
X64269400Y-50627200D02*
X64269400Y-52108500D01*
X66440400Y-54279500D02*
X66440400Y-56818400D01*
%TO.N,Net-(R14-Pad1)*%
X62845000Y-43380000D02*
X62845000Y-41630000D01*
X60395000Y-43510400D02*
X60395000Y-43380000D01*
X60759700Y-43875100D02*
X60395000Y-43510400D01*
X60924200Y-43875100D02*
X60759700Y-43875100D01*
X61873800Y-43875100D02*
X60924200Y-43875100D01*
X62368900Y-43380000D02*
X61873800Y-43875100D01*
X62845000Y-43380000D02*
X62368900Y-43380000D01*
X52561100Y-45613900D02*
X52038600Y-45613900D01*
X53045000Y-45130000D02*
X52561100Y-45613900D01*
X50595000Y-45300900D02*
X50595000Y-45130000D01*
X50908000Y-45613900D02*
X50595000Y-45300900D01*
X52038600Y-45613900D02*
X50908000Y-45613900D01*
X55495000Y-46950500D02*
X55554900Y-47010400D01*
X55495000Y-46880000D02*
X55495000Y-46950500D01*
X55554900Y-47010400D02*
X55554900Y-47695300D01*
X60924200Y-43875100D02*
X60924200Y-44402200D01*
X59781800Y-38743200D02*
X59422600Y-38743200D01*
X60395000Y-38130000D02*
X59781800Y-38743200D01*
X52038600Y-45613900D02*
X52038600Y-47487800D01*
X64370800Y-33561700D02*
X64370800Y-33377100D01*
X63702500Y-34230000D02*
X64370800Y-33561700D01*
X52345100Y-36380000D02*
X53045000Y-36380000D01*
X52345100Y-37842500D02*
X52345100Y-36380000D01*
X51561400Y-38626200D02*
X52345100Y-37842500D01*
X50920300Y-38626200D02*
X51561400Y-38626200D01*
X50595000Y-38300900D02*
X50920300Y-38626200D01*
X50595000Y-38130000D02*
X50595000Y-38300900D01*
X55554900Y-47070300D02*
X57529800Y-49045200D01*
X55554900Y-47010400D02*
X55554900Y-47070300D01*
X57529800Y-49045200D02*
X57945000Y-48630000D01*
X53045000Y-45370300D02*
X53045000Y-45130000D01*
X53286800Y-45612100D02*
X53045000Y-45370300D01*
X54003900Y-45612100D02*
X53286800Y-45612100D01*
X54449300Y-45166700D02*
X54003900Y-45612100D01*
X54449300Y-44935900D02*
X54449300Y-45166700D01*
X58591600Y-30764500D02*
X58725600Y-30898500D01*
X57695300Y-30764500D02*
X58591600Y-30764500D01*
X57391900Y-31067900D02*
X57695300Y-30764500D01*
X56208500Y-31067900D02*
X57391900Y-31067900D01*
X54103800Y-33172600D02*
X56208500Y-31067900D01*
X54103800Y-33404600D02*
X54103800Y-33172600D01*
X49884400Y-35896500D02*
X49884400Y-33221900D01*
X57945000Y-41294300D02*
X57945000Y-41630000D01*
X59422600Y-39816700D02*
X57945000Y-41294300D01*
X59422600Y-38743200D02*
X59422600Y-39816700D01*
X55495000Y-36121900D02*
X55495000Y-36380000D01*
X54981800Y-35608700D02*
X55495000Y-36121900D01*
X53014100Y-35608700D02*
X54981800Y-35608700D01*
X52345100Y-36277700D02*
X53014100Y-35608700D01*
X52345100Y-36380000D02*
X52345100Y-36277700D01*
X52345100Y-36277700D02*
X52279700Y-36212300D01*
X58432300Y-49947700D02*
X57529800Y-49045200D01*
X58432300Y-56292700D02*
X58432300Y-49947700D01*
X64254200Y-62114600D02*
X58432300Y-56292700D01*
X64752300Y-62114600D02*
X64254200Y-62114600D01*
X69171300Y-57695600D02*
X64752300Y-62114600D01*
X69171300Y-51025600D02*
X69171300Y-57695600D01*
X69079500Y-50933800D02*
X69171300Y-51025600D01*
X69079500Y-42036100D02*
X69079500Y-50933800D01*
X67712200Y-40668800D02*
X69079500Y-42036100D01*
X67712200Y-38618700D02*
X67712200Y-40668800D01*
X67343700Y-38250200D02*
X67712200Y-38618700D01*
%TO.N,Net-(R1-Pad1)*%
X50595000Y-46880000D02*
X50595000Y-48630000D01*
X53394400Y-20363100D02*
X53394400Y-22171300D01*
X53402500Y-20355000D02*
X53394400Y-20363100D01*
X55005700Y-39390700D02*
X55495000Y-39880000D01*
X53404000Y-39390700D02*
X55005700Y-39390700D01*
X53045000Y-39749700D02*
X53404000Y-39390700D01*
X53045000Y-39880000D02*
X53045000Y-39749700D01*
X57724900Y-39880000D02*
X57945000Y-39880000D01*
X50943300Y-49150000D02*
X51550600Y-49150000D01*
X50595000Y-48801700D02*
X50943300Y-49150000D01*
X50595000Y-48630000D02*
X50595000Y-48801700D01*
X62845000Y-48630000D02*
X62845000Y-46880000D01*
X51968400Y-49567800D02*
X51968400Y-52942100D01*
X51550600Y-49150000D02*
X51968400Y-49567800D01*
X55495000Y-38130000D02*
X55495000Y-38990500D01*
X57213500Y-39368600D02*
X55495000Y-39368600D01*
X57724900Y-39880000D02*
X57213500Y-39368600D01*
X55495000Y-39880000D02*
X55495000Y-39368600D01*
X55495000Y-39368600D02*
X55495000Y-38990500D01*
X53045000Y-47304100D02*
X53045000Y-46880000D01*
X52016600Y-48332500D02*
X53045000Y-47304100D01*
X52016600Y-48684000D02*
X52016600Y-48332500D01*
X51550600Y-49150000D02*
X52016600Y-48684000D01*
X50595000Y-37317500D02*
X49875300Y-38037200D01*
X50595000Y-36380000D02*
X50595000Y-37317500D01*
X62845000Y-48630000D02*
X62709700Y-48765300D01*
X62709700Y-48765300D02*
X62709700Y-50043900D01*
X59902200Y-46387200D02*
X60395000Y-46880000D01*
X59902200Y-45622800D02*
X59902200Y-46387200D01*
X60395000Y-45130000D02*
X59902200Y-45622800D01*
X62109400Y-48765300D02*
X62709700Y-48765300D01*
X60395000Y-47050900D02*
X62109400Y-48765300D01*
X60395000Y-46880000D02*
X60395000Y-47050900D01*
X65295000Y-38126700D02*
X64762200Y-37593900D01*
X65295000Y-38128300D02*
X65295000Y-38126700D01*
X65295000Y-37814900D02*
X65295000Y-38128300D01*
X67789000Y-35320900D02*
X65295000Y-37814900D01*
X67789000Y-33448500D02*
X67789000Y-35320900D01*
X65295000Y-38130000D02*
X65295000Y-38128300D01*
X55388900Y-53272100D02*
X55571000Y-53454200D01*
X55388900Y-48736100D02*
X55388900Y-53272100D01*
X55495000Y-48630000D02*
X55388900Y-48736100D01*
X61969000Y-38130000D02*
X62845000Y-38130000D01*
X60395000Y-39704000D02*
X61969000Y-38130000D01*
X60395000Y-39880000D02*
X60395000Y-39704000D01*
X57945000Y-43380000D02*
X57945000Y-42317100D01*
X57724900Y-40940600D02*
X57724900Y-39880000D01*
X57374400Y-41291100D02*
X57724900Y-40940600D01*
X57374400Y-41844300D02*
X57374400Y-41291100D01*
X57847200Y-42317100D02*
X57374400Y-41844300D01*
X57945000Y-42317100D02*
X57847200Y-42317100D01*
X59185500Y-43920500D02*
X59185500Y-42317100D01*
X60395000Y-45130000D02*
X59185500Y-43920500D01*
X61656800Y-53661900D02*
X61708400Y-53661900D01*
X60378300Y-52383400D02*
X61656800Y-53661900D01*
X59185500Y-41701000D02*
X59185500Y-42317100D01*
X60395000Y-40491500D02*
X59185500Y-41701000D01*
X60395000Y-39880000D02*
X60395000Y-40491500D01*
%TO.N,Net-(D55-A)*%
X46815000Y-48580000D02*
X46133300Y-48580000D01*
X46807000Y-52135500D02*
X46807000Y-52942100D01*
X46133300Y-51461800D02*
X46807000Y-52135500D01*
X46133300Y-48580000D02*
X46133300Y-51461800D01*
X51186600Y-52942100D02*
X51186600Y-60334200D01*
X65935000Y-52736100D02*
X65935000Y-48630000D01*
X67237100Y-54038200D02*
X65935000Y-52736100D01*
X67237100Y-54803500D02*
X67237100Y-54038200D01*
X67218800Y-54821800D02*
X67237100Y-54803500D01*
%TO.N,Net-(D54-A)*%
X42765000Y-48580000D02*
X42083300Y-48580000D01*
X46314900Y-57133900D02*
X46314900Y-61508500D01*
X45838300Y-56657300D02*
X46314900Y-57133900D01*
X45838300Y-51914500D02*
X45838300Y-56657300D01*
X44403600Y-50479800D02*
X45838300Y-51914500D01*
X42643100Y-50479800D02*
X44403600Y-50479800D01*
X42083300Y-49920000D02*
X42643100Y-50479800D01*
X42083300Y-48580000D02*
X42083300Y-49920000D01*
X65935000Y-46940400D02*
X65935000Y-46880000D01*
X66695300Y-47700700D02*
X65935000Y-46940400D01*
X66695300Y-52416800D02*
X66695300Y-47700700D01*
X67800500Y-53522000D02*
X66695300Y-52416800D01*
X67800500Y-55664600D02*
X67800500Y-53522000D01*
X67461300Y-56003800D02*
X67800500Y-55664600D01*
%TO.N,Net-(D53-A)*%
X38715000Y-48580000D02*
X38033300Y-48580000D01*
X63832100Y-47398500D02*
X63832100Y-47814600D01*
X65935000Y-45295600D02*
X63832100Y-47398500D01*
X65935000Y-45130000D02*
X65935000Y-45295600D01*
X38033300Y-50243800D02*
X38765500Y-50976000D01*
X38033300Y-48580000D02*
X38033300Y-50243800D01*
%TO.N,Net-(D52-A)*%
X34665000Y-48580000D02*
X33983300Y-48580000D01*
X33983300Y-49985800D02*
X38182900Y-54185400D01*
X33983300Y-48580000D02*
X33983300Y-49985800D01*
X67039800Y-46933700D02*
X66895300Y-47078200D01*
X67039800Y-44942400D02*
X67039800Y-46933700D01*
X66880100Y-44782700D02*
X67039800Y-44942400D01*
X66880100Y-44696700D02*
X66880100Y-44782700D01*
X65935000Y-43751600D02*
X66880100Y-44696700D01*
X65935000Y-43380000D02*
X65935000Y-43751600D01*
%TO.N,Net-(D51-A)*%
X30615000Y-48580000D02*
X29933300Y-48580000D01*
X65935000Y-41630000D02*
X65935000Y-42619500D01*
X29933300Y-49846700D02*
X29933300Y-48580000D01*
X30276800Y-50190200D02*
X29933300Y-49846700D01*
X30501600Y-50190200D02*
X30276800Y-50190200D01*
X31506400Y-51195000D02*
X30501600Y-50190200D01*
X31506400Y-52037700D02*
X31506400Y-51195000D01*
X35153000Y-52927700D02*
X35153000Y-52593800D01*
X32678300Y-55402400D02*
X35153000Y-52927700D01*
X32678300Y-56373900D02*
X32678300Y-55402400D01*
X34170600Y-57866200D02*
X32678300Y-56373900D01*
X34770100Y-57866200D02*
X34170600Y-57866200D01*
X67477100Y-43961500D02*
X67261800Y-43746200D01*
X67477100Y-50141900D02*
X67477100Y-43961500D01*
X67227000Y-50392000D02*
X67477100Y-50141900D01*
X67227000Y-52089300D02*
X67227000Y-50392000D01*
X67766900Y-52629200D02*
X67227000Y-52089300D01*
%TO.N,Net-(D50-A)*%
X26565000Y-48580000D02*
X25883300Y-48580000D01*
X65911200Y-40715300D02*
X65717100Y-40909400D01*
X65911200Y-39903800D02*
X65911200Y-40715300D01*
X65935000Y-39880000D02*
X65911200Y-39903800D01*
X26722900Y-57646200D02*
X26639400Y-57729700D01*
X26722900Y-50955000D02*
X26722900Y-57646200D01*
X25883300Y-50115400D02*
X26722900Y-50955000D01*
X25883300Y-48580000D02*
X25883300Y-50115400D01*
X68622200Y-51234000D02*
X68589600Y-51266600D01*
X68622200Y-42608500D02*
X68622200Y-51234000D01*
X67529000Y-41515300D02*
X68622200Y-42608500D01*
%TO.N,Net-(D49-A)*%
X22515000Y-48580000D02*
X21833300Y-48580000D01*
X26341200Y-57083500D02*
X24582500Y-58842200D01*
X26341200Y-51396000D02*
X26341200Y-57083500D01*
X25591600Y-50646400D02*
X26341200Y-51396000D01*
X21833300Y-46973800D02*
X21855000Y-46952100D01*
X21833300Y-48580000D02*
X21833300Y-46973800D01*
X68730300Y-57313800D02*
X64545700Y-61498400D01*
X68730300Y-52230100D02*
X68730300Y-57313800D01*
X67990400Y-51490200D02*
X68730300Y-52230100D01*
X67990400Y-50708200D02*
X67990400Y-51490200D01*
X68240500Y-50458100D02*
X67990400Y-50708200D01*
X68240500Y-43049300D02*
X68240500Y-50458100D01*
X66947300Y-41756100D02*
X68240500Y-43049300D01*
X66947300Y-41274400D02*
X66947300Y-41756100D01*
X67140300Y-41081400D02*
X66947300Y-41274400D01*
X67140300Y-39335300D02*
X67140300Y-41081400D01*
X65935000Y-38130000D02*
X67140300Y-39335300D01*
%TO.N,Net-(D48-A)*%
X46815000Y-44370000D02*
X46133300Y-44370000D01*
X65935000Y-36380000D02*
X65935000Y-35688700D01*
X49613700Y-56577500D02*
X49424400Y-56766800D01*
X49613700Y-47144800D02*
X49613700Y-56577500D01*
X48715000Y-46246100D02*
X49613700Y-47144800D01*
X46737400Y-46246100D02*
X48715000Y-46246100D01*
X46133300Y-45642000D02*
X46737400Y-46246100D01*
X46133300Y-44370000D02*
X46133300Y-45642000D01*
%TO.N,Net-(D47-A)*%
X42765000Y-44370000D02*
X42083300Y-44370000D01*
X35038500Y-42291900D02*
X34780400Y-42550000D01*
X35943900Y-42291900D02*
X35038500Y-42291900D01*
X63485000Y-49268500D02*
X63308500Y-49445000D01*
X63485000Y-48630000D02*
X63485000Y-49268500D01*
X33279700Y-51379600D02*
X32524300Y-52135000D01*
X33279700Y-47764200D02*
X33279700Y-51379600D01*
X42083300Y-46830300D02*
X42060200Y-46853400D01*
X42083300Y-44370000D02*
X42083300Y-46830300D01*
%TO.N,Net-(D46-A)*%
X38715000Y-44370000D02*
X38033300Y-44370000D01*
X38793300Y-46444100D02*
X39766300Y-46444100D01*
X38033300Y-45684100D02*
X38793300Y-46444100D01*
X38033300Y-44370000D02*
X38033300Y-45684100D01*
X61755100Y-44928500D02*
X61755100Y-44774100D01*
X63485000Y-46658400D02*
X61755100Y-44928500D01*
X63485000Y-46880000D02*
X63485000Y-46658400D01*
%TO.N,Net-(D45-A)*%
X34359900Y-46060700D02*
X36661100Y-46060700D01*
X33983300Y-45684100D02*
X34359900Y-46060700D01*
X33983300Y-44370000D02*
X33983300Y-45684100D01*
X33769700Y-41062000D02*
X33769700Y-42873500D01*
X34665000Y-44370000D02*
X33983300Y-44370000D01*
X29551600Y-50063300D02*
X30296100Y-50807800D01*
X29551600Y-46278400D02*
X29551600Y-50063300D01*
X64070600Y-45715600D02*
X64070600Y-46312700D01*
X63485000Y-45130000D02*
X64070600Y-45715600D01*
%TO.N,Net-(D44-A)*%
X30615000Y-44370000D02*
X29933300Y-44370000D01*
X29933300Y-44480300D02*
X29533900Y-44879700D01*
X29933300Y-44370000D02*
X29933300Y-44480300D01*
X62632600Y-44415100D02*
X62517600Y-44415100D01*
X63485000Y-43562700D02*
X62632600Y-44415100D01*
X63485000Y-43380000D02*
X63485000Y-43562700D01*
%TO.N,Net-(D43-A)*%
X63485000Y-41630000D02*
X63485000Y-42682000D01*
X26565000Y-44370000D02*
X25883300Y-44370000D01*
X25883300Y-46106800D02*
X25208900Y-46781200D01*
X25883300Y-44370000D02*
X25883300Y-46106800D01*
%TO.N,Net-(D42-A)*%
X21265900Y-44937400D02*
X21265900Y-51964200D01*
X21833300Y-44370000D02*
X21265900Y-44937400D01*
X22515000Y-44370000D02*
X21833300Y-44370000D01*
X63812500Y-40207500D02*
X64506200Y-40207500D01*
X63485000Y-39880000D02*
X63812500Y-40207500D01*
X61550200Y-57444000D02*
X61322500Y-57216300D01*
X66858200Y-57444000D02*
X61550200Y-57444000D01*
X68348600Y-55953600D02*
X66858200Y-57444000D01*
X68348600Y-52388200D02*
X68348600Y-55953600D01*
X67608700Y-51648300D02*
X68348600Y-52388200D01*
X67608700Y-50550100D02*
X67608700Y-51648300D01*
X67858800Y-50300000D02*
X67608700Y-50550100D01*
X67858800Y-43207400D02*
X67858800Y-50300000D01*
X66498900Y-41847500D02*
X67858800Y-43207400D01*
X66498900Y-40690400D02*
X66498900Y-41847500D01*
%TO.N,Net-(D41-A)*%
X63485000Y-38281700D02*
X63485000Y-38130000D01*
X62649300Y-39117400D02*
X63485000Y-38281700D01*
X62598200Y-39117400D02*
X62649300Y-39117400D01*
X46815000Y-40160000D02*
X46133300Y-40160000D01*
X46133300Y-40160000D02*
X46133300Y-42273100D01*
%TO.N,Net-(D40-A)*%
X63485000Y-36240100D02*
X63485000Y-36380000D01*
X65174800Y-34550300D02*
X63485000Y-36240100D01*
X42765000Y-40160000D02*
X42083300Y-40160000D01*
X56977200Y-54840000D02*
X56977200Y-57148500D01*
X39494400Y-54674200D02*
X39494400Y-54806500D01*
X38155500Y-53335300D02*
X39494400Y-54674200D01*
X38155500Y-51926600D02*
X38155500Y-53335300D01*
X38524400Y-51557700D02*
X38155500Y-51926600D01*
X39941900Y-51557700D02*
X38524400Y-51557700D01*
X41478400Y-50021200D02*
X39941900Y-51557700D01*
X41478400Y-40764900D02*
X41478400Y-50021200D01*
X42083300Y-40160000D02*
X41478400Y-40764900D01*
%TO.N,Net-(D39-A)*%
X33374300Y-36911000D02*
X33374300Y-36677100D01*
X32338000Y-37947300D02*
X33374300Y-36911000D01*
X31797300Y-37947300D02*
X32338000Y-37947300D01*
X38715000Y-40160000D02*
X38033300Y-40160000D01*
X37982000Y-40160000D02*
X37798800Y-40343200D01*
X38033300Y-40160000D02*
X37982000Y-40160000D01*
X24016500Y-46573600D02*
X23185900Y-46573600D01*
X25284500Y-45305600D02*
X24016500Y-46573600D01*
X25284500Y-43585400D02*
X25284500Y-45305600D01*
X61961100Y-54253000D02*
X61193800Y-54253000D01*
X62290100Y-53924000D02*
X61961100Y-54253000D01*
X62290100Y-53420900D02*
X62290100Y-53924000D01*
X59590700Y-50721500D02*
X62290100Y-53420900D01*
X59590700Y-48654000D02*
X59590700Y-50721500D01*
X60097600Y-48147100D02*
X59590700Y-48654000D01*
X60712900Y-48147100D02*
X60097600Y-48147100D01*
X61035000Y-48469200D02*
X60712900Y-48147100D01*
X61035000Y-48630000D02*
X61035000Y-48469200D01*
%TO.N,Net-(D38-A)*%
X34665000Y-40160000D02*
X33983300Y-40160000D01*
X61035000Y-46639300D02*
X61035000Y-46880000D01*
X60483900Y-46088200D02*
X61035000Y-46639300D01*
X31053700Y-42061700D02*
X31053700Y-42061800D01*
X32405400Y-42061700D02*
X31053700Y-42061700D01*
X33188000Y-41279100D02*
X32405400Y-42061700D01*
X33188000Y-40821100D02*
X33188000Y-41279100D01*
X33849100Y-40160000D02*
X33188000Y-40821100D01*
X33983300Y-40160000D02*
X33849100Y-40160000D01*
%TO.N,Net-(D37-A)*%
X30615000Y-40160000D02*
X29933300Y-40160000D01*
X29933300Y-40160000D02*
X29933300Y-42664000D01*
X61265700Y-45360700D02*
X61265700Y-45947400D01*
X61035000Y-45130000D02*
X61265700Y-45360700D01*
%TO.N,Net-(D36-A)*%
X61035000Y-43380000D02*
X62138900Y-42276100D01*
X26565000Y-40160000D02*
X25883300Y-40160000D01*
X25883300Y-40160000D02*
X25883300Y-42538500D01*
X30775300Y-51436100D02*
X30840000Y-51371400D01*
X30047700Y-51436100D02*
X30775300Y-51436100D01*
X28946700Y-50335100D02*
X30047700Y-51436100D01*
X28946700Y-47046000D02*
X28946700Y-50335100D01*
X28537500Y-46636800D02*
X28946700Y-47046000D01*
%TO.N,Net-(D35-A)*%
X22515000Y-40160000D02*
X21833300Y-40160000D01*
X61035000Y-41630000D02*
X61035000Y-42505000D01*
X22352200Y-42188300D02*
X22366100Y-42174400D01*
X21833300Y-41669400D02*
X22352200Y-42188300D01*
X21833300Y-40160000D02*
X21833300Y-41669400D01*
%TO.N,Net-(D34-A)*%
X46815000Y-35950000D02*
X46133300Y-35950000D01*
X61035000Y-39880000D02*
X61566300Y-40411300D01*
X46133300Y-37254900D02*
X46133300Y-35950000D01*
X46532600Y-37654200D02*
X46133300Y-37254900D01*
X48790400Y-37654200D02*
X46532600Y-37654200D01*
X49204300Y-37240300D02*
X48790400Y-37654200D01*
X49204300Y-32896000D02*
X49204300Y-37240300D01*
X50658300Y-31442000D02*
X49204300Y-32896000D01*
X50849000Y-31442000D02*
X50658300Y-31442000D01*
%TO.N,Net-(D33-A)*%
X41690300Y-36854600D02*
X41690300Y-37332300D01*
X42594900Y-35950000D02*
X41690300Y-36854600D01*
X42765000Y-35950000D02*
X42594900Y-35950000D01*
X68094000Y-36479600D02*
X68209500Y-36364100D01*
X68094000Y-39433400D02*
X68094000Y-36479600D01*
X69661200Y-41000600D02*
X68094000Y-39433400D01*
X69661200Y-48831900D02*
X69661200Y-41000600D01*
X62568700Y-26890900D02*
X62568700Y-28130800D01*
X63678300Y-25781300D02*
X62568700Y-26890900D01*
X54505800Y-27770500D02*
X54505800Y-26700400D01*
X55125500Y-28390200D02*
X54505800Y-27770500D01*
X55125500Y-30998300D02*
X55125500Y-28390200D01*
X54929100Y-31194700D02*
X55125500Y-30998300D01*
X44582700Y-46206200D02*
X44221500Y-46206200D01*
X45545700Y-45243200D02*
X44582700Y-46206200D01*
X45545700Y-43675100D02*
X45545700Y-45243200D01*
X61625600Y-37539400D02*
X61625600Y-37251100D01*
X61035000Y-38130000D02*
X61625600Y-37539400D01*
X43370000Y-54299200D02*
X43370000Y-57583100D01*
X42150500Y-53079700D02*
X43370000Y-54299200D01*
X41096700Y-43081400D02*
X40750700Y-42735400D01*
X41096700Y-49863100D02*
X41096700Y-43081400D01*
X40367100Y-50592700D02*
X41096700Y-49863100D01*
X39521900Y-50592700D02*
X40367100Y-50592700D01*
%TO.N,Net-(D32-A)*%
X38715000Y-35950000D02*
X38033300Y-35950000D01*
X62009000Y-35406000D02*
X62009000Y-35267800D01*
X61035000Y-36380000D02*
X62009000Y-35406000D01*
X37757300Y-35674000D02*
X37757300Y-35011600D01*
X38033300Y-35950000D02*
X37757300Y-35674000D01*
%TO.N,Net-(D31-A)*%
X33983300Y-37322000D02*
X34382700Y-37721400D01*
X33983300Y-35950000D02*
X33983300Y-37322000D01*
X34665000Y-35950000D02*
X33983300Y-35950000D01*
X38623400Y-41801500D02*
X38623400Y-41801400D01*
X38457800Y-41801500D02*
X38623400Y-41801500D01*
X37717900Y-42541400D02*
X38457800Y-41801500D01*
X57925100Y-47800600D02*
X57253200Y-47800600D01*
X58585000Y-48460500D02*
X57925100Y-47800600D01*
X58585000Y-48630000D02*
X58585000Y-48460500D01*
%TO.N,Net-(D30-A)*%
X30615000Y-35950000D02*
X29933300Y-35950000D01*
X29933300Y-34682400D02*
X30855200Y-33760500D01*
X29933300Y-35950000D02*
X29933300Y-34682400D01*
X57208000Y-46929700D02*
X57208000Y-45616000D01*
X57662700Y-47384400D02*
X57208000Y-46929700D01*
X58237100Y-47384400D02*
X57662700Y-47384400D01*
X58585000Y-47036500D02*
X58237100Y-47384400D01*
X58585000Y-46880000D02*
X58585000Y-47036500D01*
%TO.N,Net-(D29-A)*%
X25883300Y-37230900D02*
X25883300Y-35950000D01*
X26988700Y-38336300D02*
X25883300Y-37230900D01*
X27491200Y-38336300D02*
X26988700Y-38336300D01*
X26565000Y-35950000D02*
X25883300Y-35950000D01*
X59119400Y-47553900D02*
X58818700Y-47854600D01*
X59119400Y-45664400D02*
X59119400Y-47553900D01*
X58585000Y-45130000D02*
X59119400Y-45664400D01*
%TO.N,Net-(D28-A)*%
X22515000Y-35950000D02*
X21833300Y-35950000D01*
X21374700Y-36408600D02*
X21374700Y-43908200D01*
X21833300Y-35950000D02*
X21374700Y-36408600D01*
X59169900Y-54573400D02*
X59014000Y-54729300D01*
X59169900Y-48456300D02*
X59169900Y-54573400D01*
X59520500Y-48105700D02*
X59169900Y-48456300D01*
X59520500Y-45209900D02*
X59520500Y-48105700D01*
X58585000Y-44274400D02*
X59520500Y-45209900D01*
X58585000Y-43380000D02*
X58585000Y-44274400D01*
%TO.N,Net-(D27-A)*%
X59167600Y-41047400D02*
X59167600Y-40894300D01*
X58585000Y-41630000D02*
X59167600Y-41047400D01*
X46087100Y-31740000D02*
X45931400Y-31584300D01*
X46815000Y-31740000D02*
X46087100Y-31740000D01*
%TO.N,Net-(D26-A)*%
X58585000Y-39704000D02*
X58585000Y-39880000D01*
X57517400Y-38636400D02*
X58585000Y-39704000D01*
X57163400Y-38636400D02*
X57517400Y-38636400D01*
X42765000Y-31740000D02*
X42083300Y-31740000D01*
X42433500Y-33386200D02*
X46102400Y-33386200D01*
X42083300Y-33036000D02*
X42433500Y-33386200D01*
X42083300Y-31740000D02*
X42083300Y-33036000D01*
%TO.N,Net-(D25-A)*%
X38715000Y-31740000D02*
X38033300Y-31740000D01*
X41969000Y-28687500D02*
X41882800Y-28601300D01*
X41969000Y-31102100D02*
X41969000Y-28687500D01*
X41587300Y-31483800D02*
X41969000Y-31102100D01*
X41587300Y-32520700D02*
X41587300Y-31483800D01*
X40733500Y-33374500D02*
X41587300Y-32520700D01*
X38347900Y-33374500D02*
X40733500Y-33374500D01*
X38033300Y-33059900D02*
X38347900Y-33374500D01*
X38033300Y-31740000D02*
X38033300Y-33059900D01*
X59681100Y-37033900D02*
X59681100Y-36957600D01*
X58585000Y-38130000D02*
X59681100Y-37033900D01*
%TO.N,Net-(D24-A)*%
X34665000Y-31740000D02*
X33983300Y-31740000D01*
X37622200Y-28280100D02*
X37622200Y-25335000D01*
X36291100Y-29611200D02*
X37622200Y-28280100D01*
X34809300Y-29611200D02*
X36291100Y-29611200D01*
X33983300Y-30437200D02*
X34809300Y-29611200D01*
X33983300Y-31740000D02*
X33983300Y-30437200D01*
X59776200Y-35188800D02*
X58585000Y-36380000D01*
X60139600Y-35188800D02*
X59776200Y-35188800D01*
%TO.N,Net-(D23-A)*%
X30615000Y-31740000D02*
X29933300Y-31740000D01*
X29543300Y-33553200D02*
X29543300Y-39720600D01*
X29933300Y-33163200D02*
X29543300Y-33553200D01*
X29933300Y-31740000D02*
X29933300Y-33163200D01*
X56135000Y-49149700D02*
X55970600Y-49314100D01*
X56135000Y-48630000D02*
X56135000Y-49149700D01*
%TO.N,Net-(D22-A)*%
X26565000Y-31740000D02*
X25883300Y-31740000D01*
X56563300Y-46451700D02*
X56563300Y-46226800D01*
X56135000Y-46880000D02*
X56563300Y-46451700D01*
X25883300Y-33046600D02*
X25883300Y-31740000D01*
X26199900Y-33363200D02*
X25883300Y-33046600D01*
X28910600Y-33363200D02*
X26199900Y-33363200D01*
X29073700Y-33200100D02*
X28910600Y-33363200D01*
%TO.N,Net-(D21-A)*%
X22515000Y-31740000D02*
X21833300Y-31740000D01*
X21833300Y-31740000D02*
X21833300Y-34386700D01*
X54789200Y-46609300D02*
X54789200Y-53617800D01*
X56135000Y-45263500D02*
X54789200Y-46609300D01*
X56135000Y-45130000D02*
X56135000Y-45263500D01*
%TO.N,Net-(D20-A)*%
X46815000Y-27530000D02*
X46133300Y-27530000D01*
X45896400Y-27293100D02*
X45896400Y-27230100D01*
X46133300Y-27530000D02*
X45896400Y-27293100D01*
X56135000Y-43380000D02*
X56135000Y-44353700D01*
X45116400Y-25341000D02*
X45812800Y-26037400D01*
X45116400Y-24859200D02*
X45116400Y-25341000D01*
X45179600Y-24796000D02*
X45116400Y-24859200D01*
X45179600Y-22079400D02*
X45179600Y-24796000D01*
X44582000Y-21481800D02*
X45179600Y-22079400D01*
X44188300Y-21481800D02*
X44582000Y-21481800D01*
%TO.N,Net-(D19-A)*%
X56069500Y-41564500D02*
X56069500Y-40927200D01*
X56135000Y-41630000D02*
X56069500Y-41564500D01*
X42765000Y-27530000D02*
X42083300Y-27530000D01*
X40987900Y-29764100D02*
X41387300Y-29364700D01*
X40668100Y-29764100D02*
X40987900Y-29764100D01*
X41888900Y-27530000D02*
X41794000Y-27435100D01*
X42083300Y-27530000D02*
X41888900Y-27530000D01*
%TO.N,Net-(D18-A)*%
X38715000Y-27530000D02*
X38033300Y-27530000D01*
X56566400Y-40311400D02*
X56795000Y-40311400D01*
X56135000Y-39880000D02*
X56566400Y-40311400D01*
X38033300Y-28838000D02*
X39067300Y-29872000D01*
X38033300Y-27530000D02*
X38033300Y-28838000D01*
%TO.N,Net-(D17-A)*%
X34665000Y-27530000D02*
X33983300Y-27530000D01*
X32329000Y-25551900D02*
X31389000Y-25551900D01*
X33983300Y-27206200D02*
X32329000Y-25551900D01*
X33983300Y-27530000D02*
X33983300Y-27206200D01*
X57583500Y-33901700D02*
X58370300Y-33114900D01*
X57583500Y-35868600D02*
X57583500Y-33901700D01*
X56242700Y-37209400D02*
X57583500Y-35868600D01*
X56242700Y-38022300D02*
X56242700Y-37209400D01*
X56135000Y-38130000D02*
X56242700Y-38022300D01*
%TO.N,Net-(D16-A)*%
X30615000Y-27530000D02*
X29933300Y-27530000D01*
X29933300Y-28818800D02*
X29933300Y-27530000D01*
X30396100Y-29281600D02*
X29933300Y-28818800D01*
X32953300Y-29281600D02*
X30396100Y-29281600D01*
X33456400Y-29784700D02*
X32953300Y-29281600D01*
X56135000Y-36380000D02*
X56135000Y-35683200D01*
%TO.N,Net-(D15-A)*%
X26565000Y-27530000D02*
X25883300Y-27530000D01*
X22847400Y-29901000D02*
X22680200Y-30068200D01*
X23836100Y-29901000D02*
X22847400Y-29901000D01*
X25883300Y-27853800D02*
X23836100Y-29901000D01*
X25883300Y-27530000D02*
X25883300Y-27853800D01*
X53680100Y-48634900D02*
X53680100Y-57148500D01*
X53685000Y-48630000D02*
X53680100Y-48634900D01*
%TO.N,Net-(D14-A)*%
X22515000Y-27530000D02*
X21833300Y-27530000D01*
X20636100Y-28727200D02*
X20636100Y-64679600D01*
X21833300Y-27530000D02*
X20636100Y-28727200D01*
X53685000Y-47203900D02*
X53685000Y-46880000D01*
X52492200Y-48396700D02*
X53685000Y-47203900D01*
X52492200Y-51993500D02*
X52492200Y-48396700D01*
X52566000Y-52067300D02*
X52492200Y-51993500D01*
X52566000Y-56387000D02*
X52566000Y-52067300D01*
X52088300Y-56864700D02*
X52566000Y-56387000D01*
X52088300Y-64431500D02*
X52088300Y-56864700D01*
%TO.N,Net-(D13-A)*%
X46815000Y-23320000D02*
X46133300Y-23320000D01*
X37181500Y-37597400D02*
X37650800Y-37128100D01*
X35329400Y-37597400D02*
X37181500Y-37597400D01*
X34623700Y-38303100D02*
X35329400Y-37597400D01*
X34141800Y-38303100D02*
X34623700Y-38303100D01*
X33937800Y-38099100D02*
X34141800Y-38303100D01*
X33149800Y-38099100D02*
X33937800Y-38099100D01*
X53352600Y-44539400D02*
X52537500Y-44539400D01*
X53685000Y-44871800D02*
X53352600Y-44539400D01*
X53685000Y-45130000D02*
X53685000Y-44871800D01*
X46133300Y-23320000D02*
X46133300Y-20756300D01*
%TO.N,Net-(D10-A)*%
X34665000Y-23320000D02*
X33983300Y-23320000D01*
X33983300Y-25466200D02*
X34398000Y-25880900D01*
X33983300Y-23320000D02*
X33983300Y-25466200D01*
X53685000Y-39880000D02*
X53685000Y-40563600D01*
%TO.N,Net-(U15-Pad4)*%
X66966200Y-33280000D02*
X66577500Y-33280000D01*
X67526500Y-32719700D02*
X66966200Y-33280000D01*
X67526500Y-31323900D02*
X67526500Y-32719700D01*
X67405500Y-31202900D02*
X67526500Y-31323900D01*
X67405500Y-30404900D02*
X67405500Y-31202900D01*
X68205400Y-29605000D02*
X67405500Y-30404900D01*
X68852500Y-29605000D02*
X68205400Y-29605000D01*
%TO.N,Net-(U13-Pad4)*%
X68852500Y-20805000D02*
X68852500Y-20355000D01*
X66577500Y-23080000D02*
X68852500Y-20805000D01*
%TO.N,Net-(U12-Pad2)*%
X60476700Y-31847200D02*
X61900600Y-30423300D01*
X60476700Y-32653200D02*
X60476700Y-31847200D01*
X61103500Y-33280000D02*
X60476700Y-32653200D01*
X61427500Y-33280000D02*
X61103500Y-33280000D01*
X65591800Y-26382000D02*
X65200600Y-26773200D01*
X67450500Y-26382000D02*
X65591800Y-26382000D01*
X68852500Y-24980000D02*
X67450500Y-26382000D01*
%TO.N,Net-(U6-Pad1)*%
X56992200Y-23080000D02*
X57417700Y-22654500D01*
X56277500Y-23080000D02*
X56992200Y-23080000D01*
X57604800Y-28657300D02*
X57604800Y-26150600D01*
X58552500Y-29605000D02*
X57604800Y-28657300D01*
%TO.N,Net-(U11-Pad4)*%
X56460800Y-23846700D02*
X57440600Y-23846700D01*
X56277500Y-24030000D02*
X56460800Y-23846700D01*
X63702500Y-29605000D02*
X63702500Y-28521100D01*
%TO.N,Net-(U13-Pad2)*%
X59393800Y-21298300D02*
X60260900Y-20431200D01*
X59393800Y-22637600D02*
X59393800Y-21298300D01*
X59498000Y-22741800D02*
X59393800Y-22637600D01*
X59498000Y-24034500D02*
X59498000Y-22741800D01*
X58552500Y-24980000D02*
X59498000Y-24034500D01*
X65922300Y-19405000D02*
X64896100Y-20431200D01*
X66577500Y-19405000D02*
X65922300Y-19405000D01*
%TO.N,Net-(U15-Pad1)*%
X65916600Y-27705000D02*
X65221000Y-28400600D01*
X66577500Y-27705000D02*
X65916600Y-27705000D01*
X58552500Y-22033700D02*
X58288900Y-22297300D01*
X58552500Y-20355000D02*
X58552500Y-22033700D01*
%TO.N,Net-(U4-Pad4)*%
X55937600Y-32330000D02*
X56277500Y-32330000D01*
X54685500Y-33582100D02*
X55937600Y-32330000D01*
X54685500Y-33645600D02*
X54685500Y-33582100D01*
X54101100Y-34230000D02*
X54685500Y-33645600D01*
X53402500Y-34230000D02*
X54101100Y-34230000D01*
%TO.N,Net-(U3-Pad4)*%
X52072300Y-30935200D02*
X53402500Y-29605000D01*
X52072300Y-32659100D02*
X52072300Y-30935200D01*
X51451400Y-33280000D02*
X52072300Y-32659100D01*
X51127500Y-33280000D02*
X51451400Y-33280000D01*
%TO.N,Net-(U2-Pad4)*%
X53402500Y-25100700D02*
X53402500Y-24980000D01*
X52369900Y-26133300D02*
X53402500Y-25100700D01*
X52369900Y-27745000D02*
X52369900Y-26133300D01*
X51459900Y-28655000D02*
X52369900Y-27745000D01*
X51127500Y-28655000D02*
X51459900Y-28655000D01*
%TO.N,Net-(U1-Pad1)*%
X62771300Y-24048800D02*
X62771300Y-23845200D01*
X63702500Y-24980000D02*
X62771300Y-24048800D01*
X49939200Y-19316600D02*
X49939200Y-19927800D01*
X50800800Y-18455000D02*
X49939200Y-19316600D01*
X51127500Y-18455000D02*
X50800800Y-18455000D01*
%TO.N,Net-(U1-Pad2)*%
X52115400Y-19405000D02*
X52272700Y-19562300D01*
X51127500Y-19405000D02*
X52115400Y-19405000D01*
X63536500Y-20189000D02*
X63536500Y-19562300D01*
X63702500Y-20355000D02*
X63536500Y-20189000D01*
%TO.N,Net-(D9-A)*%
X32807800Y-24931700D02*
X33353700Y-24385800D01*
X30277700Y-24931700D02*
X32807800Y-24931700D01*
X29933300Y-24587300D02*
X30277700Y-24931700D01*
X29933300Y-23320000D02*
X29933300Y-24587300D01*
X30615000Y-23320000D02*
X29933300Y-23320000D01*
X52489800Y-39641500D02*
X52489800Y-40766800D01*
X53656000Y-38475300D02*
X52489800Y-39641500D01*
X53656000Y-38159000D02*
X53656000Y-38475300D01*
X53685000Y-38130000D02*
X53656000Y-38159000D01*
%TO.N,Net-(D8-A)*%
X26721600Y-25425000D02*
X27763800Y-25425000D01*
X25883300Y-24586700D02*
X26721600Y-25425000D01*
X25883300Y-23320000D02*
X25883300Y-24586700D01*
X26565000Y-23320000D02*
X25883300Y-23320000D01*
X53053700Y-37141700D02*
X53006000Y-37141700D01*
X53685000Y-36510400D02*
X53053700Y-37141700D01*
X53685000Y-36380000D02*
X53685000Y-36510400D01*
X42588600Y-38087400D02*
X42040000Y-38636000D01*
X48897000Y-38087400D02*
X42588600Y-38087400D01*
X49834500Y-37149900D02*
X48897000Y-38087400D01*
X49834500Y-36810200D02*
X49834500Y-37149900D01*
X33299200Y-33082800D02*
X33685700Y-33469300D01*
X33299200Y-30765600D02*
X33299200Y-33082800D01*
X32349200Y-29815600D02*
X33299200Y-30765600D01*
X29350000Y-29815600D02*
X32349200Y-29815600D01*
%TO.N,Net-(D7-A)*%
X22515000Y-23320000D02*
X21833300Y-23320000D01*
X21833300Y-26690500D02*
X21437200Y-27086600D01*
X21833300Y-23320000D02*
X21833300Y-26690500D01*
X51235000Y-48630000D02*
X51235000Y-47888700D01*
%TO.N,Net-(D6-A)*%
X46815000Y-19110000D02*
X46133300Y-19110000D01*
X52678300Y-64664200D02*
X52678300Y-61741200D01*
X52329300Y-65013200D02*
X52678300Y-64664200D01*
X51847400Y-65013200D02*
X52329300Y-65013200D01*
X50025900Y-63191700D02*
X51847400Y-65013200D01*
X50025900Y-46664900D02*
X50025900Y-63191700D01*
X50319300Y-46371500D02*
X50025900Y-46664900D01*
X50897800Y-46371500D02*
X50319300Y-46371500D01*
X51235000Y-46708700D02*
X50897800Y-46371500D01*
X51235000Y-46880000D02*
X51235000Y-46708700D01*
X46133300Y-19094700D02*
X45915400Y-18876800D01*
X46133300Y-19110000D02*
X46133300Y-19094700D01*
%TO.N,Net-(D5-A)*%
X42765000Y-19110000D02*
X42083300Y-19110000D01*
X49874400Y-45042700D02*
X49874400Y-45149800D01*
X50278100Y-44639000D02*
X49874400Y-45042700D01*
X50911700Y-44639000D02*
X50278100Y-44639000D01*
X51235000Y-44962300D02*
X50911700Y-44639000D01*
X51235000Y-45130000D02*
X51235000Y-44962300D01*
X42083300Y-20381800D02*
X41941400Y-20523700D01*
X42083300Y-19110000D02*
X42083300Y-20381800D01*
%TO.N,Net-(D4-A)*%
X38715000Y-19110000D02*
X38033300Y-19110000D01*
X38033300Y-19110000D02*
X38033300Y-21668500D01*
X49382500Y-42952000D02*
X49382500Y-42348400D01*
X50292600Y-43862100D02*
X49382500Y-42952000D01*
X50915600Y-43862100D02*
X50292600Y-43862100D01*
X51235000Y-43542700D02*
X50915600Y-43862100D01*
X51235000Y-43380000D02*
X51235000Y-43542700D01*
%TO.N,Net-(D3-A)*%
X34665000Y-19110000D02*
X33983300Y-19110000D01*
X33983300Y-22479500D02*
X33731700Y-22731100D01*
X33983300Y-19110000D02*
X33983300Y-22479500D01*
X49818400Y-41620200D02*
X49818400Y-41647200D01*
X50339600Y-41099000D02*
X49818400Y-41620200D01*
X50937100Y-41099000D02*
X50339600Y-41099000D01*
X51235000Y-41396900D02*
X50937100Y-41099000D01*
X51235000Y-41630000D02*
X51235000Y-41396900D01*
%TO.N,Net-(D2-A)*%
X30615000Y-19110000D02*
X29933300Y-19110000D01*
X32996700Y-23101800D02*
X33396300Y-23501400D01*
X32996700Y-22053300D02*
X32996700Y-23101800D01*
X32060400Y-21117000D02*
X32996700Y-22053300D01*
X30615900Y-21117000D02*
X32060400Y-21117000D01*
X29933300Y-20434400D02*
X30615900Y-21117000D01*
X29933300Y-19110000D02*
X29933300Y-20434400D01*
X48742300Y-41889300D02*
X48704700Y-41889300D01*
X49325900Y-41305700D02*
X48742300Y-41889300D01*
X49325900Y-40356400D02*
X49325900Y-41305700D01*
X50320600Y-39361700D02*
X49325900Y-40356400D01*
X50858600Y-39361700D02*
X50320600Y-39361700D01*
X51235000Y-39738100D02*
X50858600Y-39361700D01*
X51235000Y-39880000D02*
X51235000Y-39738100D01*
%TO.N,Net-(D11-A)*%
X38715000Y-23320000D02*
X38033300Y-23320000D01*
X54102300Y-41212700D02*
X54333800Y-41212700D01*
X53685000Y-41630000D02*
X54102300Y-41212700D01*
X37814600Y-23101300D02*
X37814600Y-22832000D01*
X38033300Y-23320000D02*
X37814600Y-23101300D01*
%TO.N,Net-(D12-A)*%
X42765000Y-23320000D02*
X42083300Y-23320000D01*
X54949000Y-42116000D02*
X53685000Y-43380000D01*
X54949000Y-40652400D02*
X54949000Y-42116000D01*
X42083300Y-23320000D02*
X42083300Y-25434400D01*
%TO.N,Net-(D1-A)*%
X26565000Y-19110000D02*
X25883300Y-19110000D01*
X26740000Y-21301100D02*
X27104200Y-21301100D01*
X25883300Y-20444400D02*
X26740000Y-21301100D01*
X25883300Y-19110000D02*
X25883300Y-20444400D01*
X51235000Y-38130000D02*
X51235000Y-37421000D01*
X49379600Y-28617600D02*
X49379600Y-25826300D01*
X49028000Y-28969200D02*
X49379600Y-28617600D01*
X48809800Y-28969200D02*
X49028000Y-28969200D01*
X47832600Y-29946400D02*
X48809800Y-28969200D01*
X47137800Y-29946400D02*
X47832600Y-29946400D01*
%TO.N,Net-(D0-A)*%
X53204100Y-17479200D02*
X53204100Y-16310700D01*
X22515000Y-19110000D02*
X21833300Y-19110000D01*
X21833300Y-19110000D02*
X21833300Y-16369100D01*
X51235000Y-36380000D02*
X51235000Y-35569300D01*
X49983000Y-26654100D02*
X50871400Y-25765700D01*
X49983000Y-28632600D02*
X49983000Y-26654100D01*
X49064700Y-29550900D02*
X49983000Y-28632600D01*
%TO.N,GND*%
X30860000Y-43470000D02*
X31296700Y-43470000D01*
X27415000Y-43540000D02*
X27415000Y-43149100D01*
X27415000Y-43301700D02*
X27246700Y-43470000D01*
X27415000Y-43149100D02*
X27415000Y-43301700D01*
X22515000Y-47680000D02*
X23196700Y-47680000D01*
X35515000Y-47511700D02*
X35346700Y-47680000D01*
X35515000Y-46968300D02*
X35515000Y-47511700D01*
X35515000Y-47750000D02*
X35515000Y-46968300D01*
X34665000Y-47680000D02*
X35346700Y-47680000D01*
X39565000Y-18280000D02*
X39565000Y-17770000D01*
X39565000Y-18041700D02*
X39396700Y-18210000D01*
X39565000Y-17770000D02*
X39565000Y-18041700D01*
X22515000Y-43470000D02*
X23196700Y-43470000D01*
X23365000Y-43540000D02*
X23365000Y-43149100D01*
X23365000Y-43301700D02*
X23196700Y-43470000D01*
X23365000Y-43149100D02*
X23365000Y-43301700D01*
X27415000Y-47511700D02*
X27246700Y-47680000D01*
X27415000Y-46968300D02*
X27415000Y-47511700D01*
X27415000Y-47750000D02*
X27415000Y-46968300D01*
X26565000Y-47680000D02*
X27246700Y-47680000D01*
X43615000Y-47511700D02*
X43446700Y-47680000D01*
X43615000Y-46968300D02*
X43615000Y-47511700D01*
X43615000Y-47750000D02*
X43615000Y-46968300D01*
X42765000Y-47680000D02*
X43446700Y-47680000D01*
X46900000Y-43470000D02*
X47496700Y-43470000D01*
X22515000Y-35050000D02*
X23196700Y-35050000D01*
X31465000Y-47750000D02*
X31465000Y-47240000D01*
X31465000Y-47511700D02*
X31296700Y-47680000D01*
X31465000Y-47240000D02*
X31465000Y-47511700D01*
X23365000Y-18280000D02*
X23365000Y-17889100D01*
X23365000Y-18041700D02*
X23196700Y-18210000D01*
X23365000Y-17889100D02*
X23365000Y-18041700D01*
X23365000Y-22490000D02*
X23365000Y-22099100D01*
X23365000Y-22251700D02*
X23196700Y-22420000D01*
X23365000Y-22099100D02*
X23365000Y-22251700D01*
X26810000Y-22420000D02*
X27246700Y-22420000D01*
X26565000Y-18210000D02*
X25883300Y-18210000D01*
X47155900Y-18210000D02*
X47496700Y-18210000D01*
X47155900Y-18210000D02*
X46815000Y-18210000D01*
X39565000Y-22490000D02*
X39565000Y-22099100D01*
X39565000Y-22251700D02*
X39396700Y-22420000D01*
X39565000Y-22099100D02*
X39565000Y-22251700D01*
X27415000Y-26461700D02*
X27246700Y-26630000D01*
X27415000Y-25918300D02*
X27415000Y-26461700D01*
X27415000Y-26700000D02*
X27415000Y-25918300D01*
X26810000Y-26630000D02*
X27246700Y-26630000D01*
X26810000Y-22420000D02*
X26565000Y-22420000D01*
X47665000Y-22251700D02*
X47496700Y-22420000D01*
X47665000Y-21708300D02*
X47665000Y-22251700D01*
X47665000Y-22490000D02*
X47665000Y-21708300D01*
X47566700Y-26700000D02*
X47496700Y-26630000D01*
X47665000Y-26700000D02*
X47566700Y-26700000D01*
X26565000Y-18210000D02*
X27246700Y-18210000D01*
X26810000Y-26630000D02*
X26565000Y-26630000D01*
X42765000Y-18210000D02*
X43446700Y-18210000D01*
X23365000Y-26700000D02*
X23365000Y-26309100D01*
X23365000Y-26461700D02*
X23196700Y-26630000D01*
X23365000Y-26309100D02*
X23365000Y-26461700D01*
X27415000Y-30671700D02*
X27246700Y-30840000D01*
X27415000Y-30128300D02*
X27415000Y-30671700D01*
X27415000Y-30910000D02*
X27415000Y-30128300D01*
X26565000Y-30840000D02*
X27246700Y-30840000D01*
X43615000Y-30671700D02*
X43446700Y-30840000D01*
X43615000Y-30128300D02*
X43615000Y-30671700D01*
X43615000Y-30910000D02*
X43615000Y-30128300D01*
X43010000Y-30840000D02*
X43446700Y-30840000D01*
X26810000Y-39260000D02*
X27246700Y-39260000D01*
X26810000Y-39260000D02*
X26565000Y-39260000D01*
X31465000Y-39091700D02*
X31296700Y-39260000D01*
X31465000Y-38548300D02*
X31465000Y-39091700D01*
X31465000Y-39330000D02*
X31465000Y-38548300D01*
X30615000Y-39260000D02*
X31296700Y-39260000D01*
X26565000Y-35050000D02*
X27246700Y-35050000D01*
X34910000Y-35050000D02*
X35346700Y-35050000D01*
X35416700Y-39330000D02*
X35346700Y-39260000D01*
X35515000Y-39330000D02*
X35416700Y-39330000D01*
X34910000Y-39260000D02*
X35346700Y-39260000D01*
X30860000Y-30840000D02*
X31296700Y-30840000D01*
X34665000Y-30840000D02*
X35346700Y-30840000D01*
X31465000Y-35120000D02*
X31465000Y-34729100D01*
X31465000Y-34729100D02*
X31465000Y-34338300D01*
X31296700Y-34897400D02*
X31296700Y-35050000D01*
X31465000Y-34729100D02*
X31296700Y-34897400D01*
X38715000Y-39260000D02*
X39396700Y-39260000D01*
X47566700Y-30910000D02*
X47496700Y-30840000D01*
X47665000Y-30910000D02*
X47566700Y-30910000D01*
X47155900Y-30840000D02*
X47496700Y-30840000D01*
X47060000Y-35050000D02*
X47496700Y-35050000D01*
X26565000Y-26630000D02*
X25883300Y-26630000D01*
X34910000Y-39260000D02*
X34665000Y-39260000D01*
X23365000Y-47750000D02*
X23365000Y-47240000D01*
X23365000Y-47511700D02*
X23196700Y-47680000D01*
X23365000Y-47240000D02*
X23365000Y-47511700D01*
X34910000Y-22420000D02*
X35346700Y-22420000D01*
X43010000Y-26630000D02*
X43446700Y-26630000D01*
X25884800Y-39260000D02*
X25883300Y-39260000D01*
X25979200Y-39260000D02*
X25884800Y-39260000D01*
X47155900Y-39260000D02*
X47496700Y-39260000D01*
X47665000Y-18280000D02*
X47665000Y-17684100D01*
X47665000Y-18041700D02*
X47496700Y-18210000D01*
X47665000Y-17684100D02*
X47665000Y-18041700D01*
X47060000Y-22420000D02*
X47496700Y-22420000D01*
X47060000Y-22420000D02*
X46815000Y-22420000D01*
X23266700Y-39330000D02*
X23196700Y-39260000D01*
X23365000Y-39330000D02*
X23266700Y-39330000D01*
X31465000Y-26700000D02*
X31465000Y-26309100D01*
X31465000Y-26461700D02*
X31296700Y-26630000D01*
X31465000Y-26309100D02*
X31465000Y-26461700D01*
X43615000Y-22490000D02*
X43615000Y-21894100D01*
X43615000Y-22251700D02*
X43446700Y-22420000D01*
X43615000Y-21894100D02*
X43615000Y-22251700D01*
X47060000Y-26630000D02*
X47496700Y-26630000D01*
X23365000Y-30910000D02*
X23365000Y-30714500D01*
X43010000Y-30840000D02*
X42765000Y-30840000D01*
X22855900Y-26630000D02*
X23196700Y-26630000D01*
X22855900Y-26630000D02*
X22515000Y-26630000D01*
X30615000Y-30840000D02*
X30860000Y-30840000D01*
X22515000Y-30840000D02*
X23196700Y-30840000D01*
X39565000Y-30910000D02*
X39565000Y-30519100D01*
X39565000Y-30671700D02*
X39396700Y-30840000D01*
X39565000Y-30519100D02*
X39565000Y-30671700D01*
X43615000Y-26700000D02*
X43615000Y-26309100D01*
X43615000Y-26461700D02*
X43446700Y-26630000D01*
X43615000Y-26309100D02*
X43615000Y-26461700D01*
X39055900Y-47680000D02*
X39396700Y-47680000D01*
X34910000Y-43470000D02*
X35346700Y-43470000D01*
X34665000Y-39260000D02*
X33983300Y-39260000D01*
X34665000Y-43470000D02*
X34910000Y-43470000D01*
X30615000Y-43470000D02*
X30860000Y-43470000D01*
X38900400Y-43470000D02*
X39396700Y-43470000D01*
X38900400Y-43470000D02*
X38715000Y-43470000D01*
X30615000Y-43470000D02*
X29933300Y-43470000D01*
X39565000Y-26700000D02*
X39565000Y-26309100D01*
X39565000Y-26461700D02*
X39396700Y-26630000D01*
X39565000Y-26309100D02*
X39565000Y-26461700D01*
X30860000Y-35050000D02*
X31296700Y-35050000D01*
X47060000Y-47680000D02*
X47496700Y-47680000D01*
X34910000Y-35050000D02*
X34665000Y-35050000D01*
X31465000Y-30910000D02*
X31465000Y-30519100D01*
X31465000Y-30671700D02*
X31296700Y-30840000D01*
X31465000Y-30519100D02*
X31465000Y-30671700D01*
X30860000Y-47680000D02*
X31296700Y-47680000D01*
X30860000Y-47680000D02*
X30615000Y-47680000D01*
X39565000Y-47511700D02*
X39396700Y-47680000D01*
X39565000Y-47435400D02*
X39565000Y-47511700D01*
X39565000Y-47750000D02*
X39565000Y-47435400D01*
X34665000Y-35050000D02*
X33983300Y-35050000D01*
X35515000Y-18280000D02*
X35515000Y-17679800D01*
X35515000Y-18041700D02*
X35346700Y-18210000D01*
X35515000Y-17679800D02*
X35515000Y-18041700D01*
X27415000Y-22490000D02*
X27415000Y-21894100D01*
X27415000Y-22251700D02*
X27246700Y-22420000D01*
X27415000Y-21894100D02*
X27415000Y-22251700D01*
X35515000Y-34881700D02*
X35346700Y-35050000D01*
X35515000Y-34702900D02*
X35515000Y-34881700D01*
X35515000Y-35120000D02*
X35515000Y-34702900D01*
X35515000Y-39330000D02*
X35515000Y-38548300D01*
X35515000Y-43540000D02*
X35515000Y-42939800D01*
X35515000Y-43301700D02*
X35346700Y-43470000D01*
X35515000Y-42939800D02*
X35515000Y-43301700D01*
X38715000Y-47680000D02*
X39055900Y-47680000D01*
X26565000Y-47680000D02*
X25883300Y-47680000D01*
X38715000Y-47680000D02*
X38033300Y-47680000D01*
X23365000Y-39330000D02*
X23365000Y-38736400D01*
X22515000Y-39260000D02*
X23196700Y-39260000D01*
X27415000Y-35120000D02*
X27415000Y-34519800D01*
X27415000Y-34881700D02*
X27246700Y-35050000D01*
X27415000Y-34519800D02*
X27415000Y-34881700D01*
X30860000Y-35050000D02*
X30615000Y-35050000D01*
X39565000Y-39330000D02*
X39565000Y-39172700D01*
X47595000Y-43470000D02*
X47665000Y-43540000D01*
X47496700Y-43470000D02*
X47595000Y-43470000D01*
X35515000Y-30910000D02*
X35515000Y-30790800D01*
X35496500Y-26480200D02*
X35346700Y-26630000D01*
X35515000Y-26480200D02*
X35496500Y-26480200D01*
X35515000Y-26700000D02*
X35515000Y-26480200D01*
X26565000Y-30840000D02*
X25883300Y-30840000D01*
X23365000Y-34881700D02*
X23196700Y-35050000D01*
X23365000Y-34791800D02*
X23365000Y-34881700D01*
X23365000Y-35120000D02*
X23365000Y-34791800D01*
X38960000Y-26630000D02*
X39396700Y-26630000D01*
X39055900Y-22420000D02*
X39396700Y-22420000D01*
X38715000Y-22420000D02*
X39055900Y-22420000D01*
X39055900Y-18210000D02*
X39396700Y-18210000D01*
X61427500Y-25074100D02*
X61427500Y-24980000D01*
X61333400Y-25074100D02*
X61427500Y-25074100D01*
X61239200Y-25168300D02*
X61333400Y-25074100D01*
X31465000Y-22490000D02*
X31465000Y-21894100D01*
X31465000Y-22251700D02*
X31296700Y-22420000D01*
X31465000Y-21894100D02*
X31465000Y-22251700D01*
X38800000Y-30840000D02*
X38715000Y-30840000D01*
X26650000Y-43470000D02*
X27246700Y-43470000D01*
X26650000Y-43470000D02*
X26565000Y-43470000D01*
X46815000Y-47680000D02*
X47060000Y-47680000D01*
X39565000Y-43301700D02*
X39396700Y-43470000D01*
X39565000Y-43034900D02*
X39565000Y-43301700D01*
X39565000Y-43540000D02*
X39565000Y-43034900D01*
X46900000Y-43470000D02*
X46815000Y-43470000D01*
X43615000Y-43301700D02*
X43446700Y-43470000D01*
X43615000Y-43225400D02*
X43615000Y-43301700D01*
X31366700Y-43540000D02*
X31296700Y-43470000D01*
X31465000Y-43540000D02*
X31366700Y-43540000D01*
X31465000Y-43540000D02*
X31465000Y-42758300D01*
X43545000Y-39260000D02*
X43446700Y-39260000D01*
X43615000Y-39330000D02*
X43545000Y-39260000D01*
X31465000Y-18041700D02*
X31296700Y-18210000D01*
X31465000Y-17777000D02*
X31465000Y-18041700D01*
X31465000Y-18280000D02*
X31465000Y-17777000D01*
X35005900Y-18210000D02*
X35346700Y-18210000D01*
X26565000Y-43470000D02*
X25883300Y-43470000D01*
X35005900Y-18210000D02*
X34665000Y-18210000D01*
X27415000Y-39330000D02*
X27415000Y-38939100D01*
X27415000Y-39091700D02*
X27246700Y-39260000D01*
X27415000Y-38939100D02*
X27415000Y-39091700D01*
X30615000Y-18210000D02*
X31296700Y-18210000D01*
X27415000Y-18280000D02*
X27415000Y-17679800D01*
X27415000Y-18041700D02*
X27246700Y-18210000D01*
X27415000Y-17679800D02*
X27415000Y-18041700D01*
X22915000Y-62860000D02*
X28365000Y-62860000D01*
X34665000Y-43470000D02*
X33983300Y-43470000D01*
X33005900Y-43470000D02*
X33983300Y-43470000D01*
X46815000Y-47680000D02*
X46133300Y-47680000D01*
X43615000Y-43540000D02*
X43615000Y-43382700D01*
X43615000Y-43382700D02*
X43615000Y-43225400D01*
X30615000Y-22420000D02*
X31296700Y-22420000D01*
X39055900Y-18210000D02*
X38715000Y-18210000D01*
X35515000Y-22490000D02*
X35515000Y-22099100D01*
X35515000Y-22251700D02*
X35346700Y-22420000D01*
X35515000Y-22099100D02*
X35515000Y-22251700D01*
X30615000Y-26630000D02*
X30870000Y-26630000D01*
X66965600Y-24980000D02*
X66577500Y-24980000D01*
X67777400Y-24168200D02*
X66965600Y-24980000D01*
X67777400Y-22763600D02*
X67777400Y-24168200D01*
X69797300Y-20743700D02*
X67777400Y-22763600D01*
X69797300Y-19981000D02*
X69797300Y-20743700D01*
X69530900Y-19714600D02*
X69797300Y-19981000D01*
X67806300Y-19714600D02*
X69530900Y-19714600D01*
X67165900Y-20355000D02*
X67806300Y-19714600D01*
X66577500Y-20355000D02*
X67165900Y-20355000D01*
X33815000Y-61752700D02*
X33815000Y-62860000D01*
X35301100Y-60266600D02*
X33815000Y-61752700D01*
X42765000Y-43470000D02*
X43446700Y-43470000D01*
X43010000Y-39260000D02*
X43446700Y-39260000D01*
X47665000Y-39330000D02*
X47665000Y-39053500D01*
X47665000Y-39091700D02*
X47496700Y-39260000D01*
X47665000Y-39053500D02*
X47665000Y-39091700D01*
X34665000Y-18210000D02*
X34079200Y-18210000D01*
X34079200Y-18210000D02*
X33984800Y-18210000D01*
X33984800Y-18210000D02*
X33983300Y-18210000D01*
X38960000Y-26630000D02*
X38715000Y-26630000D01*
X56277500Y-21510400D02*
X56277500Y-20355000D01*
X56139400Y-21648500D02*
X56277500Y-21510400D01*
X43615000Y-18041700D02*
X43446700Y-18210000D01*
X43615000Y-17777000D02*
X43615000Y-18041700D01*
X43615000Y-18280000D02*
X43615000Y-17777000D01*
X46815000Y-18210000D02*
X46133300Y-18210000D01*
X42765000Y-22420000D02*
X43446700Y-22420000D01*
X28950100Y-43470000D02*
X29933300Y-43470000D01*
X42765000Y-26630000D02*
X43010000Y-26630000D01*
X43010000Y-39260000D02*
X42765000Y-39260000D01*
X34910000Y-22420000D02*
X34665000Y-22420000D01*
X38960000Y-35050000D02*
X39396700Y-35050000D01*
X46815000Y-43470000D02*
X46133300Y-43470000D01*
X26565000Y-35050000D02*
X25883300Y-35050000D01*
X34665000Y-47680000D02*
X33983300Y-47680000D01*
X30615000Y-22420000D02*
X29933300Y-22420000D01*
X30615000Y-18210000D02*
X30029200Y-18210000D01*
X30615000Y-30840000D02*
X29933300Y-30840000D01*
X22760000Y-18210000D02*
X23196700Y-18210000D01*
X22760000Y-18210000D02*
X22515000Y-18210000D01*
X22515000Y-22420000D02*
X23196700Y-22420000D01*
X24937500Y-18210000D02*
X25883300Y-18210000D01*
X24937500Y-17811200D02*
X24937500Y-18210000D01*
X24804600Y-17678300D02*
X24937500Y-17811200D01*
X23575800Y-17678300D02*
X24804600Y-17678300D01*
X23365000Y-17889100D02*
X23575800Y-17678300D01*
X23322200Y-30714500D02*
X23196700Y-30840000D01*
X23365000Y-30714500D02*
X23322200Y-30714500D01*
X43615000Y-39330000D02*
X43615000Y-38736400D01*
X34665000Y-26630000D02*
X35100600Y-26630000D01*
X55328500Y-22459400D02*
X56139400Y-21648500D01*
X55328500Y-24380900D02*
X55328500Y-22459400D01*
X55927600Y-24980000D02*
X55328500Y-24380900D01*
X56277500Y-24980000D02*
X55927600Y-24980000D01*
X35346700Y-22322900D02*
X35346700Y-22420000D01*
X35792000Y-21877600D02*
X35346700Y-22322900D01*
X37046700Y-21877600D02*
X35792000Y-21877600D01*
X31574200Y-17667800D02*
X31465000Y-17777000D01*
X33441100Y-17667800D02*
X31574200Y-17667800D01*
X33983300Y-18210000D02*
X33441100Y-17667800D01*
X28950100Y-43094200D02*
X28950100Y-43470000D01*
X28786400Y-42930500D02*
X28950100Y-43094200D01*
X27633600Y-42930500D02*
X28786400Y-42930500D01*
X27415000Y-43149100D02*
X27633600Y-42930500D01*
X30076700Y-62860000D02*
X33815000Y-62860000D01*
X29581400Y-62364700D02*
X30076700Y-62860000D01*
X29086100Y-62860000D02*
X29581400Y-62364700D01*
X28365000Y-62860000D02*
X29086100Y-62860000D01*
X38715000Y-39260000D02*
X38033300Y-39260000D01*
X39565000Y-35120000D02*
X39565000Y-35000800D01*
X39565000Y-39172700D02*
X39484000Y-39172700D01*
X39484000Y-39172700D02*
X39396700Y-39260000D01*
X39445900Y-35000800D02*
X39396700Y-35050000D01*
X39565000Y-35000800D02*
X39445900Y-35000800D01*
X42765000Y-18210000D02*
X42083300Y-18210000D01*
X47665000Y-47750000D02*
X47665000Y-47149800D01*
X47665000Y-47511700D02*
X47496700Y-47680000D01*
X47665000Y-47149800D02*
X47665000Y-47511700D01*
X38960000Y-35050000D02*
X38715000Y-35050000D01*
X35395900Y-30790800D02*
X35346700Y-30840000D01*
X35515000Y-30790800D02*
X35395900Y-30790800D01*
X38715000Y-43470000D02*
X38033300Y-43470000D01*
X47060000Y-35050000D02*
X46815000Y-35050000D01*
X28971300Y-58375400D02*
X28365000Y-58375400D01*
X29581400Y-58985500D02*
X28971300Y-58375400D01*
X29581400Y-62364700D02*
X29581400Y-58985500D01*
X30870000Y-26630000D02*
X31296700Y-26630000D01*
X33005900Y-43111600D02*
X33005900Y-43470000D01*
X32652600Y-42758300D02*
X33005900Y-43111600D01*
X31465000Y-42758300D02*
X32652600Y-42758300D01*
X26565000Y-39260000D02*
X26272100Y-39260000D01*
X26272100Y-39260000D02*
X25979200Y-39260000D01*
X45595200Y-17671900D02*
X46133300Y-18210000D01*
X43720100Y-17671900D02*
X45595200Y-17671900D01*
X43615000Y-17777000D02*
X43720100Y-17671900D01*
X47155900Y-39260000D02*
X46815000Y-39260000D01*
X42850000Y-35050000D02*
X43446700Y-35050000D01*
X25278400Y-47680000D02*
X25883300Y-47680000D01*
X46815000Y-39260000D02*
X46133300Y-39260000D01*
X35179200Y-26630000D02*
X35346700Y-26630000D01*
X35100600Y-26630000D02*
X35179200Y-26630000D01*
X38715000Y-30840000D02*
X38033300Y-30840000D01*
X28365000Y-58375400D02*
X28365000Y-55910000D01*
X38800000Y-30840000D02*
X39098400Y-30840000D01*
X39098400Y-30840000D02*
X39396700Y-30840000D01*
X38715000Y-18210000D02*
X38033300Y-18210000D01*
X37169400Y-17902000D02*
X37169400Y-18210000D01*
X36900400Y-17633000D02*
X37169400Y-17902000D01*
X35561800Y-17633000D02*
X36900400Y-17633000D01*
X35515000Y-17679800D02*
X35561800Y-17633000D01*
X37169400Y-18210000D02*
X38033300Y-18210000D01*
X66577500Y-30418400D02*
X66163200Y-30832700D01*
X66577500Y-29605000D02*
X66577500Y-30418400D01*
X24896800Y-48061600D02*
X25278400Y-47680000D01*
X24896800Y-52891600D02*
X24896800Y-48061600D01*
X22915000Y-54873400D02*
X24896800Y-52891600D01*
X22915000Y-55910000D02*
X22915000Y-54873400D01*
X39091600Y-60322800D02*
X39265000Y-60149400D01*
X35357200Y-60322800D02*
X39091600Y-60322800D01*
X35301100Y-60266600D02*
X35357200Y-60322800D01*
X39265000Y-55910000D02*
X39265000Y-60149400D01*
X42765000Y-39260000D02*
X42083300Y-39260000D01*
X46133300Y-39260000D02*
X45512100Y-39260000D01*
X42765000Y-35050000D02*
X42850000Y-35050000D01*
X42765000Y-35050000D02*
X42083300Y-35050000D01*
X46815000Y-35050000D02*
X46133300Y-35050000D01*
X43565900Y-35050000D02*
X43446700Y-35050000D01*
X43565900Y-35070900D02*
X43565900Y-35050000D01*
X43615000Y-35120000D02*
X43565900Y-35070900D01*
X37046700Y-18332700D02*
X37046700Y-21877600D01*
X37169400Y-18210000D02*
X37046700Y-18332700D01*
X25564100Y-26630000D02*
X25883300Y-26630000D01*
X24937500Y-26003400D02*
X25564100Y-26630000D01*
X23670700Y-26003400D02*
X23365000Y-26309100D01*
X24937500Y-26003400D02*
X23670700Y-26003400D01*
X65871300Y-21061200D02*
X61843800Y-21061200D01*
X66577500Y-20355000D02*
X65871300Y-21061200D01*
X61843800Y-21351100D02*
X61843800Y-21061200D01*
X60464000Y-22730900D02*
X61843800Y-21351100D01*
X60464000Y-24393100D02*
X60464000Y-22730900D01*
X61239200Y-25168300D02*
X60464000Y-24393100D01*
X61843800Y-20771300D02*
X61427500Y-20355000D01*
X61843800Y-21061200D02*
X61843800Y-20771300D01*
X47665000Y-26700000D02*
X47665000Y-25918300D01*
X60439800Y-25967700D02*
X61239200Y-25168300D01*
X60439800Y-28978200D02*
X60439800Y-25967700D01*
X61066600Y-29605000D02*
X60439800Y-28978200D01*
X61427500Y-29605000D02*
X61066600Y-29605000D01*
X27416500Y-17678300D02*
X27415000Y-17679800D01*
X28783700Y-17678300D02*
X27416500Y-17678300D01*
X29624400Y-18518900D02*
X28783700Y-17678300D01*
X29933300Y-18210000D02*
X29624400Y-18518900D01*
X30029200Y-18210000D02*
X29933300Y-18210000D01*
X51127500Y-20355000D02*
X52408500Y-21636000D01*
X41542600Y-17669300D02*
X42083300Y-18210000D01*
X39665700Y-17669300D02*
X41542600Y-17669300D01*
X39565000Y-17770000D02*
X39665700Y-17669300D01*
X51462200Y-34230000D02*
X51127500Y-34230000D01*
X51792900Y-33899300D02*
X51462200Y-34230000D01*
X47665000Y-21708300D02*
X49246900Y-21708300D01*
X49819800Y-21135400D02*
X49819800Y-20692500D01*
X49246900Y-21708300D02*
X49819800Y-21135400D01*
X50790000Y-20692500D02*
X49819800Y-20692500D01*
X51127500Y-20355000D02*
X50790000Y-20692500D01*
X47670800Y-17678300D02*
X47665000Y-17684100D01*
X49043400Y-17678300D02*
X47670800Y-17678300D01*
X49232100Y-17867000D02*
X49043400Y-17678300D01*
X49232100Y-20104800D02*
X49232100Y-17867000D01*
X49819800Y-20692500D02*
X49232100Y-20104800D01*
X29367900Y-18775400D02*
X29367900Y-21854600D01*
X29624400Y-18518900D02*
X29367900Y-18775400D01*
X29933300Y-22420000D02*
X29367900Y-21854600D01*
X47665000Y-34881700D02*
X47496700Y-35050000D01*
X47665000Y-34700700D02*
X47665000Y-34881700D01*
X47665000Y-35120000D02*
X47665000Y-34700700D01*
X33405300Y-38682000D02*
X33983300Y-39260000D01*
X32605600Y-38682000D02*
X33405300Y-38682000D01*
X32471900Y-38548300D02*
X32605600Y-38682000D01*
X31465000Y-38548300D02*
X32471900Y-38548300D01*
X25347400Y-30304100D02*
X25883300Y-30840000D01*
X23653000Y-30304100D02*
X25347400Y-30304100D01*
X23365000Y-30592100D02*
X23653000Y-30304100D01*
X23365000Y-30714500D02*
X23365000Y-30592100D01*
X40086800Y-25787300D02*
X40685800Y-25787300D01*
X39565000Y-26309100D02*
X40086800Y-25787300D01*
X47155900Y-30840000D02*
X46815000Y-30840000D01*
X46815000Y-30840000D02*
X46133300Y-30840000D01*
X43149700Y-21687800D02*
X42957500Y-21687800D01*
X43446700Y-21984800D02*
X43149700Y-21687800D01*
X43446700Y-22420000D02*
X43446700Y-21984800D01*
X47060000Y-26630000D02*
X46815000Y-26630000D01*
X37321600Y-38548300D02*
X38033300Y-39260000D01*
X35515000Y-38548300D02*
X37321600Y-38548300D01*
X46815000Y-26630000D02*
X46133300Y-26630000D01*
X39396700Y-22385500D02*
X39396700Y-22420000D01*
X39920000Y-21862200D02*
X39396700Y-22385500D01*
X41102100Y-21862200D02*
X39920000Y-21862200D01*
X22915000Y-57768700D02*
X23406800Y-58260500D01*
X22915000Y-55910000D02*
X22915000Y-57768700D01*
X27454500Y-21854600D02*
X29367900Y-21854600D01*
X27415000Y-21894100D02*
X27454500Y-21854600D01*
X44992400Y-26098300D02*
X45563400Y-26669300D01*
X43825800Y-26098300D02*
X44992400Y-26098300D01*
X43615000Y-26309100D02*
X43825800Y-26098300D01*
X45602700Y-26630000D02*
X45563400Y-26669300D01*
X46133300Y-26630000D02*
X45602700Y-26630000D01*
X33271600Y-34338300D02*
X33983300Y-35050000D01*
X31465000Y-34338300D02*
X33271600Y-34338300D01*
X65619700Y-31376200D02*
X66163200Y-30832700D01*
X65619700Y-33596500D02*
X65619700Y-31376200D01*
X66253200Y-34230000D02*
X65619700Y-33596500D01*
X66577500Y-34230000D02*
X66253200Y-34230000D01*
X37321600Y-46968300D02*
X38033300Y-47680000D01*
X35515000Y-46968300D02*
X37321600Y-46968300D01*
X45421600Y-46968300D02*
X46133300Y-47680000D01*
X43615000Y-46968300D02*
X45421600Y-46968300D01*
X25837300Y-35096000D02*
X25883300Y-35050000D01*
X25069800Y-34328500D02*
X25837300Y-35096000D01*
X25069800Y-31653500D02*
X25069800Y-34328500D01*
X25883300Y-30840000D02*
X25069800Y-31653500D01*
X23293200Y-34720000D02*
X23365000Y-34791800D01*
X23171400Y-34720000D02*
X23293200Y-34720000D01*
X22991400Y-34900000D02*
X23171400Y-34720000D01*
X22675200Y-34900000D02*
X22991400Y-34900000D01*
X22675100Y-34899900D02*
X22675200Y-34900000D01*
X22675100Y-34899800D02*
X22675100Y-34899900D01*
X22685500Y-34889400D02*
X22675100Y-34899800D01*
X22877900Y-34889400D02*
X22685500Y-34889400D01*
X22918000Y-34849300D02*
X22877900Y-34889400D01*
X23023500Y-34849300D02*
X22918000Y-34849300D01*
X23169100Y-34703700D02*
X23023500Y-34849300D01*
X23507200Y-34703700D02*
X23169100Y-34703700D01*
X23882400Y-34328500D02*
X23507200Y-34703700D01*
X25069800Y-34328500D02*
X23882400Y-34328500D01*
X37136200Y-40157100D02*
X37136200Y-42907500D01*
X38033300Y-39260000D02*
X37136200Y-40157100D01*
X37698700Y-43470000D02*
X37136200Y-42907500D01*
X38033300Y-43470000D02*
X37698700Y-43470000D01*
X35547300Y-42907500D02*
X35515000Y-42939800D01*
X37136200Y-42907500D02*
X35547300Y-42907500D01*
X25455600Y-38443500D02*
X26272100Y-39260000D01*
X25455600Y-35477700D02*
X25455600Y-38443500D01*
X25837300Y-35096000D02*
X25455600Y-35477700D01*
X25265600Y-39260000D02*
X25883300Y-39260000D01*
X24718900Y-38713300D02*
X25265600Y-39260000D01*
X23388100Y-38713300D02*
X24718900Y-38713300D01*
X23365000Y-38736400D02*
X23388100Y-38713300D01*
X41120400Y-34598700D02*
X41120400Y-35050000D01*
X41038700Y-34517000D02*
X41120400Y-34598700D01*
X39839800Y-34517000D02*
X41038700Y-34517000D01*
X39565000Y-34791800D02*
X39839800Y-34517000D01*
X39565000Y-35000800D02*
X39565000Y-34791800D01*
X41120400Y-35050000D02*
X42083300Y-35050000D01*
X33005900Y-43470000D02*
X33005900Y-46696900D01*
X32008100Y-46696900D02*
X31465000Y-47240000D01*
X33005900Y-46696900D02*
X32008100Y-46696900D01*
X33036700Y-46696900D02*
X33005900Y-46696900D01*
X33983300Y-47643500D02*
X33036700Y-46696900D01*
X33983300Y-47680000D02*
X33983300Y-47643500D01*
X25265600Y-39260000D02*
X25265600Y-42935200D01*
X23355900Y-43140000D02*
X23365000Y-43149100D01*
X23171400Y-43140000D02*
X23355900Y-43140000D01*
X22991400Y-43320000D02*
X23171400Y-43140000D01*
X22675200Y-43320000D02*
X22991400Y-43320000D01*
X22592700Y-43237500D02*
X22675200Y-43320000D01*
X22592700Y-43170700D02*
X22592700Y-43237500D01*
X22596700Y-43166700D02*
X22592700Y-43170700D01*
X22881100Y-43166700D02*
X22596700Y-43166700D01*
X22904900Y-43142900D02*
X22881100Y-43166700D01*
X23037800Y-43142900D02*
X22904900Y-43142900D01*
X23245500Y-42935200D02*
X23037800Y-43142900D01*
X25265600Y-42935200D02*
X23245500Y-42935200D01*
X41102100Y-21498900D02*
X41359100Y-21241900D01*
X41102100Y-21862200D02*
X41102100Y-21498900D01*
X25457000Y-42935200D02*
X25265600Y-42935200D01*
X25883300Y-43361500D02*
X25457000Y-42935200D01*
X25883300Y-43470000D02*
X25883300Y-43361500D01*
X41359100Y-18934200D02*
X42083300Y-18210000D01*
X41359100Y-21241900D02*
X41359100Y-18934200D01*
X46040600Y-30840000D02*
X46133300Y-30840000D01*
X45225700Y-30025100D02*
X46040600Y-30840000D01*
X45225700Y-27007000D02*
X45225700Y-30025100D01*
X45563400Y-26669300D02*
X45225700Y-27007000D01*
X45122500Y-30128300D02*
X43615000Y-30128300D01*
X45225700Y-30025100D02*
X45122500Y-30128300D01*
X59757300Y-32885800D02*
X59757300Y-31585900D01*
X61101500Y-34230000D02*
X59757300Y-32885800D01*
X61427500Y-34230000D02*
X61101500Y-34230000D01*
X61427500Y-29915700D02*
X61427500Y-29605000D01*
X59757300Y-31585900D02*
X61427500Y-29915700D01*
X27415000Y-46936700D02*
X27415000Y-46968300D01*
X28296600Y-46055100D02*
X27415000Y-46936700D01*
X28604200Y-46055100D02*
X28296600Y-46055100D01*
X28950100Y-45709200D02*
X28604200Y-46055100D01*
X28950100Y-43470000D02*
X28950100Y-45709200D01*
X44715000Y-58210500D02*
X42914100Y-60011400D01*
X44715000Y-55910000D02*
X44715000Y-58210500D01*
X41950700Y-60974800D02*
X42914100Y-60011400D01*
X40090400Y-60974800D02*
X41950700Y-60974800D01*
X39265000Y-60149400D02*
X40090400Y-60974800D01*
X49246900Y-24204800D02*
X49246900Y-21708300D01*
X49443800Y-24401700D02*
X49246900Y-24204800D01*
X50022100Y-24980000D02*
X49443800Y-24401700D01*
X51127500Y-24980000D02*
X50022100Y-24980000D01*
X45512100Y-39216900D02*
X45512100Y-39260000D01*
X44998700Y-38703500D02*
X45512100Y-39216900D01*
X43647900Y-38703500D02*
X44998700Y-38703500D01*
X43615000Y-38736400D02*
X43647900Y-38703500D01*
X57105900Y-30433400D02*
X57155400Y-30433400D01*
X56277500Y-29605000D02*
X57105900Y-30433400D01*
X53881700Y-29022500D02*
X53881700Y-28764700D01*
X52291900Y-29022500D02*
X53881700Y-29022500D01*
X51709400Y-29605000D02*
X52291900Y-29022500D01*
X51127500Y-29605000D02*
X51709400Y-29605000D01*
X52272600Y-33419600D02*
X51792900Y-33899300D01*
X52272600Y-33195400D02*
X52272600Y-33419600D01*
X52324600Y-33143400D02*
X52272600Y-33195400D01*
X52324600Y-33075300D02*
X52324600Y-33143400D01*
X52454000Y-32945900D02*
X52324600Y-33075300D01*
X52454000Y-31948600D02*
X52454000Y-32945900D01*
X53605300Y-30797300D02*
X52454000Y-31948600D01*
X53605300Y-30682500D02*
X53605300Y-30797300D01*
X54347500Y-29940300D02*
X53605300Y-30682500D01*
X54347500Y-29276100D02*
X54347500Y-29940300D01*
X54093900Y-29022500D02*
X54347500Y-29276100D01*
X53881700Y-29022500D02*
X54093900Y-29022500D01*
X24937500Y-21675500D02*
X24729200Y-21883800D01*
X24937500Y-18210000D02*
X24937500Y-21675500D01*
X23580300Y-21883800D02*
X24729200Y-21883800D01*
X23365000Y-22099100D02*
X23580300Y-21883800D01*
X24937500Y-22092100D02*
X24937500Y-26003400D01*
X24729200Y-21883800D02*
X24937500Y-22092100D01*
X47927200Y-25918300D02*
X47665000Y-25918300D01*
X49443800Y-24401700D02*
X47927200Y-25918300D01*
X37046700Y-24762500D02*
X35179200Y-26630000D01*
X37046700Y-21877600D02*
X37046700Y-24762500D01*
X24739100Y-47140700D02*
X25278400Y-47680000D01*
X23443100Y-47140700D02*
X24739100Y-47140700D01*
X23428500Y-47155300D02*
X23443100Y-47140700D01*
X22945000Y-47155300D02*
X23428500Y-47155300D01*
X22930400Y-47140700D02*
X22945000Y-47155300D01*
X22510000Y-47140700D02*
X22930400Y-47140700D01*
X22451600Y-47199100D02*
X22510000Y-47140700D01*
X22451600Y-47306400D02*
X22451600Y-47199100D01*
X22675200Y-47530000D02*
X22451600Y-47306400D01*
X22991400Y-47530000D02*
X22675200Y-47530000D01*
X23171400Y-47350000D02*
X22991400Y-47530000D01*
X23255000Y-47350000D02*
X23171400Y-47350000D01*
X23365000Y-47240000D02*
X23255000Y-47350000D01*
X35351800Y-57446800D02*
X33815000Y-55910000D01*
X35351800Y-58107200D02*
X35351800Y-57446800D01*
X35301000Y-58158000D02*
X35351800Y-58107200D01*
X35301000Y-60266600D02*
X35301000Y-58158000D01*
X35301100Y-60266600D02*
X35301000Y-60266600D01*
X28694800Y-29574700D02*
X28694800Y-30128300D01*
X28974800Y-29294700D02*
X28694800Y-29574700D01*
X28974800Y-27860100D02*
X28974800Y-29294700D01*
X30015400Y-26819500D02*
X28974800Y-27860100D01*
X30015400Y-26279700D02*
X30015400Y-26819500D01*
X30015500Y-26279600D02*
X30015400Y-26279700D01*
X30029900Y-26279600D02*
X30015500Y-26279600D01*
X30040900Y-26290600D02*
X30029900Y-26279600D01*
X30522800Y-26290600D02*
X30040900Y-26290600D01*
X30679800Y-26133600D02*
X30522800Y-26290600D01*
X31217500Y-26133600D02*
X30679800Y-26133600D01*
X31296700Y-26212800D02*
X31217500Y-26133600D01*
X31296700Y-26630000D02*
X31296700Y-26212800D01*
X29406500Y-30840000D02*
X28694800Y-30128300D01*
X29933300Y-30840000D02*
X29406500Y-30840000D01*
X28694800Y-30128300D02*
X27415000Y-30128300D01*
X48657300Y-55394000D02*
X48657300Y-60220500D01*
X49200100Y-54851200D02*
X48657300Y-55394000D01*
X49200100Y-47315600D02*
X49200100Y-54851200D01*
X48982000Y-47097500D02*
X49200100Y-47315600D01*
X47717300Y-47097500D02*
X48982000Y-47097500D01*
X47665000Y-47149800D02*
X47717300Y-47097500D01*
X39894500Y-30043900D02*
X39098400Y-30840000D01*
X39894500Y-29643700D02*
X39894500Y-30043900D01*
X40355800Y-29182400D02*
X39894500Y-29643700D01*
X40717400Y-29182400D02*
X40355800Y-29182400D01*
X41117500Y-28782300D02*
X40717400Y-29182400D01*
X41117500Y-26219000D02*
X41117500Y-28782300D01*
X40685800Y-25787300D02*
X41117500Y-26219000D01*
X41102100Y-25371000D02*
X40685800Y-25787300D01*
X41102100Y-21862200D02*
X41102100Y-25371000D01*
X52708500Y-34815000D02*
X51792900Y-33899300D01*
X54143800Y-34815000D02*
X52708500Y-34815000D01*
X54630700Y-34328100D02*
X54143800Y-34815000D01*
X54869300Y-34328100D02*
X54630700Y-34328100D01*
X54875300Y-34322100D02*
X54869300Y-34328100D01*
X54883700Y-34322100D02*
X54875300Y-34322100D01*
X54902400Y-34303400D02*
X54883700Y-34322100D01*
X56204100Y-34303400D02*
X54902400Y-34303400D01*
X56277500Y-34230000D02*
X56204100Y-34303400D01*
X39627600Y-38685800D02*
X41113800Y-38685800D01*
X39393600Y-38919800D02*
X39627600Y-38685800D01*
X39361300Y-38919800D02*
X39393600Y-38919800D01*
X39315000Y-38966100D02*
X39361300Y-38919800D01*
X39315000Y-39003700D02*
X39315000Y-38966100D01*
X39484000Y-39172700D02*
X39315000Y-39003700D01*
X41688000Y-39260000D02*
X42083300Y-39260000D01*
X41113800Y-38685800D02*
X41688000Y-39260000D01*
X45595500Y-34512200D02*
X46133300Y-35050000D01*
X43940100Y-34512200D02*
X45595500Y-34512200D01*
X43565900Y-34886400D02*
X43940100Y-34512200D01*
X43565900Y-35050000D02*
X43565900Y-34886400D01*
X37500300Y-30307000D02*
X38033300Y-30840000D01*
X35726100Y-30307000D02*
X37500300Y-30307000D01*
X35515000Y-30518100D02*
X35726100Y-30307000D01*
X35515000Y-30790800D02*
X35515000Y-30518100D01*
X35788000Y-34429900D02*
X37651600Y-34429900D01*
X35515000Y-34702900D02*
X35788000Y-34429900D01*
X38094900Y-34429900D02*
X38715000Y-35050000D01*
X37651600Y-34429900D02*
X38094900Y-34429900D01*
X37651600Y-31221700D02*
X38033300Y-30840000D01*
X37651600Y-34429900D02*
X37651600Y-31221700D01*
X41108600Y-38680600D02*
X41113800Y-38685800D01*
X41108600Y-35061800D02*
X41108600Y-38680600D01*
X41120400Y-35050000D02*
X41108600Y-35061800D01*
X62204800Y-25074100D02*
X62547900Y-25417200D01*
X61427500Y-25074100D02*
X62204800Y-25074100D01*
X45329300Y-42606100D02*
X45329300Y-42636000D01*
X45512100Y-42423300D02*
X45329300Y-42606100D01*
X45512100Y-39260000D02*
X45512100Y-42423300D01*
X46133300Y-43440000D02*
X45329300Y-42636000D01*
X46133300Y-43470000D02*
X46133300Y-43440000D01*
X44204400Y-42636000D02*
X43615000Y-43225400D01*
X45329300Y-42636000D02*
X44204400Y-42636000D01*
%TD*%
M02*
