%TF.GenerationSoftware,KiCad,Pcbnew,8.0.7*%
%TF.CreationDate,2025-01-04T02:12:22-08:00*%
%TF.ProjectId,PCB,5043422e-6b69-4636-9164-5f7063625858,rev?*%
%TF.SameCoordinates,Original*%
%TF.FileFunction,Paste,Top*%
%TF.FilePolarity,Positive*%
%FSLAX46Y46*%
G04 Gerber Fmt 4.6, Leading zero omitted, Abs format (unit mm)*
G04 Created by KiCad (PCBNEW 8.0.7) date 2025-01-04 02:12:22*
%MOMM*%
%LPD*%
G01*
G04 APERTURE LIST*
G04 Aperture macros list*
%AMRoundRect*
0 Rectangle with rounded corners*
0 $1 Rounding radius*
0 $2 $3 $4 $5 $6 $7 $8 $9 X,Y pos of 4 corners*
0 Add a 4 corners polygon primitive as box body*
4,1,4,$2,$3,$4,$5,$6,$7,$8,$9,$2,$3,0*
0 Add four circle primitives for the rounded corners*
1,1,$1+$1,$2,$3*
1,1,$1+$1,$4,$5*
1,1,$1+$1,$6,$7*
1,1,$1+$1,$8,$9*
0 Add four rect primitives between the rounded corners*
20,1,$1+$1,$2,$3,$4,$5,0*
20,1,$1+$1,$4,$5,$6,$7,0*
20,1,$1+$1,$6,$7,$8,$9,0*
20,1,$1+$1,$8,$9,$2,$3,0*%
G04 Aperture macros list end*
%ADD10R,0.800000X0.500000*%
%ADD11R,0.500000X1.000000*%
%ADD12R,0.800000X0.300000*%
%ADD13R,0.500000X1.480000*%
%ADD14RoundRect,0.150000X-0.512500X-0.150000X0.512500X-0.150000X0.512500X0.150000X-0.512500X0.150000X0*%
%ADD15RoundRect,0.079500X-0.079500X-0.100500X0.079500X-0.100500X0.079500X0.100500X-0.079500X0.100500X0*%
%ADD16RoundRect,0.250000X-0.550000X0.250000X-0.550000X-0.250000X0.550000X-0.250000X0.550000X0.250000X0*%
G04 APERTURE END LIST*
D10*
%TO.C,D43*%
X26565000Y-43470000D03*
D11*
X27415000Y-43540000D03*
D12*
X26565000Y-44370000D03*
D10*
X26565000Y-45270000D03*
X28265000Y-45270000D03*
D12*
X28265000Y-44370000D03*
D13*
X27415000Y-44960000D03*
D10*
X28265000Y-43470000D03*
%TD*%
D14*
%TO.C,U1*%
X51127500Y-18455000D03*
X51127500Y-19405000D03*
X51127500Y-20355000D03*
X53402500Y-20355000D03*
X53402500Y-18455000D03*
%TD*%
D15*
%TO.C,R9*%
X53020000Y-36380000D03*
X53710000Y-36380000D03*
%TD*%
%TO.C,R35*%
X60370000Y-39880000D03*
X61060000Y-39880000D03*
%TD*%
D14*
%TO.C,U7*%
X56277500Y-27705000D03*
X56277500Y-28655000D03*
X56277500Y-29605000D03*
X58552500Y-29605000D03*
X58552500Y-27705000D03*
%TD*%
D10*
%TO.C,D10*%
X34665000Y-22420000D03*
D11*
X35515000Y-22490000D03*
D12*
X34665000Y-23320000D03*
D10*
X34665000Y-24220000D03*
X36365000Y-24220000D03*
D12*
X36365000Y-23320000D03*
D13*
X35515000Y-23910000D03*
D10*
X36365000Y-22420000D03*
%TD*%
D15*
%TO.C,R46*%
X62820000Y-45130000D03*
X63510000Y-45130000D03*
%TD*%
D10*
%TO.C,D21*%
X22515000Y-30840000D03*
D11*
X23365000Y-30910000D03*
D12*
X22515000Y-31740000D03*
D10*
X22515000Y-32640000D03*
X24215000Y-32640000D03*
D12*
X24215000Y-31740000D03*
D13*
X23365000Y-32330000D03*
D10*
X24215000Y-30840000D03*
%TD*%
%TO.C,D33*%
X42765000Y-35050000D03*
D11*
X43615000Y-35120000D03*
D12*
X42765000Y-35950000D03*
D10*
X42765000Y-36850000D03*
X44465000Y-36850000D03*
D12*
X44465000Y-35950000D03*
D13*
X43615000Y-36540000D03*
D10*
X44465000Y-35050000D03*
%TD*%
%TO.C,D4*%
X38715000Y-18210000D03*
D11*
X39565000Y-18280000D03*
D12*
X38715000Y-19110000D03*
D10*
X38715000Y-20010000D03*
X40415000Y-20010000D03*
D12*
X40415000Y-19110000D03*
D13*
X39565000Y-19700000D03*
D10*
X40415000Y-18210000D03*
%TD*%
%TO.C,D40*%
X42765000Y-39260000D03*
D11*
X43615000Y-39330000D03*
D12*
X42765000Y-40160000D03*
D10*
X42765000Y-41060000D03*
X44465000Y-41060000D03*
D12*
X44465000Y-40160000D03*
D13*
X43615000Y-40750000D03*
D10*
X44465000Y-39260000D03*
%TD*%
%TO.C,D44*%
X30615000Y-43470000D03*
D11*
X31465000Y-43540000D03*
D12*
X30615000Y-44370000D03*
D10*
X30615000Y-45270000D03*
X32315000Y-45270000D03*
D12*
X32315000Y-44370000D03*
D13*
X31465000Y-44960000D03*
D10*
X32315000Y-43470000D03*
%TD*%
D16*
%TO.C,SW0*%
X22915000Y-52410000D03*
X25215000Y-54160000D03*
X22915000Y-55910000D03*
%TD*%
D15*
%TO.C,R15*%
X53020000Y-46880000D03*
X53710000Y-46880000D03*
%TD*%
D10*
%TO.C,D23*%
X30615000Y-30840000D03*
D11*
X31465000Y-30910000D03*
D12*
X30615000Y-31740000D03*
D10*
X30615000Y-32640000D03*
X32315000Y-32640000D03*
D12*
X32315000Y-31740000D03*
D13*
X31465000Y-32330000D03*
D10*
X32315000Y-30840000D03*
%TD*%
D15*
%TO.C,R6*%
X50570000Y-45130000D03*
X51260000Y-45130000D03*
%TD*%
D14*
%TO.C,U12*%
X61427500Y-32330000D03*
X61427500Y-33280000D03*
X61427500Y-34230000D03*
X63702500Y-34230000D03*
X63702500Y-32330000D03*
%TD*%
D15*
%TO.C,R17*%
X55470000Y-36380000D03*
X56160000Y-36380000D03*
%TD*%
D10*
%TO.C,D50*%
X26565000Y-47680000D03*
D11*
X27415000Y-47750000D03*
D12*
X26565000Y-48580000D03*
D10*
X26565000Y-49480000D03*
X28265000Y-49480000D03*
D12*
X28265000Y-48580000D03*
D13*
X27415000Y-49170000D03*
D10*
X28265000Y-47680000D03*
%TD*%
D14*
%TO.C,U5*%
X56277500Y-18455000D03*
X56277500Y-19405000D03*
X56277500Y-20355000D03*
X58552500Y-20355000D03*
X58552500Y-18455000D03*
%TD*%
D10*
%TO.C,D53*%
X38715000Y-47680000D03*
D11*
X39565000Y-47750000D03*
D12*
X38715000Y-48580000D03*
D10*
X38715000Y-49480000D03*
X40415000Y-49480000D03*
D12*
X40415000Y-48580000D03*
D13*
X39565000Y-49170000D03*
D10*
X40415000Y-47680000D03*
%TD*%
D16*
%TO.C,SW7*%
X33815000Y-59360000D03*
X36115000Y-61110000D03*
X33815000Y-62860000D03*
%TD*%
D15*
%TO.C,R55*%
X65270000Y-46880000D03*
X65960000Y-46880000D03*
%TD*%
D10*
%TO.C,D7*%
X22515000Y-22420000D03*
D11*
X23365000Y-22490000D03*
D12*
X22515000Y-23320000D03*
D10*
X22515000Y-24220000D03*
X24215000Y-24220000D03*
D12*
X24215000Y-23320000D03*
D13*
X23365000Y-23910000D03*
D10*
X24215000Y-22420000D03*
%TD*%
D15*
%TO.C,R2*%
X50570000Y-38130000D03*
X51260000Y-38130000D03*
%TD*%
D10*
%TO.C,D42*%
X22515000Y-43470000D03*
D11*
X23365000Y-43540000D03*
D12*
X22515000Y-44370000D03*
D10*
X22515000Y-45270000D03*
X24215000Y-45270000D03*
D12*
X24215000Y-44370000D03*
D13*
X23365000Y-44960000D03*
D10*
X24215000Y-43470000D03*
%TD*%
D15*
%TO.C,R1*%
X50570000Y-36380000D03*
X51260000Y-36380000D03*
%TD*%
%TO.C,R45*%
X62820000Y-43380000D03*
X63510000Y-43380000D03*
%TD*%
D10*
%TO.C,D24*%
X34665000Y-30840000D03*
D11*
X35515000Y-30910000D03*
D12*
X34665000Y-31740000D03*
D10*
X34665000Y-32640000D03*
X36365000Y-32640000D03*
D12*
X36365000Y-31740000D03*
D13*
X35515000Y-32330000D03*
D10*
X36365000Y-30840000D03*
%TD*%
D15*
%TO.C,R24*%
X55470000Y-48630000D03*
X56160000Y-48630000D03*
%TD*%
D10*
%TO.C,D6*%
X46815000Y-18210000D03*
D11*
X47665000Y-18280000D03*
D12*
X46815000Y-19110000D03*
D10*
X46815000Y-20010000D03*
X48515000Y-20010000D03*
D12*
X48515000Y-19110000D03*
D13*
X47665000Y-19700000D03*
D10*
X48515000Y-18210000D03*
%TD*%
%TO.C,D11*%
X38715000Y-22420000D03*
D11*
X39565000Y-22490000D03*
D12*
X38715000Y-23320000D03*
D10*
X38715000Y-24220000D03*
X40415000Y-24220000D03*
D12*
X40415000Y-23320000D03*
D13*
X39565000Y-23910000D03*
D10*
X40415000Y-22420000D03*
%TD*%
D15*
%TO.C,R37*%
X60370000Y-43380000D03*
X61060000Y-43380000D03*
%TD*%
D10*
%TO.C,D17*%
X34665000Y-26630000D03*
D11*
X35515000Y-26700000D03*
D12*
X34665000Y-27530000D03*
D10*
X34665000Y-28430000D03*
X36365000Y-28430000D03*
D12*
X36365000Y-27530000D03*
D13*
X35515000Y-28120000D03*
D10*
X36365000Y-26630000D03*
%TD*%
D15*
%TO.C,R20*%
X55470000Y-41630000D03*
X56160000Y-41630000D03*
%TD*%
%TO.C,R16*%
X53020000Y-48630000D03*
X53710000Y-48630000D03*
%TD*%
D10*
%TO.C,D12*%
X42765000Y-22420000D03*
D11*
X43615000Y-22490000D03*
D12*
X42765000Y-23320000D03*
D10*
X42765000Y-24220000D03*
X44465000Y-24220000D03*
D12*
X44465000Y-23320000D03*
D13*
X43615000Y-23910000D03*
D10*
X44465000Y-22420000D03*
%TD*%
D16*
%TO.C,SW4*%
X44715000Y-52410000D03*
X47015000Y-54160000D03*
X44715000Y-55910000D03*
%TD*%
D15*
%TO.C,R27*%
X57920000Y-39880000D03*
X58610000Y-39880000D03*
%TD*%
D10*
%TO.C,D37*%
X30615000Y-39260000D03*
D11*
X31465000Y-39330000D03*
D12*
X30615000Y-40160000D03*
D10*
X30615000Y-41060000D03*
X32315000Y-41060000D03*
D12*
X32315000Y-40160000D03*
D13*
X31465000Y-40750000D03*
D10*
X32315000Y-39260000D03*
%TD*%
%TO.C,D34*%
X46815000Y-35050000D03*
D11*
X47665000Y-35120000D03*
D12*
X46815000Y-35950000D03*
D10*
X46815000Y-36850000D03*
X48515000Y-36850000D03*
D12*
X48515000Y-35950000D03*
D13*
X47665000Y-36540000D03*
D10*
X48515000Y-35050000D03*
%TD*%
D15*
%TO.C,R7*%
X50570000Y-46880000D03*
X51260000Y-46880000D03*
%TD*%
D10*
%TO.C,D15*%
X26565000Y-26630000D03*
D11*
X27415000Y-26700000D03*
D12*
X26565000Y-27530000D03*
D10*
X26565000Y-28430000D03*
X28265000Y-28430000D03*
D12*
X28265000Y-27530000D03*
D13*
X27415000Y-28120000D03*
D10*
X28265000Y-26630000D03*
%TD*%
%TO.C,D25*%
X38715000Y-30840000D03*
D11*
X39565000Y-30910000D03*
D12*
X38715000Y-31740000D03*
D10*
X38715000Y-32640000D03*
X40415000Y-32640000D03*
D12*
X40415000Y-31740000D03*
D13*
X39565000Y-32330000D03*
D10*
X40415000Y-30840000D03*
%TD*%
D15*
%TO.C,R22*%
X55470000Y-45130000D03*
X56160000Y-45130000D03*
%TD*%
D10*
%TO.C,D49*%
X22515000Y-47680000D03*
D11*
X23365000Y-47750000D03*
D12*
X22515000Y-48580000D03*
D10*
X22515000Y-49480000D03*
X24215000Y-49480000D03*
D12*
X24215000Y-48580000D03*
D13*
X23365000Y-49170000D03*
D10*
X24215000Y-47680000D03*
%TD*%
D15*
%TO.C,R28*%
X57920000Y-41630000D03*
X58610000Y-41630000D03*
%TD*%
%TO.C,R5*%
X50570000Y-43380000D03*
X51260000Y-43380000D03*
%TD*%
%TO.C,R43*%
X62820000Y-39880000D03*
X63510000Y-39880000D03*
%TD*%
%TO.C,R38*%
X60370000Y-45130000D03*
X61060000Y-45130000D03*
%TD*%
D16*
%TO.C,SW2*%
X33815000Y-52410000D03*
X36115000Y-54160000D03*
X33815000Y-55910000D03*
%TD*%
D15*
%TO.C,R44*%
X62820000Y-41630000D03*
X63510000Y-41630000D03*
%TD*%
%TO.C,R50*%
X65270000Y-38130000D03*
X65960000Y-38130000D03*
%TD*%
D10*
%TO.C,D46*%
X38715000Y-43470000D03*
D11*
X39565000Y-43540000D03*
D12*
X38715000Y-44370000D03*
D10*
X38715000Y-45270000D03*
X40415000Y-45270000D03*
D12*
X40415000Y-44370000D03*
D13*
X39565000Y-44960000D03*
D10*
X40415000Y-43470000D03*
%TD*%
D14*
%TO.C,U10*%
X61427500Y-23080000D03*
X61427500Y-24030000D03*
X61427500Y-24980000D03*
X63702500Y-24980000D03*
X63702500Y-23080000D03*
%TD*%
%TO.C,U9*%
X61427500Y-18455000D03*
X61427500Y-19405000D03*
X61427500Y-20355000D03*
X63702500Y-20355000D03*
X63702500Y-18455000D03*
%TD*%
D15*
%TO.C,R8*%
X50570000Y-48630000D03*
X51260000Y-48630000D03*
%TD*%
D14*
%TO.C,U3*%
X51127500Y-27705000D03*
X51127500Y-28655000D03*
X51127500Y-29605000D03*
X53402500Y-29605000D03*
X53402500Y-27705000D03*
%TD*%
D10*
%TO.C,D9*%
X30615000Y-22420000D03*
D11*
X31465000Y-22490000D03*
D12*
X30615000Y-23320000D03*
D10*
X30615000Y-24220000D03*
X32315000Y-24220000D03*
D12*
X32315000Y-23320000D03*
D13*
X31465000Y-23910000D03*
D10*
X32315000Y-22420000D03*
%TD*%
%TO.C,D35*%
X22515000Y-39260000D03*
D11*
X23365000Y-39330000D03*
D12*
X22515000Y-40160000D03*
D10*
X22515000Y-41060000D03*
X24215000Y-41060000D03*
D12*
X24215000Y-40160000D03*
D13*
X23365000Y-40750000D03*
D10*
X24215000Y-39260000D03*
%TD*%
%TO.C,D26*%
X42765000Y-30840000D03*
D11*
X43615000Y-30910000D03*
D12*
X42765000Y-31740000D03*
D10*
X42765000Y-32640000D03*
X44465000Y-32640000D03*
D12*
X44465000Y-31740000D03*
D13*
X43615000Y-32330000D03*
D10*
X44465000Y-30840000D03*
%TD*%
%TO.C,D14*%
X22515000Y-26630000D03*
D11*
X23365000Y-26700000D03*
D12*
X22515000Y-27530000D03*
D10*
X22515000Y-28430000D03*
X24215000Y-28430000D03*
D12*
X24215000Y-27530000D03*
D13*
X23365000Y-28120000D03*
D10*
X24215000Y-26630000D03*
%TD*%
%TO.C,D48*%
X46815000Y-43470000D03*
D11*
X47665000Y-43540000D03*
D12*
X46815000Y-44370000D03*
D10*
X46815000Y-45270000D03*
X48515000Y-45270000D03*
D12*
X48515000Y-44370000D03*
D13*
X47665000Y-44960000D03*
D10*
X48515000Y-43470000D03*
%TD*%
%TO.C,D20*%
X46815000Y-26630000D03*
D11*
X47665000Y-26700000D03*
D12*
X46815000Y-27530000D03*
D10*
X46815000Y-28430000D03*
X48515000Y-28430000D03*
D12*
X48515000Y-27530000D03*
D13*
X47665000Y-28120000D03*
D10*
X48515000Y-26630000D03*
%TD*%
D15*
%TO.C,R32*%
X57920000Y-48630000D03*
X58610000Y-48630000D03*
%TD*%
D10*
%TO.C,D3*%
X34665000Y-18210000D03*
D11*
X35515000Y-18280000D03*
D12*
X34665000Y-19110000D03*
D10*
X34665000Y-20010000D03*
X36365000Y-20010000D03*
D12*
X36365000Y-19110000D03*
D13*
X35515000Y-19700000D03*
D10*
X36365000Y-18210000D03*
%TD*%
%TO.C,D54*%
X42765000Y-47680000D03*
D11*
X43615000Y-47750000D03*
D12*
X42765000Y-48580000D03*
D10*
X42765000Y-49480000D03*
X44465000Y-49480000D03*
D12*
X44465000Y-48580000D03*
D13*
X43615000Y-49170000D03*
D10*
X44465000Y-47680000D03*
%TD*%
D15*
%TO.C,R11*%
X53020000Y-39880000D03*
X53710000Y-39880000D03*
%TD*%
D10*
%TO.C,D1*%
X26565000Y-18210000D03*
D11*
X27415000Y-18280000D03*
D12*
X26565000Y-19110000D03*
D10*
X26565000Y-20010000D03*
X28265000Y-20010000D03*
D12*
X28265000Y-19110000D03*
D13*
X27415000Y-19700000D03*
D10*
X28265000Y-18210000D03*
%TD*%
D14*
%TO.C,U4*%
X51127500Y-32330000D03*
X51127500Y-33280000D03*
X51127500Y-34230000D03*
X53402500Y-34230000D03*
X53402500Y-32330000D03*
%TD*%
D10*
%TO.C,D51*%
X30615000Y-47680000D03*
D11*
X31465000Y-47750000D03*
D12*
X30615000Y-48580000D03*
D10*
X30615000Y-49480000D03*
X32315000Y-49480000D03*
D12*
X32315000Y-48580000D03*
D13*
X31465000Y-49170000D03*
D10*
X32315000Y-47680000D03*
%TD*%
D15*
%TO.C,R25*%
X57920000Y-36380000D03*
X58610000Y-36380000D03*
%TD*%
D16*
%TO.C,SW1*%
X28365000Y-52410000D03*
X30665000Y-54160000D03*
X28365000Y-55910000D03*
%TD*%
D14*
%TO.C,U14*%
X66577500Y-23080000D03*
X66577500Y-24030000D03*
X66577500Y-24980000D03*
X68852500Y-24980000D03*
X68852500Y-23080000D03*
%TD*%
D15*
%TO.C,R54*%
X65270000Y-45130000D03*
X65960000Y-45130000D03*
%TD*%
D10*
%TO.C,D19*%
X42765000Y-26630000D03*
D11*
X43615000Y-26700000D03*
D12*
X42765000Y-27530000D03*
D10*
X42765000Y-28430000D03*
X44465000Y-28430000D03*
D12*
X44465000Y-27530000D03*
D13*
X43615000Y-28120000D03*
D10*
X44465000Y-26630000D03*
%TD*%
%TO.C,D16*%
X30615000Y-26630000D03*
D11*
X31465000Y-26700000D03*
D12*
X30615000Y-27530000D03*
D10*
X30615000Y-28430000D03*
X32315000Y-28430000D03*
D12*
X32315000Y-27530000D03*
D13*
X31465000Y-28120000D03*
D10*
X32315000Y-26630000D03*
%TD*%
D15*
%TO.C,R51*%
X65270000Y-39880000D03*
X65960000Y-39880000D03*
%TD*%
%TO.C,R3*%
X50570000Y-39880000D03*
X51260000Y-39880000D03*
%TD*%
%TO.C,R47*%
X62820000Y-46880000D03*
X63510000Y-46880000D03*
%TD*%
%TO.C,R34*%
X60370000Y-38130000D03*
X61060000Y-38130000D03*
%TD*%
D10*
%TO.C,D2*%
X30615000Y-18210000D03*
D11*
X31465000Y-18280000D03*
D12*
X30615000Y-19110000D03*
D10*
X30615000Y-20010000D03*
X32315000Y-20010000D03*
D12*
X32315000Y-19110000D03*
D13*
X31465000Y-19700000D03*
D10*
X32315000Y-18210000D03*
%TD*%
D15*
%TO.C,R39*%
X60370000Y-46880000D03*
X61060000Y-46880000D03*
%TD*%
D14*
%TO.C,U11*%
X61427500Y-27705000D03*
X61427500Y-28655000D03*
X61427500Y-29605000D03*
X63702500Y-29605000D03*
X63702500Y-27705000D03*
%TD*%
D10*
%TO.C,D0*%
X22515000Y-18210000D03*
D11*
X23365000Y-18280000D03*
D12*
X22515000Y-19110000D03*
D10*
X22515000Y-20010000D03*
X24215000Y-20010000D03*
D12*
X24215000Y-19110000D03*
D13*
X23365000Y-19700000D03*
D10*
X24215000Y-18210000D03*
%TD*%
D15*
%TO.C,R14*%
X53020000Y-45130000D03*
X53710000Y-45130000D03*
%TD*%
%TO.C,R36*%
X60370000Y-41630000D03*
X61060000Y-41630000D03*
%TD*%
D10*
%TO.C,D28*%
X22515000Y-35050000D03*
D11*
X23365000Y-35120000D03*
D12*
X22515000Y-35950000D03*
D10*
X22515000Y-36850000D03*
X24215000Y-36850000D03*
D12*
X24215000Y-35950000D03*
D13*
X23365000Y-36540000D03*
D10*
X24215000Y-35050000D03*
%TD*%
D14*
%TO.C,U15*%
X66577500Y-27705000D03*
X66577500Y-28655000D03*
X66577500Y-29605000D03*
X68852500Y-29605000D03*
X68852500Y-27705000D03*
%TD*%
D10*
%TO.C,D22*%
X26565000Y-30840000D03*
D11*
X27415000Y-30910000D03*
D12*
X26565000Y-31740000D03*
D10*
X26565000Y-32640000D03*
X28265000Y-32640000D03*
D12*
X28265000Y-31740000D03*
D13*
X27415000Y-32330000D03*
D10*
X28265000Y-30840000D03*
%TD*%
D15*
%TO.C,R49*%
X65270000Y-36380000D03*
X65960000Y-36380000D03*
%TD*%
D10*
%TO.C,D13*%
X46815000Y-22420000D03*
D11*
X47665000Y-22490000D03*
D12*
X46815000Y-23320000D03*
D10*
X46815000Y-24220000D03*
X48515000Y-24220000D03*
D12*
X48515000Y-23320000D03*
D13*
X47665000Y-23910000D03*
D10*
X48515000Y-22420000D03*
%TD*%
%TO.C,D5*%
X42765000Y-18210000D03*
D11*
X43615000Y-18280000D03*
D12*
X42765000Y-19110000D03*
D10*
X42765000Y-20010000D03*
X44465000Y-20010000D03*
D12*
X44465000Y-19110000D03*
D13*
X43615000Y-19700000D03*
D10*
X44465000Y-18210000D03*
%TD*%
D15*
%TO.C,R10*%
X53020000Y-38130000D03*
X53710000Y-38130000D03*
%TD*%
%TO.C,R30*%
X57920000Y-45130000D03*
X58610000Y-45130000D03*
%TD*%
D10*
%TO.C,D38*%
X34665000Y-39260000D03*
D11*
X35515000Y-39330000D03*
D12*
X34665000Y-40160000D03*
D10*
X34665000Y-41060000D03*
X36365000Y-41060000D03*
D12*
X36365000Y-40160000D03*
D13*
X35515000Y-40750000D03*
D10*
X36365000Y-39260000D03*
%TD*%
D15*
%TO.C,R13*%
X53020000Y-43380000D03*
X53710000Y-43380000D03*
%TD*%
D16*
%TO.C,SW3*%
X39265000Y-52410000D03*
X41565000Y-54160000D03*
X39265000Y-55910000D03*
%TD*%
D15*
%TO.C,R31*%
X57920000Y-46880000D03*
X58610000Y-46880000D03*
%TD*%
D10*
%TO.C,D31*%
X34665000Y-35050000D03*
D11*
X35515000Y-35120000D03*
D12*
X34665000Y-35950000D03*
D10*
X34665000Y-36850000D03*
X36365000Y-36850000D03*
D12*
X36365000Y-35950000D03*
D13*
X35515000Y-36540000D03*
D10*
X36365000Y-35050000D03*
%TD*%
%TO.C,D30*%
X30615000Y-35050000D03*
D11*
X31465000Y-35120000D03*
D12*
X30615000Y-35950000D03*
D10*
X30615000Y-36850000D03*
X32315000Y-36850000D03*
D12*
X32315000Y-35950000D03*
D13*
X31465000Y-36540000D03*
D10*
X32315000Y-35050000D03*
%TD*%
%TO.C,D8*%
X26565000Y-22420000D03*
D11*
X27415000Y-22490000D03*
D12*
X26565000Y-23320000D03*
D10*
X26565000Y-24220000D03*
X28265000Y-24220000D03*
D12*
X28265000Y-23320000D03*
D13*
X27415000Y-23910000D03*
D10*
X28265000Y-22420000D03*
%TD*%
%TO.C,D36*%
X26565000Y-39260000D03*
D11*
X27415000Y-39330000D03*
D12*
X26565000Y-40160000D03*
D10*
X26565000Y-41060000D03*
X28265000Y-41060000D03*
D12*
X28265000Y-40160000D03*
D13*
X27415000Y-40750000D03*
D10*
X28265000Y-39260000D03*
%TD*%
D15*
%TO.C,R52*%
X65270000Y-41630000D03*
X65960000Y-41630000D03*
%TD*%
D10*
%TO.C,D18*%
X38715000Y-26630000D03*
D11*
X39565000Y-26700000D03*
D12*
X38715000Y-27530000D03*
D10*
X38715000Y-28430000D03*
X40415000Y-28430000D03*
D12*
X40415000Y-27530000D03*
D13*
X39565000Y-28120000D03*
D10*
X40415000Y-26630000D03*
%TD*%
D14*
%TO.C,U8*%
X56277500Y-32330000D03*
X56277500Y-33280000D03*
X56277500Y-34230000D03*
X58552500Y-34230000D03*
X58552500Y-32330000D03*
%TD*%
D15*
%TO.C,R41*%
X62820000Y-36380000D03*
X63510000Y-36380000D03*
%TD*%
%TO.C,R48*%
X62820000Y-48630000D03*
X63510000Y-48630000D03*
%TD*%
D14*
%TO.C,U16*%
X66577500Y-32330000D03*
X66577500Y-33280000D03*
X66577500Y-34230000D03*
X68852500Y-34230000D03*
X68852500Y-32330000D03*
%TD*%
%TO.C,U2*%
X51127500Y-23080000D03*
X51127500Y-24030000D03*
X51127500Y-24980000D03*
X53402500Y-24980000D03*
X53402500Y-23080000D03*
%TD*%
D10*
%TO.C,D45*%
X34665000Y-43470000D03*
D11*
X35515000Y-43540000D03*
D12*
X34665000Y-44370000D03*
D10*
X34665000Y-45270000D03*
X36365000Y-45270000D03*
D12*
X36365000Y-44370000D03*
D13*
X35515000Y-44960000D03*
D10*
X36365000Y-43470000D03*
%TD*%
%TO.C,D39*%
X38715000Y-39260000D03*
D11*
X39565000Y-39330000D03*
D12*
X38715000Y-40160000D03*
D10*
X38715000Y-41060000D03*
X40415000Y-41060000D03*
D12*
X40415000Y-40160000D03*
D13*
X39565000Y-40750000D03*
D10*
X40415000Y-39260000D03*
%TD*%
D15*
%TO.C,R26*%
X57920000Y-38130000D03*
X58610000Y-38130000D03*
%TD*%
D16*
%TO.C,SW6*%
X28365000Y-59360000D03*
X30665000Y-61110000D03*
X28365000Y-62860000D03*
%TD*%
D14*
%TO.C,U13*%
X66577500Y-18455000D03*
X66577500Y-19405000D03*
X66577500Y-20355000D03*
X68852500Y-20355000D03*
X68852500Y-18455000D03*
%TD*%
D15*
%TO.C,R42*%
X62820000Y-38130000D03*
X63510000Y-38130000D03*
%TD*%
D10*
%TO.C,D47*%
X42765000Y-43470000D03*
D11*
X43615000Y-43540000D03*
D12*
X42765000Y-44370000D03*
D10*
X42765000Y-45270000D03*
X44465000Y-45270000D03*
D12*
X44465000Y-44370000D03*
D13*
X43615000Y-44960000D03*
D10*
X44465000Y-43470000D03*
%TD*%
D15*
%TO.C,R40*%
X60370000Y-48630000D03*
X61060000Y-48630000D03*
%TD*%
D10*
%TO.C,D55*%
X46815000Y-47680000D03*
D11*
X47665000Y-47750000D03*
D12*
X46815000Y-48580000D03*
D10*
X46815000Y-49480000D03*
X48515000Y-49480000D03*
D12*
X48515000Y-48580000D03*
D13*
X47665000Y-49170000D03*
D10*
X48515000Y-47680000D03*
%TD*%
D15*
%TO.C,R4*%
X50570000Y-41630000D03*
X51260000Y-41630000D03*
%TD*%
D10*
%TO.C,D32*%
X38715000Y-35050000D03*
D11*
X39565000Y-35120000D03*
D12*
X38715000Y-35950000D03*
D10*
X38715000Y-36850000D03*
X40415000Y-36850000D03*
D12*
X40415000Y-35950000D03*
D13*
X39565000Y-36540000D03*
D10*
X40415000Y-35050000D03*
%TD*%
%TO.C,D52*%
X34665000Y-47680000D03*
D11*
X35515000Y-47750000D03*
D12*
X34665000Y-48580000D03*
D10*
X34665000Y-49480000D03*
X36365000Y-49480000D03*
D12*
X36365000Y-48580000D03*
D13*
X35515000Y-49170000D03*
D10*
X36365000Y-47680000D03*
%TD*%
D15*
%TO.C,R33*%
X60370000Y-36380000D03*
X61060000Y-36380000D03*
%TD*%
%TO.C,R56*%
X65270000Y-48630000D03*
X65960000Y-48630000D03*
%TD*%
%TO.C,R29*%
X57920000Y-43380000D03*
X58610000Y-43380000D03*
%TD*%
%TO.C,R53*%
X65270000Y-43380000D03*
X65960000Y-43380000D03*
%TD*%
D10*
%TO.C,D41*%
X46815000Y-39260000D03*
D11*
X47665000Y-39330000D03*
D12*
X46815000Y-40160000D03*
D10*
X46815000Y-41060000D03*
X48515000Y-41060000D03*
D12*
X48515000Y-40160000D03*
D13*
X47665000Y-40750000D03*
D10*
X48515000Y-39260000D03*
%TD*%
D15*
%TO.C,R18*%
X55470000Y-38130000D03*
X56160000Y-38130000D03*
%TD*%
D14*
%TO.C,U6*%
X56277500Y-23080000D03*
X56277500Y-24030000D03*
X56277500Y-24980000D03*
X58552500Y-24980000D03*
X58552500Y-23080000D03*
%TD*%
D15*
%TO.C,R21*%
X55470000Y-43380000D03*
X56160000Y-43380000D03*
%TD*%
D10*
%TO.C,D29*%
X26565000Y-35050000D03*
D11*
X27415000Y-35120000D03*
D12*
X26565000Y-35950000D03*
D10*
X26565000Y-36850000D03*
X28265000Y-36850000D03*
D12*
X28265000Y-35950000D03*
D13*
X27415000Y-36540000D03*
D10*
X28265000Y-35050000D03*
%TD*%
%TO.C,D27*%
X46815000Y-30840000D03*
D11*
X47665000Y-30910000D03*
D12*
X46815000Y-31740000D03*
D10*
X46815000Y-32640000D03*
X48515000Y-32640000D03*
D12*
X48515000Y-31740000D03*
D13*
X47665000Y-32330000D03*
D10*
X48515000Y-30840000D03*
%TD*%
D15*
%TO.C,R19*%
X55470000Y-39880000D03*
X56160000Y-39880000D03*
%TD*%
D16*
%TO.C,SW5*%
X22915000Y-59360000D03*
X25215000Y-61110000D03*
X22915000Y-62860000D03*
%TD*%
D15*
%TO.C,R12*%
X53020000Y-41630000D03*
X53710000Y-41630000D03*
%TD*%
%TO.C,R23*%
X55470000Y-46880000D03*
X56160000Y-46880000D03*
%TD*%
M02*
